<?xml version="1.0" encoding="UTF-8" standalone="no"?>
<svg
   id="_레이어_4"
   data-name="레이어_4"
   version="1.1"
   viewBox="0 0 225.00001 215"
   sodipodi:docname="guide2.svg"
   width="225"
   height="215"
   inkscape:version="1.4 (86a8ad7, 2024-10-11)"
   xmlns:inkscape="http://www.inkscape.org/namespaces/inkscape"
   xmlns:sodipodi="http://sodipodi.sourceforge.net/DTD/sodipodi-0.dtd"
   xmlns="http://www.w3.org/2000/svg"
   xmlns:svg="http://www.w3.org/2000/svg">
  <sodipodi:namedview
     id="namedview44"
     pagecolor="#ffffff"
     bordercolor="#000000"
     borderopacity="0.25"
     inkscape:showpageshadow="2"
     inkscape:pageopacity="0.0"
     inkscape:pagecheckerboard="0"
     inkscape:deskcolor="#d1d1d1"
     inkscape:zoom="2.1512681"
     inkscape:cx="76.001685"
     inkscape:cy="54.618948"
     inkscape:window-width="1920"
     inkscape:window-height="1057"
     inkscape:window-x="-8"
     inkscape:window-y="-8"
     inkscape:window-maximized="1"
     inkscape:current-layer="g24" />
  <!-- Generator: Adobe Illustrator 29.0.0, SVG Export Plug-In . SVG Version: 2.1.0 Build 186)  -->
  <defs
     id="defs1">
    <style
       id="style1">
      .st0 {
        stroke-dasharray: 4;
      }

      .st0, .st1, .st2, .st3, .st4, .st5, .st6, .st7, .st8 {
        stroke-miterlimit: 10;
      }

      .st0, .st1, .st2, .st3, .st4, .st5, .st7, .st8 {
        stroke-width: .5px;
      }

      .st0, .st1, .st2, .st3, .st5, .st6 {
        fill: none;
      }

      .st0, .st1, .st2, .st5 {
        stroke: #919191;
      }

      .st2 {
        stroke-dasharray: 4.05 4.05;
      }

      .st9 {
        fill: #ea5c70;
      }

      .st3, .st4, .st6, .st7, .st8 {
        stroke: #231815;
      }

      .st4 {
        fill: #616161;
      }

      .st10 {
        fill: #231815;
      }

      .st5 {
        stroke-dasharray: 4.12 4.12;
      }

      .st7 {
        fill: #dbdbdb;
      }

      .st8 {
        fill: #404040;
      }
    </style>
  </defs>
  <g
     id="g24"
     transform="translate(-26.350769,-23.106431)">
    <path
       class="st7"
       d="m 212.17,98.79 c -1,1.15 -1.8,1.87 -2.9,2.95 -1.61,1.57 -2.95,3.36 -4.39,5.06 -1.29,1.52 -2.52,3.95 -2.88,5.97 -0.34,1.9 -0.47,3.95 1.06,5.34 2.43,2.21 4.4,1.88 7.5,2 1.4,0.05 3.91,-0.96 5.21,-1.43 0.62,-0.22 1.46,-0.6 2.1,-0.62"
       id="path1" />
    <g
       id="g4">
      <path
         class="st6"
         d="m 231.86,144.64 c 0.32,3.43 -1.81,6.73 -5.24,7.76 l -56.37,17.23 c -3.91,1.17 -8.03,-1.04 -9.21,-4.95 L 128.31,55.67 c -1.17,-3.91 1.04,-8.03 4.95,-9.21 l 56.37,-17.23 c 3.91,-1.17 7.52,0.31 8.69,4.22 0,0 16.44,55.97 26.05,87.97"
         id="path2"
         style="stroke-width:0.7;stroke-dasharray:none" />
      <path
         class="st3"
         d="m 231.56,144.49 c 0.33,3.44 -1.8,6.74 -5.23,7.77 l -54.04,16.23 c -3.91,1.17 -8.03,-1.04 -9.21,-4.95 L 130.35,54.53 c -1.17,-3.91 1.09,-7.53 5,-8.71 L 189.34,29.1 c 3.91,-1.17 8.03,1.04 9.21,4.95 0,0 15.93,55.24 25.54,87.23"
         id="path3" />
      <circle
         class="st4"
         cx="192.77"
         cy="145.07001"
         r="6.0500002"
         id="circle3" />
      <circle
         class="st8"
         cx="166.45"
         cy="44.790001"
         r="1.4"
         id="circle4" />
      <path
         class="st3"
         d="M 219.19,122.19 C 209.33,89.36 192.62,33.68 192.62,33.68 l -58.78,17.62 1.84,6.13 3.92,13.08 27.86,92.75 58.78,-17.62 c 0,0 -0.47,-1.54 -1.28,-4.26"
         id="path4"
         style="display:inline" />
    </g>
    <path
       class="st3"
       d="m 197.02,131.91 c -1.43,0.64 -2.94,3.31 -1.22,4.55 0.75,0.54 2.08,0.56 2.97,0.66 0.89,0.1 1.17,0 1.53,-0.87 0.53,-1.29 1.15,-4.15 1.88,-5.36"
       id="path5" />
    <line
       class="st3"
       x1="135.67999"
       y1="57.43"
       x2="194.41"
       y2="39.650002"
       id="line5" />
    <path
       class="st7"
       d="m 169.52,47.18 c -0.93,0.65 -2.16,1.19 -3.13,1.88 -2.55,1.82 -5.24,3.53 -7.82,5.34 -3.84,2.68 -7.5,5.63 -11.07,8.65 -1.98,1.66 -3.81,3.4 -5.67,5.17 -0.92,0.87 -0.94,0.82 -1.76,1.79 -0.07,0.09 -0.24,0.26 -0.46,0.48 l -3.92,-13.08 33.84,-10.24 z"
       id="path6" />
    <path
       class="st9"
       d="m 183.92,91.53 c 0.46,-0.79 0.59,-1.5 0.43,-2.4 -0.31,-1.79 -1.7,-2.53 -3.4,-2.56 -2.84,-0.05 -6.25,0.77 -6.46,4.25 -0.32,5.24 7.6,3.83 9.43,0.7 z"
       id="path7" />
    <path
       class="st9"
       d="m 99.99,119.52 c 0.21,-0.37 0.27,-0.7 0.2,-1.11 -0.14,-0.83 -0.79,-1.18 -1.58,-1.19 -1.32,-0.02 -2.91,0.36 -3.01,1.98 -0.15,2.44 3.54,1.78 4.38,0.33 z"
       id="path8" />
    <path
       class="st6"
       d="m 41.79,122.03 c 4.56,-1.42 9.12,-2.58 12.98,-5.8 1.67,-1.39 3.48,-2.58 5.14,-3.98 2.01,-1.7 4.03,-3.44 6.15,-4.99 3.82,-2.8 7.36,-6.03 11.26,-8.7 3.91,-2.68 7.05,-6.15 11.26,-8.29 2.12,-1.08 4.43,-1.84 6.67,-2.78 1.83,-0.77 3.7,-1.45 5.58,-2.07 0.9,-0.3 1.8,-0.65 2.72,-0.91 1.01,-0.29 1.89,-0.79 2.9,-1.11 2.68,-0.85 5.23,-2.17 8,-2.68 4.09,-0.75 9.4,-1.07 13.56,-1.07"
       id="path9"
       style="stroke-width:0.5;stroke-dasharray:none" />
    <path
       class="st6"
       d="m 95.06,94.93 c 0.41,-0.05 0.76,-0.43 1.1,-0.67 0.52,-0.35 1.04,-0.55 1.58,-0.84 1.06,-0.57 2.07,-1.11 3.18,-1.6 1.6,-0.71 3.02,-1.73 4.61,-2.45 1.59,-0.72 3.21,-1.61 4.81,-2.42 1.06,-0.54 1.78,-1.35 2.79,-1.94 1.54,-0.9 3.35,-1.47 5,-2.15 1.77,-0.73 3.65,-1.11 5.4,-1.87 1.14,-0.49 2.09,-0.89 3.32,-1.08 2.94,-0.46 6.01,-0.67 8.99,-0.67"
       id="path10"
       style="stroke-width:0.5;stroke-dasharray:none" />
    <path
       class="st6"
       d="m 102.17,102.44 c 1.26,-1.09 3.13,-1.74 4.56,-2.61 1.52,-0.94 3.14,-1.62 4.65,-2.61 1.39,-0.91 2.86,-1.69 4.22,-2.63 2.03,-1.39 4.31,-2.51 6.56,-3.45 2.66,-1.12 5.68,-1.58 8.51,-2.18 2.27,-0.48 4.98,-1.79 7.32,-1.54"
       id="path11"
       style="stroke-width:0.5;stroke-dasharray:none" />
    <path
       class="st6"
       d="m 108.34,112.37 c 1.72,-0.7 3.25,-1.97 4.83,-2.95 1.67,-1.04 3.42,-1.92 5.1,-2.95 1.53,-0.94 2.96,-2 4.53,-2.92 1.39,-0.81 2.81,-1.57 4.2,-2.38 1.92,-1.12 3.88,-1.66 5.97,-2.29 1.65,-0.49 3.23,-0.91 4.93,-1.16 0.59,-0.09 2.58,-0.91 2.92,-0.51"
       id="path12"
       style="stroke-width:0.5;stroke-dasharray:none" />
    <path
       class="st6"
       d="m 144.3,108.27 c 0,0 -1.85,0.43 -4.34,1.39 -0.99,0.38 -4.49,1.1 -5.38,1.63 -0.71,0.42 -1.91,1.65 -2.66,2.06 -0.97,0.53 -2.19,1.54 -3.15,2.07 -1.65,0.91 -2.53,1.61 -4.19,2.49 -1.83,0.96 -3.54,1.38 -5.24,2.58 -1,0.7 -2.5,4.03 -3.25,4.98 -1.56,1.98 -2.54,4.06 -4.17,5.98 -1.45,1.71 -2.11,2.71 -3.31,3.8 -0.54,0.49 -1.62,1.62 -2.75,2.76"
       id="path13"
       style="stroke-width:0.5;stroke-dasharray:none" />
    <path
       class="st6"
       d="m 104.59,137.27 c 1.3,0.38 2.4,1.37 3.79,1.65 1.75,0.34 3.77,0.21 5.54,-0.01 1.57,-0.2 3.18,-0.19 4.76,-0.44 1.18,-0.18 2.35,-0.4 3.53,-0.6 1.29,-0.22 2.59,-0.23 3.86,-0.53 2.89,-0.68 5.83,-1.22 8.73,-1.87 3.05,-0.69 6.02,-1.75 9.09,-2.4 2.39,-0.51 5.02,-0.83 7.46,-0.54"
       id="path14"
       style="stroke-width:0.5;stroke-dasharray:none" />
    <path
       class="st6"
       d="m 49.84,163.22 c 1.54,-0.14 3.28,0.17 4.83,0.3 2.43,0.21 4.86,0.42 7.28,0.67 5.82,0.62 11.47,-0.45 17.24,-1.08 4.37,-0.47 8.71,-1.31 13.05,-2.01 3.32,-0.54 6.8,-1.02 10.03,-1.91 3.8,-1.05 7.81,-1.76 11.71,-2.39 1.53,-0.25 3.07,-0.4 4.59,-0.73 1.52,-0.33 2.79,-0.97 4.23,-1.45 5.82,-1.95 11.25,-4.77 17.04,-6.84 1.64,-0.59 3.25,-1.26 4.86,-1.9 1.49,-0.59 2.57,-1.31 3.89,-2.19 1.16,-0.77 2.2,-1.77 3.39,-2.49 0.5,-0.3 1.38,-0.48 1.71,-0.8"
       id="path15"
       style="stroke-width:0.5;stroke-dasharray:none" />
    <path
       class="st6"
       d="m 152.34,136.25 c -1.23,0 -3.08,0.31 -3.34,1.75 -0.18,1 0.49,1.87 0.88,2.71 0.19,0.41 0.36,1.15 0.59,1.32"
       id="path16"
       style="stroke-width:0.5;stroke-dasharray:none" />
    <g
       id="g18">
      <line
         class="st1"
         x1="179.84"
         y1="139.14"
         x2="179.25999"
         y2="137.23"
         id="line16" />
      <line
         class="st5"
         x1="178.06"
         y1="133.28"
         x2="154.69"
         y2="56.369999"
         id="line17" />
      <line
         class="st1"
         x1="154.09"
         y1="54.400002"
         x2="153.50999"
         y2="52.490002"
         id="line18" />
    </g>
    <g
       id="g21">
      <line
         class="st1"
         x1="204.41"
         y1="129.78999"
         x2="203.81"
         y2="127.88"
         id="line19" />
      <line
         class="st2"
         x1="202.60001"
         y1="124.02"
         x2="178.97"
         y2="48.630001"
         id="line20" />
      <line
         class="st1"
         x1="178.37"
         y1="46.700001"
         x2="177.77"
         y2="44.790001"
         id="line21" />
    </g>
    <line
       class="st0"
       x1="144.02"
       y1="84.849998"
       x2="202.44"
       y2="67.760002"
       id="line22" />
    <line
       class="st0"
       x1="153.05"
       y1="115.91"
       x2="211.98"
       y2="98.160004"
       id="line23" />
    <path
       class="st3"
       d="m 236.01,125.06 c -1.61,-0.33 -5.67,-1.47 -6.38,-1.75 -1.19,-0.47 -2.37,-0.85 -3.55,-1.37 -2.23,-0.99 -5.06,-0.92 -7.12,0.52 -0.52,0.36 -0.81,0.78 -1.3,1.17 -1.03,0.83 -2.29,1.35 -3.34,2.18 -1.6,1.27 -1.23,0.72 -2.98,1.77 -1.99,1.2 -6.52,2.82 -8.8,3.22 -1.84,0.32 -3.73,0.36 -5.52,1.1 -1.16,0.48 -2.79,2.24 -2.73,3.55 0.12,2.53 3.12,4.24 5.2,5.17 3.28,1.46 7.63,1.29 11.14,0.96 3.51,-0.33 4.86,-1 8.05,-2.59 0.84,-0.41 1.59,-0.56 2.5,-0.38 1.16,0.23 2.08,1.57 3.08,2.19 1.84,1.14 3.91,1.8 5.74,2.95 1.24,0.77 2.62,1.58 4.05,1.86"
       id="path23" />
    <path
       class="st3"
       d="m 162.07,145.16 c 0,0 14.84,-4.48 32.23,-9.7"
       id="path24" />
  </g>
  <g
     id="g44"
     transform="translate(-59.053615,87.460182)">
    <text
       xml:space="preserve"
       style="font-size:17.3333px;line-height:1.5;font-family:sans-serif;-inkscape-font-specification:sans-serif;text-align:center;writing-mode:lr-tb;direction:ltr;text-anchor:middle;fill:#13204b"
       x="171.78636"
       y="98.453888"
       id="text29"><tspan
         sodipodi:role="line"
         x="171.78636"
         y="98.453888"
         id="tspan38">포커스를 유지하고 병변을</tspan><tspan
         sodipodi:role="line"
         x="171.78636"
         y="124.71272"
         id="tspan40"><tspan
   style="font-style:normal;font-variant:normal;font-weight:bold;font-stretch:normal;font-size:17.3333px;font-family:sans-serif;-inkscape-font-specification:'sans-serif, ';font-variant-ligatures:normal;font-variant-caps:normal;font-variant-numeric:normal;font-variant-east-asian:normal;text-align:center;text-anchor:middle"
   id="tspan41">사진 중앙에</tspan> 위치 시키세요</tspan></text>
  </g>
</svg>
