<?xml version="1.0" encoding="UTF-8" standalone="no"?>
<svg
   version="1.1"
   viewBox="0 0 225.00001 215"
   id="svg47"
   sodipodi:docname="guide4_2.svg"
   width="225"
   height="215"
   inkscape:version="1.4 (86a8ad7, 2024-10-11)"
   xmlns:inkscape="http://www.inkscape.org/namespaces/inkscape"
   xmlns:sodipodi="http://sodipodi.sourceforge.net/DTD/sodipodi-0.dtd"
   xmlns="http://www.w3.org/2000/svg"
   xmlns:svg="http://www.w3.org/2000/svg">
  <sodipodi:namedview
     id="namedview47"
     pagecolor="#ffffff"
     bordercolor="#000000"
     borderopacity="0.25"
     inkscape:showpageshadow="2"
     inkscape:pageopacity="0.0"
     inkscape:pagecheckerboard="0"
     inkscape:deskcolor="#d1d1d1"
     inkscape:zoom="3.0423525"
     inkscape:cx="79.708054"
     inkscape:cy="104.03134"
     inkscape:window-width="1920"
     inkscape:window-height="1057"
     inkscape:window-x="-8"
     inkscape:window-y="-8"
     inkscape:window-maximized="1"
     inkscape:current-layer="g53" />
  <!-- Generator: Adobe Illustrator 29.0.0, SVG Export Plug-In . SVG Version: 2.1.0 Build 186)  -->
  <defs
     id="defs1">
    <style
       id="style1">
      .st0 {
        fill: #231815;
      }

      .st1 {
        fill: #ef8580;
      }

      .st2 {
        fill: none;
        stroke: #231815;
        stroke-miterlimit: 10;
      }

      .st3 {
        fill: #d4d4d4;
      }
    </style>
  </defs>
  <text
     xml:space="preserve"
     style="font-size:17.3333px;line-height:1.5;font-family:sans-serif;-inkscape-font-specification:sans-serif;text-align:center;writing-mode:lr-tb;direction:ltr;text-anchor:middle;fill:#13204b"
     x="111.64942"
     y="182.02003"
     id="text32"><tspan
       sodipodi:role="line"
       x="111.64942"
       y="182.02003"
       id="tspan33">피부 <tspan
   style="font-style:normal;font-variant:normal;font-weight:bold;font-stretch:normal;font-family:sans-serif;-inkscape-font-specification:'sans-serif Bold'"
   id="tspan47">외의</tspan> <tspan
   style="font-weight:bold"
   id="tspan35">요소</tspan>는 나타나지 </tspan><tspan
       sodipodi:role="line"
       x="113.90073"
       y="208.27887"
       id="tspan34">않게 하세요(액세서리, 옷 등) </tspan></text>
  <g
     id="g53"
     transform="matrix(1.2099356,0,0,1.169614,-22.519587,-36.416669)">
    <g
       id="_레이어_3"
       data-name="레이어_3"
       transform="translate(-12.809945,-6.7119462)">
      <g
         id="g21">
        <path
           class="st2"
           d="m 91.52,73.05 c 0.33,-0.61 0.83,-0.65 1.38,-0.95 0.75,-0.41 1.28,-1.05 2.07,-1.43 2.08,-1 4.24,-1.53 6.12,-2.9 3.87,-2.83 8.27,-4.4 12.54,-6.42 2.51,-1.19 5,-2.64 7.59,-3.72 2.06,-0.85 3.22,-0.95 5.26,0.04 4.78,2.34 4.74,8 6.8,12.26 1.38,2.85 2.3,6.04 3.31,9.03 0.6,1.76 1.61,3.33 2.43,4.98 0.95,1.92 1.75,3.89 2.89,5.73 2.07,3.33 4.31,6.51 6.02,10.05 1.68,3.48 4.08,6.75 6.66,9.6 1.34,1.48 2.93,3.7 1.88,5.68 -0.56,1.04 -1.49,2.53 -2.41,3.29 -1.12,0.92 -2.76,1.39 -4.05,2.08 -2.18,1.18 -4.13,2.71 -6.17,4.23 -1.25,0.93 -2.62,1.54 -3.95,2.35 -1.57,0.96 -3,2.01 -4.66,2.81 -3.16,1.53 -6.14,2.6 -8.86,4.92 -3.29,2.82 -5.79,6.71 -9.54,8.74 -12.54,6.79 -16.67,13.52 -17.38,13.66"
           id="path1"
           style="opacity:1;stroke-width:0.756554;stroke-dasharray:none"
           sodipodi:nodetypes="cccccccccccccccccccccc" />
        <path
           class="st2"
           d="m 108.28,68.39 c 3,-1.49 5.97,-3.09 8.99,-4.55 1.24,-0.6 2.49,-1 3.66,-1.74 1.17,-0.74 2.14,-1.63 3.36,-2.24 1.53,-0.76 3.84,-1.39 4.94,0.25"
           id="path2"
           style="stroke-width:0.588431;stroke-dasharray:none" />
        <path
           class="st2"
           d="m 110.76,73.36 c 0.95,0.38 3.03,-1.15 3.87,-1.57 1.65,-0.82 3.24,-1.73 4.9,-2.53 2.3,-1.1 4.39,-2.5 6.63,-3.7 1.59,-0.86 4.24,-1.86 5.55,-0.15"
           id="path3"
           style="stroke-width:0.588431;stroke-dasharray:none" />
        <path
           class="st2"
           d="m 113.08,79.33 c 2.53,-1.52 5.37,-2.66 7.95,-4.12 2.58,-1.46 5.42,-2.61 8.11,-3.98 1.54,-0.79 3.57,-1.81 4.73,-0.02"
           id="path4"
           style="stroke-width:0.588431;stroke-dasharray:none" />
        <path
           class="st2"
           d="m 136.44,78.33 c -1.21,-1.94 -2.49,-1.54 -4.63,-0.42 -3.05,1.59 -6.07,3.27 -9.05,4.98 -1.68,0.97 -3.67,2.7 -5.62,3.06"
           id="path5"
           style="stroke-width:0.588431;stroke-dasharray:none" />
        <path
           class="st2"
           d="m 139.5,85.21 c -0.45,-1.69 -2.93,-1.4 -4.16,-0.77 -2.63,1.35 -5.08,3.03 -7.68,4.42 -1.56,0.83 -3.15,1.61 -4.71,2.44 -0.58,0.31 -1.18,0.86 -1.83,0.95"
           id="path6"
           style="stroke-width:0.588431;stroke-dasharray:none" />
        <path
           class="st2"
           d="m 124.26,98.38 c 0.81,-0.03 1.62,-0.69 2.31,-1.07 1.29,-0.71 2.55,-1.5 3.87,-2.16 1.93,-0.96 3.95,-1.6 5.9,-2.48 1.8,-0.81 3.53,-2.44 5.31,-3.07"
           id="path7"
           style="stroke-width:0.588431;stroke-dasharray:none" />
        <path
           class="st2"
           d="m 127.41,103.84 c 4.72,-1.69 9.42,-4.3 13.77,-6.79 0.88,-0.5 1.88,-1.06 2.65,-1.74 0.3,-0.27 0.73,-0.87 0.89,-0.91"
           id="path8"
           style="stroke-width:0.588431;stroke-dasharray:none" />
        <path
           class="st2"
           d="m 130.81,109.56 c 2.66,-0.68 5.25,-2.4 7.62,-3.73 2.53,-1.43 5.17,-2.66 7.63,-4.21 1.05,-0.66 1.54,-1.04 1.72,-2.23 -0.07,0.06 -0.12,0.14 -0.16,0.23"
           id="path9"
           style="display:inline;opacity:1;stroke-width:0.588431;stroke-dasharray:none" />
        <path
           class="st2"
           d="m 134.29,115.27 c 1.91,-1.27 4.43,-1.87 6.45,-3.02 2.32,-1.32 4.66,-2.62 6.95,-3.96 0.77,-0.45 3.71,-1.62 3.16,-3.04"
           id="path10"
           style="stroke-width:0.588431;stroke-dasharray:none" />
        <path
           class="st2"
           d="m 136.44,120.24 c 5.32,-1.97 11.04,-4.1 15.74,-7.37 1.65,-1.15 1.68,-2 1.82,-3.81"
           id="path11"
           style="stroke-width:0.588431;stroke-dasharray:none" />
        <path
           class="st2"
           d="m 129.94,59.73 c 5.11,-3.64 11.43,-5.94 17.3,-8.07 2.61,-0.95 5.14,-1.09 7.89,-1.36 2.75,-0.27 5.71,-0.87 8.51,-0.57 2.59,0.27 4.43,1.44 6.48,2.75"
           id="path12"
           style="stroke-width:0.420308;stroke-dasharray:none" />
        <path
           class="st2"
           d="m 186.41,59.05 c -1.89,-0.75 -4.22,-0.22 -6.28,0.02 -5.45,0.63 -11.09,1.17 -16.05,3.61 -4.05,2 -8.22,3.61 -12.31,5.48 -1.5,0.68 -2.89,2.16 -4.65,2.05"
           id="path13"
           style="stroke-width:0.420308;stroke-dasharray:none" />
        <path
           class="st2"
           d="m 140.34,62.26 c 0.82,0.27 1.79,-0.18 2.54,-0.53 2.21,-1.02 4.41,-1.8 6.66,-2.7 3.82,-1.53 7.52,-3.22 11.45,-4.44 3.07,-0.95 5.71,-1.7 8.91,-2 2.58,-0.24 5.17,-0.19 7.76,-0.19 1.45,0 2.75,-0.18 4.01,0.59 1.26,0.77 2.59,2.07 3.53,3.31 0.51,0.68 0.62,1.6 1.07,2.19"
           id="path14"
           style="stroke-width:0.420308;stroke-dasharray:none" />
        <path
           class="st2"
           d="m 147.12,97.86 c 0.06,-0.64 0.89,-1.98 1.23,-2.82 0.74,-1.82 1.61,-3.57 2.76,-5.17 1.44,-2.02 2.66,-4.17 4.09,-6.18 2.2,-3.08 6.73,-4.34 9.73,-6.36 1.45,-0.97 2.91,-1.93 4.37,-2.88 1.06,-0.69 1.99,-1.64 3.07,-2.26 1.59,-0.91 3.71,-1.08 5.47,-1.5 1.92,-0.46 3.75,-1.26 5.59,-1.86 0.84,-0.28 2.07,-0.31 2.84,-0.27"
           id="path15"
           style="stroke-width:0.420308;stroke-dasharray:none" />
        <path
           class="st2"
           d="m 148.62,100.46 c 2.04,-0.42 4.27,-1.3 6.14,-2.27 2.07,-1.08 4.3,-1.98 6.12,-3.45 3.57,-2.89 7.5,-5.51 11.89,-7 2.47,-0.83 6.42,-2.13 9,-1.26 1.18,0.4 1.38,1.18 1.76,2.21 0.06,0.15 0,-0.53 0,-0.36 0.09,1.33 -0.47,2.48 -1.37,3.43 -1.53,1.61 -3.72,3.01 -5.53,4.31 -2.61,1.88 -4.99,4 -7.29,6.24 -2.3,2.24 -5.03,4.02 -7.85,5.68 -1.83,1.08 -3.72,2.68 -5.34,3.76"
           id="path16"
           style="stroke-width:0.420308;stroke-dasharray:none" />
        <path
           class="st0"
           d="m 184.04,88.51 c -1.59,-0.41 -4.36,0.62 -5.85,1.21 -0.95,0.38 -3.31,1.03 -3.46,2.21 -0.14,1.15 1.96,3.62 3.06,3.82 1.02,0.18 1.94,-0.71 2.7,-1.28 1.13,-0.85 2.49,-1.82 3.34,-2.95 0.59,-0.78 1.63,-2.92 -0.06,-3.15"
           id="path17"
           style="opacity:1" />
        <path
           class="st1"
           d="m 142.58,76.42 c -1.31,-1.18 -4.66,3.62 -1.82,3.59 0.99,-0.01 2.02,-0.66 2.38,-1.81 0.2,-0.64 0.2,-1.77 -0.62,-1.71"
           id="path18"
           style="opacity:1" />
        <path
           class="st2"
           d="m 149.71,60.84 c 0,0.11 2.23,3.59 2.89,6.93"
           id="path19"
           style="opacity:1" />
        <path
           class="st2"
           d="m 152.85,59.47 c 0,0.11 2.23,3.59 2.89,6.93"
           id="path20"
           style="opacity:1" />
        <circle
           class="st0"
           cx="150.41"
           cy="57.860001"
           r="3.5"
           id="circle20"
           style="opacity:1" />
        <circle
           class="st3"
           cx="148.97"
           cy="56.77"
           r="0.80000001"
           id="circle21" />
      </g>
    </g>
    <g
       id="g54" />
    <ellipse
       style="display:none;opacity:1;fill:none;stroke:#000000;stroke-width:0.420308;stroke-dasharray:none;stroke-opacity:1"
       id="path54"
       cx="58.880917"
       cy="46.138691"
       rx="10.373062"
       ry="10.233876" />
    <g
       id="g56"
       transform="translate(1.6529805)">
      <path
         style="display:inline;opacity:1;fill:none;stroke:#000000;stroke-width:0.588431;stroke-dasharray:none;stroke-opacity:1"
         d="M 54.697639,55.138332 65.992796,43.739041"
         id="path55" />
      <path
         style="display:inline;opacity:1;fill:none;stroke:#000000;stroke-width:0.588431;stroke-dasharray:none;stroke-opacity:1"
         d="M 54.831806,43.761516 66.123462,55.157014"
         id="path56" />
    </g>
  </g>
</svg>
