<?xml version="1.0" encoding="UTF-8" standalone="no"?>
<svg
   id="_레이어_4"
   data-name="레이어_4"
   version="1.1"
   viewBox="0 0 225.00001 215"
   sodipodi:docname="guide1.svg"
   width="225"
   height="215"
   inkscape:version="1.4 (86a8ad7, 2024-10-11)"
   xmlns:inkscape="http://www.inkscape.org/namespaces/inkscape"
   xmlns:sodipodi="http://sodipodi.sourceforge.net/DTD/sodipodi-0.dtd"
   xmlns="http://www.w3.org/2000/svg"
   xmlns:svg="http://www.w3.org/2000/svg">
  <sodipodi:namedview
     id="namedview42"
     pagecolor="#ffffff"
     bordercolor="#000000"
     borderopacity="0.25"
     inkscape:showpageshadow="2"
     inkscape:pageopacity="0.0"
     inkscape:pagecheckerboard="0"
     inkscape:deskcolor="#d1d1d1"
     showguides="true"
     inkscape:zoom="2.8284271"
     inkscape:cx="64.523494"
     inkscape:cy="103.76792"
     inkscape:window-width="1920"
     inkscape:window-height="1057"
     inkscape:window-x="-8"
     inkscape:window-y="-8"
     inkscape:window-maximized="1"
     inkscape:current-layer="g22" />
  <!-- Generator: Adobe Illustrator 29.0.0, SVG Export Plug-In . SVG Version: 2.1.0 Build 186)  -->
  <defs
     id="defs1">
    <marker
       style="overflow:visible"
       id="ArrowWide"
       refX="0"
       refY="0"
       orient="auto-start-reverse"
       inkscape:stockid="Wide arrow"
       markerWidth="1"
       markerHeight="1"
       viewBox="0 0 1 1"
       inkscape:isstock="true"
       inkscape:collect="always"
       preserveAspectRatio="xMidYMid">
      <path
         style="fill:none;stroke:context-stroke;stroke-width:1;stroke-linecap:butt"
         d="M 3,-3 0,0 3,3"
         transform="rotate(180,0.125,0)"
         sodipodi:nodetypes="ccc"
         id="path44" />
    </marker>
    <marker
       style="overflow:visible"
       id="ConcaveTriangle"
       refX="0"
       refY="0"
       orient="auto-start-reverse"
       inkscape:stockid="Concave triangle arrow"
       markerWidth="1"
       markerHeight="1"
       viewBox="0 0 1 1"
       inkscape:isstock="true"
       inkscape:collect="always"
       preserveAspectRatio="xMidYMid">
      <path
         transform="scale(0.7)"
         d="M -2,-4 9,0 -2,4 c 2,-2.33 2,-5.66 0,-8 z"
         style="fill:context-stroke;fill-rule:evenodd;stroke:none"
         id="path43" />
    </marker>
    <style
       id="style1">
      .st0 {
        font-family: JejuGothic, JejuGothic;
        font-size: 8.33px;
      }

      .st0, .st1 {
        fill: #231815;
      }

      .st2, .st3, .st4, .st5 {
        fill: none;
      }

      .st2, .st3, .st5 {
        stroke-miterlimit: 10;
      }

      .st2, .st4 {
        stroke: #231815;
        stroke-width: .5px;
      }

      .st3 {
        stroke-dasharray: 3.96 3.96;
      }

      .st3, .st5 {
        stroke: #4dbaa0;
        stroke-width: 2px;
      }

      .st4 {
        stroke-linecap: round;
        stroke-linejoin: round;
      }

      .st6 {
        isolation: isolate;
      }

      .st7 {
        fill: #4dbaa0;
      }
    </style>
  </defs>
  <g
     id="g22"
     transform="translate(-6.6564882,-16.374369)">
    <line
       class="st2"
       x1="29.076527"
       y1="157.29694"
       x2="87.764679"
       y2="157.29694"
       id="line20"
       style="stroke-width:0.85;stroke-dasharray:none" />
    <g
       class="st6"
       id="g6"
       transform="translate(-36)">
      <g
         id="g3">
        <path
           class="st2"
           d="M 151.27,105.36 C 128.19,91.27 100.09,74.14 100.09,74.14 l 21.08,-39.58 c 0,0 40.93,24.98 64.48,39.35"
           id="path1" />
        <path
           class="st2"
           d="m 197.97,81.43 3.88,2.37 -10.64,19.99"
           id="path2" />
        <path
           class="st2"
           d="m 168.37,115.86 c -2.5,-1.52 -4.18,-2.68 -7.18,-4.51"
           id="path3" />
      </g>
      <path
         class="st2"
         d="m 165.23,116.58 -7.57,-4.62 m -9.54,-5.82 C 125.29,92.21 98.72,75.99 98.72,75.99 96.2,74.45 95.09,71.42 96.25,69.25 l 19.24,-36.13 c 1.16,-2.17 4.16,-2.69 6.68,-1.16 0,0 40.49,24.71 64.45,39.34 m 12.11,7.39 5.1,3.11 c 2.52,1.54 3.63,4.57 2.47,6.74 l -8.49,15.95 m 4.04,-20.69 -4.01,-2.45 M 185.78,73.99 121.18,34.56 100.1,74.14 m 91.16,29.54 c 5.29,-9.93 10.59,-19.89 10.59,-19.89"
         id="path4" />
      <path
         class="st4"
         d="m 116.34,32.05 -1.44,1.38 c -1,0.96 -1.83,2.07 -2.48,3.29 L 94.16,71.01 c -1.16,2.17 0.41,5.46 2.93,6.99 0,0 25.81,15.75 48.41,29.55"
         id="path5" />
      <path
         class="st2"
         d="m 154.06,112.77 c 2.61,1.6 5.25,3.24 7.6,4.67"
         id="path6" />
    </g>
    <ellipse
       class="st2"
       cx="-22.134588"
       cy="91.857513"
       rx="1.03"
       ry="1.24"
       transform="rotate(-68.91)"
       id="ellipse6" />
    <path
       class="st2"
       d="m 136.06,62.42 c 1.13,-0.46 2.81,-1.53 3.79,-2.27 1.21,-0.91 2.53,-1.61 3.76,-2.48 1.74,-1.22 3.16,-2.84 5,-3.95 0.94,-0.57 1.99,-0.93 2.93,-1.46 1.03,-0.59 1.99,-1.32 3.05,-1.86 5.11,-2.6 10.89,-3.49 16.06,-5.85 6.46,-2.95 13.47,-4.4 20.02,-7.16 2.18,-0.92 4.52,-1.49 6.56,-2.7 2.04,-1.21 3.96,-2.33 5.87,-3.63 1.65,-1.12 3.49,-1.99 5.23,-2.95 0.54,-0.3 2.19,-1.38 2.68,-1.13"
       id="path7" />
    <path
       class="st2"
       d="m 161.7,54.92 c -0.15,0.31 -0.01,0.78 -0.09,1.18 -0.1,0.5 -0.4,1.11 -0.63,1.57 -0.85,1.69 -1.98,3.47 -3.06,5.03 -2.19,3.17 -5.46,5.56 -7.39,8.88 -1.05,1.82 -1.2,3.98 -1.02,6.01 0.37,4 0.55,7.73 -0.02,11.76 -0.32,2.25 -1.67,4.73 1.37,5.69 2.53,0.8 5.41,-0.37 7.04,-2.39 2.15,-2.65 3.95,-6.18 4.13,-9.63 0.05,-1.03 -0.3,-2.6 0.21,-3.49 0.7,-1.23 2.35,-1.96 3.42,-2.8 1.78,-1.39 2.4,-3.48 4.33,-4.72 1.73,-1.11 3.28,-2.34 4.82,-3.69 1.67,-1.47 2.63,-3.44 3.63,-5.39 0.23,-0.44 0.3,-0.88 0.76,-1.08"
       id="path8" />
    <path
       class="st2"
       d="m 169.28,72.51 c 4.99,1.41 9.48,-4.66 13.32,-6.58"
       id="path9" />
    <path
       class="st2"
       d="m 172.19,72.82 c 1.65,0.52 3.49,1.72 5.22,1.94 2.58,0.33 5.06,0.61 7.65,0.34 2.59,-0.27 5.13,-0.86 7.64,-1.69 1.81,-0.6 3.42,-0.97 4.94,-2.17"
       id="path10" />
    <path
       class="st2"
       d="m 154.77,94.93 c 0.34,0.7 0.52,1.49 0.52,2.32 0,2.97 -2.41,5.38 -5.38,5.38 -2.97,0 -5.38,-2.41 -5.38,-5.38 0,-2.71 2.01,-4.96 4.62,-5.33"
       id="path11" />
    <path
       class="st2"
       d="m 214.29,117.85 c -1.54,-0.47 -3.39,0.19 -4.99,0.16 -1.93,-0.03 -3.84,-0.46 -5.77,-0.49 -2.54,-0.04 -4.94,-0.67 -7.39,-1.12 -5.57,-1.03 -10.88,-3.57 -16.23,-5.29 -6.14,-1.98 -11.87,-5.14 -18.08,-6.82 -3.97,-1.07 -8.19,-0.42 -12.38,-0.82 -5.31,-0.5 -10.51,-1.59 -15.89,-1.59 -3.62,0 -7.31,0.2 -10.83,0.8 -2.48,0.42 -4.35,1.26 -6.62,2.36 -1.57,0.76 -8.58,1.96 -7.68,5.33 0.47,1.77 2.93,2.84 4.44,3.04 1.94,0.26 3.4,-0.04 5.3,-0.62 1.67,-0.51 3.35,-0.8 5.05,-1.14 4.83,-0.94 10.47,0.55 15.39,1.38 1.49,0.25 2.93,0.5 4.32,0.9"
       id="path12" />
    <path
       class="st2"
       d="m 150.05,112.92 c -1.9,-0.06 -3.54,0.42 -5.34,0.8 -1.8,0.38 -3.54,0.67 -5.31,0.89 -1.13,0.15 -2.2,-0.02 -3.29,0.05 -0.56,0.03 -1.11,0.3 -1.64,0.51 -1.28,0.49 -2.52,0.84 -3.86,1.12 -2.24,0.46 -4.62,1.04 -6.8,1.66 -1.3,0.37 -4.14,1.27 -4.82,2.43 -0.75,1.27 -0.44,2.93 0.34,4.07 2.38,3.48 6.72,2.16 10.22,1.75 3.5,-0.41 7.31,-0.57 10.94,-1.17 1.97,-0.32 4.09,-0.6 6.09,-0.68 0.57,-0.02 2.56,0.26 2.81,-0.19"
       id="path13" />
    <path
       class="st2"
       d="m 130.1,126.48 c -0.88,0.1 -2.2,1.13 -2.91,1.65 -0.57,0.42 -1.32,0.97 -1.56,1.64 -0.48,1.4 -0.12,3.08 0.66,4.27 2.82,4.29 9.93,1.77 13.97,1.18 2.51,-0.36 5.03,-0.78 7.56,-1.02 1.16,-0.11 2.36,-0.21 3.52,-0.27 0.54,-0.03 1.11,0.16 1.52,-0.29"
       id="path14" />
    <path
       class="st2"
       d="m 133.2,136.65 c -2.43,1.09 -0.4,5.42 1.26,6.2 1.27,0.59 3.19,0.51 4.6,0.58 1.79,0.08 3.43,0.82 5.28,0.78 1.85,-0.04 3.79,-0.4 5.47,0.29 1.68,0.69 3.27,1.87 4.8,2.93 1.72,1.19 3.58,2 5.53,2.75 3.02,1.16 6.09,1.24 9.27,1.61 3.04,0.36 6,0.85 9.03,0.75 1.64,-0.05 3.27,-0.13 4.89,-0.44 1.62,-0.31 3.18,-0.87 4.8,-1.18 1.11,-0.21 2.16,-0.37 3.2,-0.84 3.58,-1.62 7.67,-0.97 11.57,-0.93 2.12,0.02 4.22,0.1 6.35,0.1"
       id="path15" />
    <path
       class="st2"
       d="m 109.68,110.84 c -0.54,-0.35 -0.86,-0.94 -0.6,-1.67 0.31,-0.88 1.82,-1.44 2.92,-1.82 -0.14,1.19 0.14,2.49 -0.08,3.63 -0.41,0.11 -0.79,0.22 -1.24,0.18 -0.36,-0.03 -0.71,-0.14 -0.99,-0.32 z"
       id="path16" />
    <g
       id="g18"
       transform="matrix(0.92166568,-0.35798777,0.38111596,0.7164994,-61.306447,57.213162)">
      <line
         class="st3"
         x1="100.60942"
         y1="89.803925"
         x2="61.499321"
         y2="153.66722"
         id="line17"
         style="stroke-width:1.32135;stroke-dasharray:2.61627, 2.61627;stroke-dashoffset:0" />
      <path
         d="m 46.368622,137.42176 -2.133074,-5.67448 2.70449,2.22141 3.276302,-1.23146 z"
         fill="#ff6767"
         id="path27"
         style="fill:#4dbaa0;fill-opacity:1"
         transform="matrix(0.8994849,0.44941363,-0.4535136,1.0967474,78.917767,-12.564689)" />
    </g>
    <g
       id="g45"
       transform="matrix(0.94657666,-0.11895986,0.11919826,0.9609525,-9.8118345,10.895437)">
      <g
         id="g19"
         transform="matrix(1.0147838,-0.15317241,0.18747771,0.7666496,-45.008185,34.372093)"
         style="stroke-width:0.391507;stroke-dasharray:none">
        <path
           class="st2"
           d="m 53.6,152.04 c -1.43,-12.15 -0.23,-23.12 5.71,-36.18"
           id="path18"
           style="stroke-width:0.391507;stroke-dasharray:none" />
        <polygon
           class="st1"
           points="52.46,151.43 54.62,151.16 54.04,155.33 "
           id="polygon19"
           style="stroke-width:0.148335;stroke-dasharray:none"
           transform="matrix(0.79490976,-0.00314537,-0.00290846,0.81007165,11.445305,29.397386)" />
      </g>
      <g
         id="g20"
         transform="matrix(0.63956289,-0.11703763,0.09834914,0.76109385,-12.129975,32.697819)">
        <path
           class="st2"
           d="M 65.962286,105.50188 C 73.269056,96.139604 84.310504,89.396687 96.139718,84.500832"
           id="path19" />
        <polygon
           class="st1"
           points="97.58,84.94 100.92,82.38 96.74,82.93 "
           id="polygon20"
           transform="matrix(0.95672069,-0.01683122,0.05166408,0.88524393,-1.7859834,12.123503)" />
      </g>
      <text
         class="st0"
         transform="matrix(1.1468508,0.13027794,-0.07353153,0.86360008,0,0)"
         id="text20"
         x="34.562683"
         y="123.09307"
         style="font-size:6.99667px;stroke-width:1.02117"><tspan
           x="34.562683"
           y="123.09307"
           id="tspan20"
           style="font-size:6.99667px;stroke-width:1.02117">10㎝</tspan></text>
    </g>
    <line
       class="st2"
       x1="89.110001"
       y1="36.959999"
       x2="68.580002"
       y2="76.870003"
       id="line21" />
    <path
       class="st2"
       d="m 149.65,80.91 c 0,0 -6.48,11.4 -11.91,20.95"
       id="path21" />
    <path
       class="st2"
       d="m 132.04,111.88 -1.58,2.79"
       id="path22" />
  </g>
  <text
     xml:space="preserve"
     style="font-size:17.3333px;line-height:1.5;text-align:center;text-anchor:middle;fill:#13204b;fill-opacity:1"
     x="112.03027"
     y="185.92101"
     id="text27"><tspan
       sodipodi:role="line"
       x="112.03027"
       y="185.92101"
       id="tspan30">피부 병변의 <tspan
   style="font-style:normal;font-variant:normal;font-weight:bold;font-stretch:normal;font-size:17.3333px;line-height:1.5;font-family:sans-serif;-inkscape-font-specification:sans-serif;text-align:center;text-anchor:middle"
   id="tspan31">10cm </tspan></tspan><tspan
       sodipodi:role="line"
       x="112.03027"
       y="212.17984"
       id="tspan32">이내에서 촬영해 주세요</tspan></text>
</svg>
