<?xml version="1.0" encoding="UTF-8" standalone="no"?>
<svg
   width="225"
   height="215"
   viewBox="0 0 225 215"
   fill="none"
   version="1.1"
   id="svg27"
   sodipodi:docname="slider-1-1d065c59-2.svg"
   inkscape:version="1.3.2 (091e20e, 2023-11-25, custom)"
   xmlns:inkscape="http://www.inkscape.org/namespaces/inkscape"
   xmlns:sodipodi="http://sodipodi.sourceforge.net/DTD/sodipodi-0.dtd"
   xmlns="http://www.w3.org/2000/svg"
   xmlns:svg="http://www.w3.org/2000/svg">
  <defs
     id="defs27" />
  <sodipodi:namedview
     id="namedview27"
     pagecolor="#ffffff"
     bordercolor="#000000"
     borderopacity="0.25"
     inkscape:showpageshadow="2"
     inkscape:pageopacity="0.0"
     inkscape:pagecheckerboard="0"
     inkscape:deskcolor="#d1d1d1"
     inkscape:zoom="2.6672726"
     inkscape:cx="47.989096"
     inkscape:cy="96.540565"
     inkscape:window-width="1920"
     inkscape:window-height="1046"
     inkscape:window-x="-11"
     inkscape:window-y="-11"
     inkscape:window-maximized="1"
     inkscape:current-layer="svg27" />
  <path
     d="m 100.5,50.5 -43,44"
     stroke="#ff6767"
     stroke-dasharray="2, 2"
     id="path2" />
  <path
     d="m 144.659,92.5978 c -0.18,0 -0.363,-0.02 -0.547,-0.0664 -0.348,-0.0868 -0.56,-0.4397 -0.472,-0.7879 0.087,-0.3483 0.437,-0.5613 0.787,-0.4729 0.646,0.1594 1.548,-0.4554 1.84,-0.7049 l 8.708,-8.9969 c 1.012,-1.629 -1.468,-3.8258 -1.493,-3.8474 -0.016,-0.0129 -0.03,-0.0266 -0.044,-0.0407 L 94.9125,17.40436 c -2.1328,-2.00713 -3.8362,-1.8307 -3.9072,-1.82239 -0.0299,0.0033 -0.0668,0.0046 -0.0971,0.0054 L 75.7587,15.30133 c -0.6639,0.18888 -1.0893,0.52348 -1.2992,1.02038 -0.5187,1.22628 0.3295,3.2338 0.7419,3.98643 L 111.531,59.8126 c 0.242,0.264 0.225,0.6753 -0.039,0.9182 -0.263,0.2433 -0.674,0.2262 -0.918,-0.0382 L 74.1931,21.13175 c -0.0328,-0.0357 -0.0618,-0.07514 -0.0859,-0.11748 -0.0714,-0.12495 -1.7366,-3.08271 -0.8457,-5.1961 0.381,-0.903726 1.1391,-1.508569 2.2532,-1.797494 0.0577,-0.01495 0.1145,-0.01952 0.1755,-0.02076 l 15.2035,0.286858 c 0.4012,-0.03445 2.503,-0.0934 4.93,2.191436 L 154.351,76.7554 c 0.331,0.2914 3.355,3.0603 1.675,5.5801 -0.021,0.0328 -0.046,0.0635 -0.073,0.0917 l -8.772,9.063 c -0.011,0.0116 -0.023,0.0229 -0.035,0.0336 -0.139,0.1233 -1.248,1.074 -2.487,1.074 z"
     fill="#848998"
     id="path3" />
  <path
     d="M121.98 58.843C121.814 58.843 121.648 58.7795 121.521 58.6529L117.782 54.9122C117.528 54.6586 117.528 54.2468 117.782 53.9931C118.036 53.7391 118.448 53.7391 118.701 53.9931L122.44 57.7334C122.693 57.987 122.693 58.3989 122.44 58.6529C122.313 58.7795 122.146 58.843 121.98 58.843Z"
     fill="#848998"
     id="path4" />
  <path
     d="M135.067 72.941C134.893 72.941 134.72 72.8717 134.592 72.7343L128.696 66.4041C128.451 66.1417 128.466 65.7303 128.728 65.4858C128.991 65.2417 129.402 65.255 129.647 65.5182L135.542 71.848C135.787 72.1108 135.773 72.5218 135.51 72.7667C135.385 72.8833 135.226 72.941 135.067 72.941Z"
     fill="#848998"
     id="path5" />
  <path
     d="m 126.151,69.4182 c -0.103,0 -0.205,-0.0407 -0.281,-0.1208 -1.862,-1.9506 -45.6245,-47.8077 -48.1926,-50.94811 -1.1652,-1.4247 -1.5772,-2.47331 -1.2594,-3.206 0.2341,-0.540488 0.8042,-0.718577 1.1038,-0.738505 0.2187,-0.01453 0.4004,0.148201 0.4149,0.363232 0.0141,0.213375 -0.1464,0.398533 -0.3593,0.414723 -0.0104,8.3e-4 -0.3448,0.03529 -0.4461,0.27481 -0.0825,0.19677 -0.1369,0.82527 1.1494,2.39817 2.5495,3.11717 47.6963,50.42548 48.1523,50.90288 0.149,0.1561 0.144,0.4027 -0.012,0.5517 -0.076,0.0718 -0.173,0.1079 -0.27,0.1079 z"
     fill="#848998"
     id="path6" />
  <path
     d="M139.38 69.5162C139.278 69.5162 139.176 69.476 139.099 69.3963L131.766 61.7717C131.616 61.6164 131.621 61.3698 131.776 61.2204C131.931 61.0709 132.177 61.0759 132.327 61.2312L139.661 68.8558C139.81 69.011 139.805 69.258 139.65 69.407C139.575 69.4801 139.477 69.5162 139.38 69.5162Z"
     fill="#848998"
     id="path7" />
  <path
     d="M146.913 75.6003C145.919 75.6003 145.437 75.0212 145.404 74.9801C145.269 74.8116 145.296 74.5667 145.464 74.4318C145.632 74.2981 145.874 74.3251 146.009 74.4882C146.057 74.5434 147.002 75.5655 149.349 73.7111C149.518 73.5774 149.764 73.6061 149.897 73.7755C150.03 73.9448 150.001 74.1897 149.832 74.3234C148.586 75.3081 147.62 75.6003 146.913 75.6003Z"
     fill="#848998"
     id="path8" />
  <path
     d="m 114.072,83.6461 c -0.09,0 -0.18,-0.0232 -0.263,-0.0718 -0.212,-0.1241 -5.182,-3.0819 -5.751,-6.8441 -0.528,-3.4846 -0.545,-8.5939 -0.546,-9.0128 -0.021,-0.2868 -0.172,-2.832 0.951,-4.5165 1.453,-2.1799 3.64,-5.1065 5.851,-5.3502 0.763,-0.0851 1.454,0.1582 2.047,0.7207 0.373,0.318 4.927,4.4344 1.257,11.6131 l 0.09,1.7032 2.439,2.3393 c 0.208,0.1984 0.215,0.5276 0.017,0.7347 -0.2,0.2076 -0.529,0.2147 -0.735,0.0158 l -2.589,-2.4812 c -0.096,-0.0917 -0.153,-0.2163 -0.16,-0.3483 l -0.107,-2.0499 c -0.005,-0.0929 0.015,-0.1855 0.058,-0.2681 3.52,-6.7404 -0.759,-10.3183 -0.944,-10.4674 -0.011,-0.0087 -0.022,-0.0191 -0.033,-0.029 -0.368,-0.3525 -0.767,-0.4986 -1.226,-0.4492 -1.317,0.1453 -3.033,1.7917 -5.101,4.8935 -0.966,1.4508 -0.779,3.8523 -0.777,3.8764 0.001,0.0141 0.002,0.0287 0.002,0.0432 0,0.0535 0.007,5.3966 0.534,8.877 0.495,3.2712 5.202,6.0753 5.25,6.1031 0.246,0.1457 0.329,0.4641 0.184,0.712 -0.097,0.1644 -0.27,0.2565 -0.448,0.2565 z"
     fill="#848998"
     id="path9" />
  <path
     d="m 127.984,97.2406 c -0.074,0 -0.15,-0.0162 -0.223,-0.0502 l -10.676,-5.0712 c -0.023,-0.0104 -0.044,-0.0224 -0.065,-0.0365 -0.155,-0.103 -3.795,-2.5622 -3.246,-6.0176 0.043,-0.2649 0.082,-0.5252 0.121,-0.7813 0.3,-1.9602 0.559,-3.6531 1.546,-5.627 1.079,-2.1603 5.224,-6.2431 5.583,-6.5951 0.409,-0.4873 5.751,-6.7204 9.255,-4.8523 0.021,0.0116 0.042,0.0253 0.062,0.0398 0.098,0.0718 2.392,1.7921 2.388,4.8208 -0.004,2.8694 -2.051,5.8383 -6.084,8.8276 -0.116,1.054 -0.616,4.7752 -2.01,5.8483 -0.228,0.1752 -0.554,0.132 -0.729,-0.0951 -0.175,-0.2274 -0.133,-0.5542 0.095,-0.7293 0.89,-0.6854 1.474,-3.6477 1.633,-5.3543 0.013,-0.1482 0.09,-0.2835 0.211,-0.3715 3.874,-2.8299 5.841,-5.5644 5.844,-8.1265 0.004,-2.3442 -1.698,-3.7727 -1.936,-3.9607 -2.351,-1.1906 -6.53,2.9395 -7.948,4.6398 -0.011,0.0137 -0.023,0.027 -0.036,0.0395 -0.044,0.0427 -4.371,4.2795 -5.399,6.3343 -0.913,1.8274 -1.16,3.4456 -1.447,5.319 -0.039,0.2578 -0.079,0.5202 -0.122,0.7875 -0.423,2.6634 2.452,4.7494 2.766,4.9686 l 10.64,5.0533 c 0.259,0.1233 0.37,0.4334 0.247,0.6929 -0.089,0.1872 -0.276,0.2972 -0.47,0.2972 z"
     fill="#848998"
     id="path10" />
  <path
     d="M128.525 71.6965C128.5 71.6965 128.476 71.6949 128.451 71.6911L125.431 71.2594C125.146 71.2187 124.949 70.9551 124.99 70.6712C125.031 70.3864 125.299 70.1888 125.578 70.2295L128.598 70.6612C128.882 70.7019 129.079 70.9655 129.039 71.2494C129.001 71.5089 128.779 71.6965 128.525 71.6965Z"
     fill="#848998"
     id="path11" />
  <path
     d="m 158.319,109.2563 c -8.903,5e-4 -20.166,-4.7012 -20.722,-4.9358 l -6.921,-3.2454 c -0.026,-0.0116 -0.051,-0.0257 -0.073,-0.0415 -1.448,-0.9926 -3.656,-3.7245 -1.658,-6.96 2.319,-3.7569 6.275,-8.4502 8.14,-9.6578 0.213,-0.1378 0.46,-0.306 0.734,-0.4911 2.236,-1.5152 5.977,-4.0537 7.994,-2.1475 0.038,0.0316 1.344,1.1819 1.35,3.4148 0.007,2.7756 -1.941,5.879 -5.788,9.2233 -0.216,0.1893 -0.545,0.1656 -0.733,-0.0515 -0.188,-0.2163 -0.165,-0.5447 0.051,-0.7331 4.474,-3.8893 5.422,-6.7163 5.43,-8.4025 0.008,-1.7602 -0.967,-2.6448 -1.009,-2.6813 -1.425,-1.3442 -4.864,0.9863 -6.712,2.2388 -0.28,0.1897 -0.534,0.3615 -0.752,0.5031 -1.764,1.142 -5.565,5.6772 -7.821,9.3315 -1.9,3.0769 0.967,5.2733 1.329,5.5328 l 6.862,3.2176 c 0.138,0.0573 15.776,6.5839 24.456,4.3904 0.281,-0.0702 0.561,0.0979 0.632,0.3761 0.07,0.2785 -0.099,0.5616 -0.376,0.6318 -1.351,0.3416 -2.846,0.4873 -4.413,0.4873 z"
     fill="#848998"
     id="path12" />
  <path
     d="m 169.865,89.4003 c -0.239,0 -0.455,-0.1665 -0.508,-0.4102 -2.478,-11.4673 -13.552,-22.6475 -13.664,-22.7591 -1.622,-1.6232 -6.297,-4.632 -8.856,-5.4846 -2.485,-0.8295 -3.909,-2.8038 -8.626,-9.3478 -0.522,-0.7244 -1.086,-1.5061 -1.696,-2.3492 -5.684,-7.8525 -9.04,-5.7901 -9.073,-5.7681 -0.014,0.0087 -0.028,0.017 -0.043,0.0249 -2.364,1.2454 -2.035,3.1653 -2.031,3.1844 0.052,0.2823 -0.133,0.5538 -0.416,0.6069 -0.285,0.0527 -0.553,-0.1337 -0.606,-0.4155 -0.021,-0.1092 -0.465,-2.6879 2.553,-4.2878 0.393,-0.2367 4.39,-2.3368 10.458,6.045 0.61,0.8439 1.174,1.6264 1.697,2.3512 4.566,6.3344 5.944,8.2465 8.112,8.9692 2.726,0.9087 7.529,4.0022 9.262,5.7358 0.114,0.1137 11.403,11.5118 13.946,23.2751 0.06,0.2807 -0.118,0.5575 -0.398,0.6182 -0.037,0.0078 -0.074,0.0116 -0.111,0.0116 z"
     fill="#848998"
     id="path13" />
  <path
     d="m 166.847,114 c -0.091,0 -0.182,-0.0232 -0.265,-0.0731 -3.841,-2.2777 -8.225,-4.6493 -8.915,-4.6751 -0.28,0.0212 -0.528,-0.198 -0.548,-0.4844 -0.019,-0.2869 0.204,-0.5347 0.49,-0.5538 1.111,-0.0905 7.018,3.3451 9.503,4.8192 0.247,0.1465 0.328,0.4653 0.182,0.7123 -0.097,0.1636 -0.27,0.2549 -0.447,0.2549 z"
     fill="#848998"
     id="path14" />
  <path
     d="m 176.48,92.5651 c -0.108,0 -0.218,-0.0341 -0.312,-0.1042 l -6.902,-5.1787 c -0.229,-0.1723 -0.276,-0.4982 -0.103,-0.7281 0.172,-0.2296 0.498,-0.2757 0.727,-0.1038 l 6.902,5.1791 c 0.23,0.1722 0.276,0.4981 0.104,0.7277 -0.102,0.1366 -0.258,0.208 -0.416,0.208 z"
     fill="#848998"
     id="path15" />
  <path
     d="M142.117 74.176C141.075 74.176 139.923 73.1868 139.133 72.154C138.931 71.8895 138.854 71.5852 138.903 71.249C139.063 70.1493 140.536 69.0667 140.598 69.021C140.655 68.9783 140.737 68.9911 140.78 69.0497C140.822 69.1078 140.809 69.1887 140.751 69.2311C140.737 69.2414 139.304 70.2954 139.16 71.2868C139.121 71.5549 139.18 71.7866 139.34 71.9958C140.102 72.9938 141.696 74.4724 142.83 73.6945L143.186 73.4521C144.315 72.6874 146.418 71.2643 146.298 70.3656C146.288 70.295 146.338 70.2294 146.41 70.2199C146.479 70.2112 146.546 70.2606 146.555 70.3316C146.696 71.3893 144.671 72.7604 143.332 73.6679L142.977 73.9087C142.707 74.0947 142.416 74.176 142.117 74.176Z"
     fill="#848998"
     id="path16" />
  <path
     d="M139.238 83.9318C139.227 83.9318 139.216 83.9305 139.205 83.9276C139.135 83.9102 139.094 83.8375 139.111 83.7678C139.138 83.6615 139.249 83.5656 139.449 83.3921C140.004 82.9139 141.157 81.918 141.482 79.7519C141.492 79.6813 141.553 79.629 141.629 79.6427C141.7 79.6535 141.749 79.7195 141.738 79.7909C141.399 82.0517 140.197 83.0903 139.619 83.5893C139.507 83.686 139.379 83.796 139.362 83.8359C139.347 83.894 139.295 83.9318 139.238 83.9318Z"
     fill="#848998"
     id="path17" />
  <path
     d="M145.851 83.7858C145.844 83.7858 145.838 83.7849 145.831 83.7841C145.76 83.7729 145.711 83.7069 145.722 83.6359C145.727 83.6031 146.198 80.3519 144.595 78.121C144.553 78.0629 144.566 77.9815 144.625 77.94C144.681 77.8977 144.764 77.9109 144.806 77.9695C146.471 80.2875 146 83.5379 145.979 83.6749C145.969 83.7393 145.914 83.7858 145.851 83.7858Z"
     fill="#848998"
     id="path18" />
  <path
     d="M128.021 67.9613C127.979 67.9613 127.938 67.9414 127.912 67.9036C127.837 67.7899 127.286 67.5038 126.819 67.3037C126.753 67.2751 126.722 67.1987 126.751 67.1327C126.779 67.0667 126.855 67.0364 126.921 67.0642C127.096 67.1389 127.972 67.5233 128.129 67.7591C128.169 67.8189 128.153 67.8994 128.093 67.9397C128.07 67.9542 128.046 67.9613 128.021 67.9613Z"
     fill="#848998"
     id="path19" />
  <path
     d="M125.283 61.9813C124.325 61.9813 123.426 61.4429 122.817 60.7222C121.912 59.6529 123.119 57.8152 123.131 57.7969C123.171 57.7371 123.252 57.7217 123.312 57.7608C123.371 57.801 123.387 57.8816 123.347 57.9413C123.035 58.4088 122.368 59.7895 123.015 60.5545C123.64 61.2943 125.097 62.2877 126.584 61.3204C127.881 60.4769 129.792 58.9069 130.119 58.6367C130.102 58.2116 129.888 55.7848 127.268 55.0816C127.199 55.0633 127.157 54.9919 127.176 54.9226C127.195 54.8528 127.264 54.8113 127.335 54.8308C130.345 55.6382 130.38 58.6662 130.38 58.6965C130.38 58.7351 130.363 58.7716 130.333 58.7961C130.312 58.8143 128.153 60.6098 126.725 61.5388C126.25 61.8485 125.759 61.9813 125.283 61.9813Z"
     fill="#848998"
     id="path20" />
  <path
     d="M112.284 52.3219C111.541 52.3219 110.723 51.6328 110.167 51.0541C109.238 50.0873 109.301 49.2608 109.305 49.2259C109.311 49.1549 109.368 49.1059 109.445 49.108C109.517 49.1147 109.57 49.1778 109.563 49.2492C109.562 49.2653 109.519 50.0047 110.354 50.874C111.091 51.6403 111.776 52.062 112.284 52.062C112.285 52.062 112.286 52.062 112.287 52.062C112.514 52.0612 112.702 51.9786 112.863 51.8096C113.441 51.2002 114.319 50.0263 114.554 49.7091C114.104 49.1524 112.072 46.6044 112.036 45.9722C112.032 45.9004 112.087 45.8389 112.159 45.8352C112.233 45.8294 112.292 45.8862 112.296 45.9576C112.32 46.3989 113.856 48.4401 114.82 49.6232C114.856 49.6693 114.858 49.7344 114.823 49.7822C114.779 49.8424 113.732 51.2716 113.051 51.9886C112.842 52.209 112.585 52.3211 112.288 52.3219C112.287 52.3219 112.285 52.3219 112.284 52.3219Z"
     fill="#848998"
     id="path21" />
  <path
     d="M116.014 61.7755C115.993 61.7755 115.972 61.7705 115.953 61.7601C115.89 61.7269 115.865 61.6481 115.899 61.5846C115.911 61.5609 117.167 59.1436 116.748 56.4868C116.737 56.4159 116.785 56.3494 116.856 56.3382C116.93 56.3254 116.994 56.3756 117.005 56.4466C117.438 59.1914 116.182 61.6049 116.128 61.7062C116.105 61.7506 116.06 61.7755 116.014 61.7755Z"
     fill="#848998"
     id="path22" />
  <path
     d="M134.455 42.3905C134.397 42.3905 134.344 42.3515 134.329 42.2925C134.312 42.2228 134.354 42.1522 134.424 42.1348C135.658 41.8259 136.819 40.2576 136.831 40.2418C136.873 40.1833 136.954 40.1717 137.013 40.214C137.07 40.2563 137.083 40.3377 137.04 40.3954C136.991 40.4631 135.812 42.0555 134.487 42.3868C134.476 42.3892 134.465 42.3905 134.455 42.3905Z"
     fill="#848998"
     id="path23" />
  <path
     d="M160.448 71.6295C160.43 71.6295 160.411 71.6258 160.394 71.6179C160.347 71.5967 155.673 69.5058 152.853 71.0737C152.791 71.1086 152.711 71.0861 152.677 71.023C152.642 70.9603 152.664 70.8815 152.727 70.8466C155.663 69.2152 160.305 71.2924 160.502 71.3813C160.567 71.4107 160.596 71.488 160.566 71.5536C160.544 71.6013 160.497 71.6295 160.448 71.6295Z"
     fill="#848998"
     id="path24" />
  <path
     d="m 160.375,110.1572 c -0.063,0 -0.117,-0.0448 -0.128,-0.1083 -0.012,-0.071 0.036,-0.1378 0.106,-0.1499 12.663,-2.1113 11.554,-11.6982 11.541,-11.7949 -0.009,-0.0714 0.041,-0.1366 0.112,-0.1457 0.072,-0.0087 0.136,0.0407 0.146,0.1117 0.013,0.0988 1.161,9.9318 -11.755,12.0851 -0.008,0.001 -0.015,0.002 -0.022,0.002 z"
     fill="#848998"
     id="path25" />
  <path
     d="M 86.6611,24.1805 140.48,79.5194 147.896,74.024 99.0287,23.56157 Z m 53.7969,55.8404 c -0.057,0 -0.113,-0.022 -0.155,-0.0656 L 86.0191,24.139 c -0.0593,-0.0606 -0.0771,-0.15028 -0.046,-0.22956 0.0307,-0.07888 0.105,-0.132 0.19,-0.13616 l 12.9416,-0.64759 c 0.0631,-0.0021 0.1224,0.02077 0.1656,0.06519 L 148.377,73.9007 c 0.044,0.0448 0.066,0.1059 0.061,0.1681 -0.005,0.0615 -0.037,0.1183 -0.087,0.1557 l -7.765,5.754 c -0.038,0.0283 -0.084,0.0424 -0.128,0.0424 z"
     fill="#848998"
     id="path26" />
  <path
     d="M 54.1428,97.8556 55.7118,92 l 0.9058,3.3806 3.3808,0.906 z"
     fill="#ff6767"
     id="path27" />
  <text
     xml:space="preserve"
     style="font-size:17.33333333px;line-height:1.5;text-align:center;text-anchor:middle;fill:#13204b;fill-opacity:1"
     x="112.40234"
     y="174.62781"
     id="text27"><tspan
       sodipodi:role="line"
       x="112.40234"
       y="174.62781"
       id="tspan30">피부 병변의 <tspan
   style="font-style:normal;font-variant:normal;font-weight:bold;font-stretch:normal;font-family:sans-serif;-inkscape-font-specification:sans-serif;text-align:center;text-anchor:middle;line-height:1.5;font-size:17.33333333px"
   id="tspan31">5~10cm </tspan></tspan><tspan
       sodipodi:role="line"
       x="112.40234"
       y="198.82739"
       id="tspan32">거리에서 촬영해 주세요</tspan></text>
  <text
     xml:space="preserve"
     style="fill:#13204b;fill-opacity:1"
     x="44.537609"
     y="113.72996"
     id="text28"><tspan
       sodipodi:role="line"
       id="tspan28"
       x="44.537609"
       y="113.72996" /></text>
</svg>
