<?xml version="1.0" encoding="UTF-8" standalone="no"?>
<svg
   width="225"
   height="215"
   viewBox="0 0 225 215"
   fill="none"
   version="1.1"
   id="svg32"
   sodipodi:docname="slider-3-c42624bb.svg"
   inkscape:version="1.3.2 (091e20e, 2023-11-25, custom)"
   xmlns:inkscape="http://www.inkscape.org/namespaces/inkscape"
   xmlns:sodipodi="http://sodipodi.sourceforge.net/DTD/sodipodi-0.dtd"
   xmlns="http://www.w3.org/2000/svg"
   xmlns:svg="http://www.w3.org/2000/svg">
  <sodipodi:namedview
     id="namedview32"
     pagecolor="#ffffff"
     bordercolor="#000000"
     borderopacity="0.25"
     inkscape:showpageshadow="2"
     inkscape:pageopacity="0.0"
     inkscape:pagecheckerboard="0"
     inkscape:deskcolor="#d1d1d1"
     inkscape:zoom="2.6672726"
     inkscape:cx="85.105663"
     inkscape:cy="85.668035"
     inkscape:window-width="1920"
     inkscape:window-height="1046"
     inkscape:window-x="-11"
     inkscape:window-y="-11"
     inkscape:window-maximized="1"
     inkscape:current-layer="svg32" />
  <g
     clip-path="url(#clip0_1214_5698)"
     id="g32">
    <path
       d="m 99.7439,44.399 c -0.0816,-0.0502 -0.1161,-0.1539 -0.0778,-0.2298 1.6109,-3.1189 8.4529,-9.7264 11.5749,-10.7258 0.081,-0.026 0.179,0.0224 0.219,0.1109 0.04,0.0879 0.003,0.1791 -0.077,0.2041 -3.078,0.987 -9.828,7.5142 -11.4203,10.5971 -0.04,0.0763 -0.1377,0.0955 -0.2188,0.0435 z"
       fill="#848998"
       id="path2" />
    <path
       d="m 115.779,44.0933 c -0.036,-0.0229 -0.065,-0.058 -0.082,-0.101 -0.032,-0.0894 0.01,-0.1772 0.096,-0.1958 2.266,-0.5122 3.884,-3.4727 3.9,-3.503 0.04,-0.074 0.134,-0.0977 0.221,-0.0393 0.08,0.053 0.113,0.1543 0.074,0.23 -0.068,0.1265 -1.692,3.0955 -4.08,3.6351 -0.042,0.0096 -0.09,-0.0016 -0.129,-0.026 z"
       fill="#848998"
       id="path3" />
    <path
       d="m 123.119,46.5339 c -0.06,-0.0376 -0.099,-0.1062 -0.093,-0.1761 0.057,-0.6627 1.244,-2.1108 2.781,-2.4324 0.084,-0.0171 0.178,0.0409 0.211,0.1304 0.03,0.0888 -0.013,0.1764 -0.099,0.1933 -1.455,0.3053 -2.523,1.7021 -2.566,2.1881 -0.009,0.0888 -0.087,0.1425 -0.177,0.1211 -0.021,-0.0061 -0.04,-0.0127 -0.057,-0.0244 z"
       fill="#848998"
       id="path4" />
    <path
       d="m 124.294,48.7013 c -0.05,-0.0312 -0.086,-0.0862 -0.092,-0.1457 -0.009,-0.0905 0.058,-0.16 0.147,-0.1556 1.404,0.0889 3.327,-2.4257 3.679,-3.313 0.031,-0.0801 0.125,-0.1096 0.21,-0.0642 0.085,0.0471 0.128,0.1452 0.096,0.2235 -0.357,0.9066 -2.329,3.5851 -3.954,3.4842 -0.03,-0.0013 -0.06,-0.0125 -0.086,-0.0292 z"
       fill="#848998"
       id="path5" />
    <path
       d="m 115.152,42.3225 c -0.064,-0.0391 -0.104,-0.1131 -0.092,-0.1853 0.131,-0.862 1.653,-2.1292 2.988,-2.808 0.075,-0.0389 0.177,-0.0017 0.228,0.0803 0.05,0.0831 0.028,0.1805 -0.046,0.219 -1.414,0.7196 -2.743,1.9378 -2.846,2.607 -0.014,0.0871 -0.095,0.1359 -0.186,0.1085 -0.017,-0.004 -0.031,-0.0124 -0.046,-0.0215 z"
       fill="#848998"
       id="path6" />
    <path
       d="m 137.725,22.2176 c -0.038,-0.0237 -0.069,-0.0612 -0.084,-0.1046 -0.558,-1.6586 -2.811,-3.1193 -3.192,-3.2315 -0.088,-0.0258 -0.151,-0.1191 -0.138,-0.2057 0.012,-0.0878 0.094,-0.1377 0.185,-0.1105 0.482,0.1423 2.84,1.6575 3.454,3.4865 0.031,0.0894 -0.014,0.1756 -0.099,0.1914 -0.043,0.009 -0.087,-0.0019 -0.126,-0.0256 z"
       fill="#848998"
       id="path7" />
    <path
       d="m 139.422,22.4559 c -0.044,-0.0272 -0.076,-0.0713 -0.089,-0.1227 -0.345,-1.4865 -3.053,-3.8247 -3.686,-4.0424 -0.091,-0.0302 -0.148,-0.1257 -0.131,-0.2101 0.017,-0.0869 0.103,-0.1323 0.192,-0.1011 0.82,0.2775 3.574,2.7352 3.944,4.3261 0.021,0.0919 -0.034,0.1725 -0.122,0.178 -0.037,0.0032 -0.075,-0.0071 -0.108,-0.0278 z"
       fill="#848998"
       id="path8" />
    <path
       d="m 137.019,23.064 c -1.545,-0.971 -3.353,-2.6811 -3.446,-3.5433 -0.011,-0.0907 0.055,-0.1621 0.145,-0.1569 0.088,0.0031 0.17,0.0795 0.18,0.1708 0.091,0.8305 2.648,3.1149 4.207,3.7612 0.09,0.0371 0.141,0.1338 0.118,0.2171 -0.023,0.0833 -0.113,0.1219 -0.2,0.0861 -0.305,-0.1259 -0.648,-0.3099 -1.004,-0.535 z"
       fill="#848998"
       id="path9" />
    <path
       d="m 129.986,21.7263 c -0.03,-0.0175 -0.054,-0.0426 -0.071,-0.0753 -0.557,-1.0288 -1.624,-2.0915 -2.285,-2.2777 -0.089,-0.0247 -0.152,-0.1162 -0.141,-0.2042 0.011,-0.0873 0.094,-0.1377 0.182,-0.1124 0.837,0.2343 1.982,1.468 2.526,2.4734 0.047,0.0845 0.021,0.1809 -0.058,0.2137 -0.049,0.0211 -0.106,0.0136 -0.153,-0.0175 z"
       fill="#848998"
       id="path10" />
    <path
       d="m 131.091,21.8047 c -0.05,-0.0319 -0.088,-0.0882 -0.092,-0.1492 -0.083,-1.0772 -1.329,-2.2653 -2.294,-2.4818 -0.09,-0.0214 -0.158,-0.1092 -0.152,-0.1984 0.006,-0.0884 0.085,-0.1439 0.176,-0.1235 1.097,0.2469 2.501,1.5652 2.595,2.8293 0.008,0.091 -0.06,0.1598 -0.149,0.1525 -0.03,-0.0025 -0.058,-0.0129 -0.084,-0.0289 z"
       fill="#848998"
       id="path11" />
    <path
       d="m 128.656,22.3683 c -0.576,-0.3621 -1.082,-0.8482 -1.409,-1.2868 -0.384,-0.5161 -0.562,-1.0054 -0.5,-1.3759 0.015,-0.0881 0.1,-0.1343 0.189,-0.1066 0.091,0.0302 0.15,0.1225 0.135,0.2089 -0.046,0.2743 0.11,0.6763 0.428,1.1036 0.507,0.6824 1.488,1.4911 2.438,1.6514 0.089,0.0149 0.161,0.0997 0.16,0.1905 -0.001,0.0901 -0.074,0.1508 -0.165,0.1345 -0.434,-0.0732 -0.873,-0.2653 -1.276,-0.5196 z"
       fill="#848998"
       id="path12" />
    <path
       d="m 115.935,74.2888 c -0.054,-0.0334 -0.092,-0.095 -0.093,-0.1586 -0.002,-0.0893 0.07,-0.1536 0.16,-0.1415 0.911,0.1207 5.53,-0.3934 7.484,-2.5235 0.057,-0.0617 0.159,-0.0601 0.233,0.0109 0.069,0.0665 0.081,0.1714 0.024,0.2326 -2.054,2.2374 -6.759,2.7388 -7.734,2.6074 -0.027,-0.0032 -0.051,-0.0133 -0.074,-0.0273 z"
       fill="#848998"
       id="path13" />
    <path
       d="m 134.731,65.4841 c -0.006,-0.0041 -0.012,-0.0082 -0.018,-0.013 -0.054,-0.0427 -1.315,-1.0524 -1.653,-2.3576 -0.023,-0.0898 0.029,-0.1718 0.117,-0.1803 0.085,-0.0111 0.177,0.0546 0.199,0.1449 0.306,1.1791 1.502,2.1367 1.515,2.1456 0.075,0.0601 0.098,0.1637 0.049,0.2327 -0.045,0.0636 -0.135,0.0742 -0.209,0.0277 z"
       fill="#848998"
       id="path14" />
    <path
       d="m 135.641,64.8265 c -0.008,-0.0031 -0.012,-0.0076 -0.017,-0.0111 -0.723,-0.5588 -1.357,-1.8988 -1.165,-3.3777 0.011,-0.088 0.093,-0.1379 0.183,-0.113 0.089,0.0259 0.154,0.117 0.142,0.2049 -0.175,1.3444 0.378,2.5446 1.014,3.0363 0.076,0.0578 0.1,0.1633 0.053,0.2325 -0.046,0.0646 -0.135,0.0759 -0.21,0.0281 z"
       fill="#848998"
       id="path15" />
    <path
       d="m 149.699,22.5811 c -0.029,-0.018 -0.054,-0.0445 -0.071,-0.0765 -0.018,-0.0333 -1.797,-3.3124 -3.473,-4.0038 -0.089,-0.0353 -0.14,-0.1336 -0.117,-0.2169 0.022,-0.084 0.112,-0.1231 0.198,-0.087 1.812,0.7496 3.6,4.047 3.673,4.1873 0.048,0.0858 0.022,0.181 -0.057,0.2137 -0.048,0.0219 -0.105,0.0126 -0.153,-0.0168 z"
       fill="#848998"
       id="path16" />
    <path
       d="m 140.608,28.9626 c -0.022,-0.0133 -0.043,-0.0317 -0.057,-0.0536 -0.383,-0.5299 -0.938,-1.1473 -1.525,-1.8 -0.449,-0.5018 -0.915,-1.0187 -1.295,-1.4948 -0.061,-0.0756 -0.057,-0.1782 0.01,-0.2296 0.069,-0.0489 0.171,-0.028 0.232,0.0481 0.375,0.4674 0.835,0.9802 1.281,1.4759 0.595,0.661 1.156,1.2878 1.552,1.8348 0.055,0.079 0.045,0.1799 -0.025,0.2258 -0.051,0.0326 -0.118,0.0287 -0.173,-0.0066 z"
       fill="#848998"
       id="path17" />
    <path
       d="m 141.941,29.017 c -0.036,-0.0235 -0.066,-0.0598 -0.081,-0.1021 -0.732,-2.0017 -2.17,-3.0643 -3.223,-3.8413 l -0.209,-0.1553 c -0.078,-0.0569 -0.103,-0.1632 -0.056,-0.2317 0.045,-0.07 0.143,-0.081 0.224,-0.022 l 0.208,0.1528 c 1.092,0.8072 2.59,1.9133 3.361,4.0273 0.032,0.09 -0.009,0.1767 -0.094,0.1961 -0.043,0.0107 -0.09,10e-5 -0.13,-0.0238 z"
       fill="#848998"
       id="path18" />
    <path
       d="m 139.976,30.4764 c -2.594,-1.6318 -2.951,-4.2161 -2.954,-4.2438 -0.013,-0.0911 0.052,-0.1637 0.14,-0.161 0.089,0.0026 0.173,0.0776 0.186,0.1703 0.014,0.1173 0.411,2.9341 3.554,4.3877 0.088,0.0416 0.135,0.1389 0.108,0.22 -0.027,0.0818 -0.119,0.1161 -0.205,0.0759 -0.299,-0.1388 -0.575,-0.2887 -0.829,-0.4491 z"
       fill="#848998"
       id="path19" />
    <path
       d="m 147.525,21.4748 c -0.01,-0.0056 -0.02,-0.0142 -0.03,-0.0228 -0.019,-0.0177 -1.884,-1.7936 -2.065,-2.3671 -0.029,-0.0897 0.018,-0.1752 0.105,-0.1909 0.085,-0.0146 0.18,0.0464 0.206,0.137 0.111,0.352 1.421,1.6969 1.955,2.1945 0.072,0.0673 0.084,0.1711 0.029,0.2324 -0.049,0.0551 -0.132,0.0605 -0.2,0.0169 z"
       fill="#848998"
       id="path20" />
    <path
       d="m 164.272,18.3811 c -0.088,-0.6828 -1.656,-1.4366 -3.366,-1.4797 -1.711,-0.0422 -1.42,-0.1767 -2.832,1.3224 -2.193,2.328 1.66,2.0223 3.329,1.8435 2.056,-0.2198 2.957,-1.0046 2.869,-1.6862 z"
       fill="#f2f5fc"
       id="path21" />
    <path
       d="m 152.244,29.9666 c 0.06,-0.4284 -1.216,-1.1833 -2.722,-1.7595 -1.691,-0.6465 -1.538,-0.7642 -2.818,0.1531 -1.654,1.1856 1.084,1.6079 2.62,1.9082 1.893,0.3717 2.86,0.1243 2.92,-0.3018 z"
       fill="#ffffff"
       id="path22" />
    <mask
       id="path-23-outside-1_1214_5698"
       maskUnits="userSpaceOnUse"
       x="19.5862"
       y="-19.783"
       width="161.881"
       height="159.052"
       fill="#000000">
      <rect
         fill="#ffffff"
         x="19.586201"
         y="-19.783001"
         width="161.881"
         height="159.052"
         id="rect22" />
      <path
         d="m 156.262,20.2643 c 0.309,-0.233 0.598,-0.4644 0.878,-0.6962 0.037,0.0574 0.081,0.1131 0.143,0.1735 0.067,0.0651 0.145,0.1249 0.232,0.1798 0.584,0.3664 1.598,0.5023 3.02,0.4014 0.11,-0.008 0.24,-0.0139 0.383,-0.0209 0.785,-0.0348 1.949,-0.0904 2.771,-0.5715 -0.42,1.1104 -1.843,2.9304 -6.632,3.6959 -2.928,0.4687 -4.838,0.8151 -5.844,1.0079 1.727,-1.5403 3.496,-3.0118 5.049,-4.1699 z m 5.578,-3.1015 0.225,0.0463 c 1.022,0.2083 1.664,0.3779 1.941,1.2029 0.082,0.2419 0.058,0.2797 -0.01,0.3939 -0.016,0.0246 -0.032,0.0538 -0.05,0.0857 -0.628,0.8569 -2.169,0.9282 -3.114,0.9717 -0.147,0.006 -0.28,0.0122 -0.394,0.0192 -1.923,0.1384 -2.618,-0.2026 -2.859,-0.4177 -0.074,-0.064 -0.11,-0.1218 -0.129,-0.1628 0.893,-0.7756 1.614,-1.5431 2.184,-2.2766 0.878,-0.0311 1.623,0.0139 2.206,0.1374 z m -9.791,12.6577 c 0.062,0.093 0.053,0.1358 0.049,0.1529 -0.005,0.0269 -0.015,0.0608 -0.021,0.0928 -1.984,0.6045 -4.958,-0.6438 -5.719,-0.9898 0.401,-0.4169 0.829,-0.8497 1.275,-1.2906 1.32,0.3314 3.943,1.3336 4.416,2.0347 z m -0.117,0.7557 c -0.37,1.1084 -1.341,2.8675 -3.711,2.4664 -2.351,-0.398 -3.885,-0.8921 -4.403,-1.073 0.027,-0.0345 0.056,-0.0753 0.083,-0.1086 0.529,-0.6939 1.274,-1.5393 2.155,-2.4694 0.283,0.1377 3.506,1.6787 5.876,1.1846 z m -10.248,5.5144 c 0.153,0.4634 0.077,0.9792 -0.223,1.5346 -0.711,1.309 -1.804,1.207 -2.684,1.1244 -0.06,-0.005 -0.116,-0.0095 -0.172,-0.0141 0.867,-1.176 1.75,-2.3261 2.572,-3.3815 0.196,0.165 0.402,0.4172 0.507,0.7366 z M 63.3668,76.0454 c -6.2562,2.1943 -30.2857,8.4723 -40.1593,10.6172 -0.6883,0.15 -1.4321,0.3259 -2.2075,0.5171 l 0.3639,0.3819 c 0.6964,-0.1714 1.3697,-0.3305 1.9966,-0.4664 9.8817,-2.1475 33.9374,-8.4334 40.2045,-10.6306 1.4153,-0.4971 2.6608,-0.9147 3.7513,-1.2806 3.9571,-1.3278 5.9425,-1.9939 6.7195,-3.2979 l 0.0745,-0.1252 c 1.8564,-3.1155 2.5513,-4.2823 5.8159,-4.3987 3.3392,-0.1211 8.1836,-7.3147 9.9572,-11.3076 1.8611,-4.1895 9.9738,-15.7689 12.7826,-18.5799 2.039,-2.041 2.805,-3.0631 3.779,-4.3565 0.376,-0.5015 0.787,-1.0479 1.319,-1.7164 0.903,-1.1381 2.174,-1.3057 3.518,-1.4821 0.988,-0.1287 2.009,-0.2629 2.85,-0.822 1.5,-0.9974 2.96,-1.9249 4.306,-2.4325 -0.432,0.3974 -0.869,0.8287 -1.324,1.2815 -1.405,1.3968 -2.855,2.8413 -4.435,3.4759 -0.105,0.0423 -0.143,0.1695 -0.084,0.2832 0.023,0.0443 0.057,0.0793 0.097,0.1043 0.061,0.0388 0.136,0.0523 0.2,0.0262 1.647,-0.6622 3.124,-2.1326 4.554,-3.553 0.737,-0.7356 1.434,-1.4293 2.115,-1.9674 1.117,-0.885 2.831,-2.4162 4.343,-3.7683 1.164,-1.0415 2.264,-2.0244 2.833,-2.4772 1.222,-0.9745 2.652,-0.9267 3.264,-0.6686 0.865,0.3636 2.009,0.7457 2.563,0.9262 -0.711,0.9625 -1.625,1.9352 -2.761,3.1409 -0.864,0.9184 -1.844,1.9578 -2.92,3.1964 -2.424,2.7886 -4.323,4.8642 -6.704,6.1778 -0.098,0.0529 -0.121,0.1857 -0.052,0.2934 0.022,0.035 0.053,0.0637 0.085,0.0838 0.069,0.0438 0.152,0.0528 0.219,0.016 2.432,-1.3411 4.352,-3.4366 6.798,-6.2526 1.072,-1.2339 2.05,-2.2717 2.911,-3.1863 1.244,-1.3205 2.227,-2.3619 2.977,-3.4282 0,-0.0017 -10e-4,-0.0023 0.001,-0.0034 l 0.029,-0.0418 c 1.243,-1.7703 1.538,-2.1905 4.077,-2.3418 2.361,-0.1403 8.068,-0.7924 11.058,-1.2205 -2.836,2.032 -5.81,4.182 -7.471,5.544 -1.168,0.9591 -3.032,2.779 -4.988,4.8657 -0.9,0.9619 -2.16,2.5248 -3.274,3.9046 -0.897,1.1113 -1.743,2.162 -2.287,2.7565 -1.522,1.6656 -2.099,2.1938 -3.257,2.7369 -0.103,0.0466 -0.133,0.1763 -0.069,0.2883 0.063,0.1112 0.198,0.1651 0.3,0.1161 1.205,-0.5644 1.834,-1.1387 3.368,-2.8164 0.551,-0.6032 1.4,-1.6576 2.301,-2.7731 1.109,-1.3757 2.365,-2.9332 3.257,-3.8849 1.946,-2.0777 3.799,-3.8854 4.956,-4.8346 1.802,-1.4809 5.172,-3.8999 8.221,-6.0802 0.106,-0.0766 0.213,-0.1542 0.321,-0.23 2.404,-1.7207 4.481,-3.2051 5.275,-3.8644 2.078,-1.7248 4.066,-1.2346 4.627,-1.0434 0.634,0.2166 1.144,0.59 1.295,0.9514 0.256,0.6119 0.024,2.2272 -1.515,4.2487 -0.008,0.0079 -0.014,0.0172 -0.019,0.0266 -0.766,0.9999 -1.846,2.0955 -3.355,3.2219 -1.741,1.3001 -3.754,2.9919 -5.679,4.7353 -0.012,0.0081 -0.021,0.0182 -0.031,0.0289 -0.993,0.8999 -1.963,1.8145 -2.859,2.6964 -0.001,6e-4 -0.001,6e-4 -0.001,0.0011 -1.626,1.6008 -3.011,3.0956 -3.859,4.2026 -0.386,0.5041 -0.871,1.1251 -1.423,1.83 -2.548,3.2494 -6.399,8.1622 -8.213,11.6723 -1.548,2.9977 -4.324,8.543 -5.53,12.0241 -0.146,0.4197 -0.322,0.8496 -0.518,1.2874 0,0 -0.001,10e-4 -0.001,0.0027 -1.276,2.8223 -3.523,5.8915 -5.286,7.7672 -0.077,0.0813 -0.063,0.2208 0.031,0.3119 0.015,0.0132 0.029,0.024 0.045,0.0337 0.088,0.0562 0.197,0.0515 0.261,-0.0188 1.775,-1.8873 4.034,-4.9716 5.332,-7.8231 1.439,-1.1696 4.467,-2.7994 7.761,-3.6467 2.92,-0.7502 5.626,-0.5975 9.047,0.5117 2.507,0.8117 4.174,2.3816 4.837,3.4766 0.272,0.4464 0.335,0.74 0.303,0.8666 -0.303,1.2649 -2.789,1.901 -7.386,1.8951 -2.131,-0.0046 -6.262,1.1797 -8.908,4.4588 -0.297,0.3698 -0.692,0.8817 -1.159,1.4864 -1.995,2.59 -5.335,6.9253 -7.558,8.3901 -0.981,0.6467 -1.915,1.3582 -2.818,2.0472 -2.362,1.8012 -4.803,3.6638 -8.225,4.4095 -1.056,0.2303 -2.532,0.445 -4.097,0.6706 -2.367,0.3429 -4.815,0.6975 -6.297,1.1697 -7.9606,2.5424 -18.3946,9.94 -24.6282,14.3614 -1.5403,1.0912 -2.8674,2.0349 -3.7808,2.6319 -4.5183,2.955 -15.8502,9.305 -26.4085,15.102 l 0.3332,0.35 c 10.5424,-5.79 21.8376,-12.12 26.3503,-15.073 0.9196,-0.599 2.1876,-1.499 3.7926,-2.638 6.2174,-4.4085 16.6222,-11.7893 24.5304,-14.3109 1.451,-0.4625 3.882,-0.8159 6.234,-1.1564 1.573,-0.2276 3.056,-0.4434 4.123,-0.6765 3.504,-0.763 5.977,-2.6503 8.369,-4.4735 0.898,-0.6867 1.828,-1.3938 2.799,-2.034 2.271,-1.4972 5.633,-5.8617 7.642,-8.4683 0.464,-0.6016 0.858,-1.1124 1.154,-1.48 2.567,-3.1817 6.56,-4.3317 8.618,-4.3276 4.859,0.0082 7.393,-0.7016 7.747,-2.1699 0.069,-0.2813 -0.062,-0.7145 -0.365,-1.2166 -0.748,-1.231 -2.485,-2.8518 -5.13,-3.7089 -3.508,-1.1379 -6.285,-1.2944 -9.286,-0.5228 -2.903,0.7474 -5.605,2.0965 -7.23,3.2197 0.066,-0.1703 0.13,-0.3396 0.188,-0.5061 1.197,-3.4569 3.966,-8.9862 5.508,-11.9758 0.937,-1.8136 2.431,-4.0121 4.002,-6.1607 0.008,0.0014 0.013,0.006 0.021,0.0062 0.144,2e-4 0.308,0.0175 0.484,0.0331 0.885,0.0825 2.224,0.2091 3.047,-1.3087 0.355,-0.654 0.438,-1.2821 0.246,-1.8672 -0.158,-0.4762 -0.454,-0.7946 -0.673,-0.9788 0.367,-0.4699 0.72,-0.9192 1.05,-1.341 0.397,-0.5064 0.759,-0.9669 1.075,-1.375 0.245,0.0925 1.872,0.6863 4.667,1.1598 3.218,0.5445 4.113,-2.4261 4.31,-3.3494 0.025,-0.1129 0.022,-0.2925 -0.127,-0.5133 -0.573,-0.851 -3.088,-1.7922 -4.416,-2.1715 0.815,-0.7947 1.685,-1.6111 2.574,-2.4197 0.343,-0.0693 2.445,-0.4906 6.631,-1.1614 4.1,-0.6563 6.676,-2.2895 7.071,-4.4822 0.02,-0.1174 0.054,-0.1856 0.089,-0.2489 0.037,-0.0563 0.074,-0.1119 0.106,-0.1733 0.014,-0.0282 0.021,-0.0584 0.02,-0.0889 0.034,-0.1275 0.028,-0.2847 -0.056,-0.5374 -0.389,-1.1555 -1.377,-1.358 -2.329,-1.5518 l -0.226,-0.0474 c -0.522,-0.1091 -1.161,-0.1597 -1.895,-0.1535 1.317,-1.8693 1.635,-3.467 1.288,-4.2963 -0.215,-0.511 -0.817,-0.9783 -1.615,-1.2506 -1.636,-0.5593 -3.509,-0.1474 -5.014,1.1018 -0.784,0.6504 -2.857,2.1329 -5.256,3.8494 -0.094,0.0673 -0.189,0.1362 -0.284,0.2041 -2.518,0.4056 -9.326,1.1983 -11.956,1.3561 -2.682,0.16 -3.088,0.6901 -4.307,2.4267 -0.427,-0.1361 -1.749,-0.5673 -2.71,-0.9709 -0.732,-0.3088 -2.319,-0.3749 -3.679,0.7101 -0.577,0.4589 -1.629,1.4002 -2.848,2.4885 -1.496,1.3385 -3.188,2.8522 -4.301,3.733 -1.67,0.3511 -3.522,1.5189 -5.431,2.7891 -0.771,0.5132 -1.705,0.6341 -2.694,0.7652 -1.358,0.1767 -2.763,0.3604 -3.756,1.6109 -0.531,0.6727 -0.944,1.2212 -1.323,1.7237 -1.002,1.3336 -1.726,2.2965 -3.748,4.3199 -2.8234,2.8283 -10.983,14.4733 -12.8545,18.6862 -1.9793,4.4536 -6.7156,10.9902 -9.636,11.0963 -3.4684,0.1248 -4.2437,1.4272 -6.117,4.5736 l -0.074,0.1247 c -0.7116,1.1913 -2.6548,1.8442 -6.5292,3.1437 -1.0923,0.3651 -2.3388,0.785 -3.7565,1.2818 z"
         id="path23" />
    </mask>
    <path
       d="m 156.262,20.2643 c 0.309,-0.233 0.598,-0.4644 0.878,-0.6962 0.037,0.0574 0.081,0.1131 0.143,0.1735 0.067,0.0651 0.145,0.1249 0.232,0.1798 0.584,0.3664 1.598,0.5023 3.02,0.4014 0.11,-0.008 0.24,-0.0139 0.383,-0.0209 0.785,-0.0348 1.949,-0.0904 2.771,-0.5715 -0.42,1.1104 -1.843,2.9304 -6.632,3.6959 -2.928,0.4687 -4.838,0.8151 -5.844,1.0079 1.727,-1.5403 3.496,-3.0118 5.049,-4.1699 z m 5.578,-3.1015 0.225,0.0463 c 1.022,0.2083 1.664,0.3779 1.941,1.2029 0.082,0.2419 0.058,0.2797 -0.01,0.3939 -0.016,0.0246 -0.032,0.0538 -0.05,0.0857 -0.628,0.8569 -2.169,0.9282 -3.114,0.9717 -0.147,0.006 -0.28,0.0122 -0.394,0.0192 -1.923,0.1384 -2.618,-0.2026 -2.859,-0.4177 -0.074,-0.064 -0.11,-0.1218 -0.129,-0.1628 0.893,-0.7756 1.614,-1.5431 2.184,-2.2766 0.878,-0.0311 1.623,0.0139 2.206,0.1374 z m -9.791,12.6577 c 0.062,0.093 0.053,0.1358 0.049,0.1529 -0.005,0.0269 -0.015,0.0608 -0.021,0.0928 -1.984,0.6045 -4.958,-0.6438 -5.719,-0.9898 0.401,-0.4169 0.829,-0.8497 1.275,-1.2906 1.32,0.3314 3.943,1.3336 4.416,2.0347 z m -0.117,0.7557 c -0.37,1.1084 -1.341,2.8675 -3.711,2.4664 -2.351,-0.398 -3.885,-0.8921 -4.403,-1.073 0.027,-0.0345 0.056,-0.0753 0.083,-0.1086 0.529,-0.6939 1.274,-1.5393 2.155,-2.4694 0.283,0.1377 3.506,1.6787 5.876,1.1846 z m -10.248,5.5144 c 0.153,0.4634 0.077,0.9792 -0.223,1.5346 -0.711,1.309 -1.804,1.207 -2.684,1.1244 -0.06,-0.005 -0.116,-0.0095 -0.172,-0.0141 0.867,-1.176 1.75,-2.3261 2.572,-3.3815 0.196,0.165 0.402,0.4172 0.507,0.7366 z M 63.3668,76.0454 c -6.2562,2.1943 -30.2857,8.4723 -40.1593,10.6172 -0.6883,0.15 -1.4321,0.3259 -2.2075,0.5171 l 0.3639,0.3819 c 0.6964,-0.1714 1.3697,-0.3305 1.9966,-0.4664 9.8817,-2.1475 33.9374,-8.4334 40.2045,-10.6306 1.4153,-0.4971 2.6608,-0.9147 3.7513,-1.2806 3.9571,-1.3278 5.9425,-1.9939 6.7195,-3.2979 l 0.0745,-0.1252 c 1.8564,-3.1155 2.5513,-4.2823 5.8159,-4.3987 3.3392,-0.1211 8.1836,-7.3147 9.9572,-11.3076 1.8611,-4.1895 9.9738,-15.7689 12.7826,-18.5799 2.039,-2.041 2.805,-3.0631 3.779,-4.3565 0.376,-0.5015 0.787,-1.0479 1.319,-1.7164 0.903,-1.1381 2.174,-1.3057 3.518,-1.4821 0.988,-0.1287 2.009,-0.2629 2.85,-0.822 1.5,-0.9974 2.96,-1.9249 4.306,-2.4325 -0.432,0.3974 -0.869,0.8287 -1.324,1.2815 -1.405,1.3968 -2.855,2.8413 -4.435,3.4759 -0.105,0.0423 -0.143,0.1695 -0.084,0.2832 0.023,0.0443 0.057,0.0793 0.097,0.1043 0.061,0.0388 0.136,0.0523 0.2,0.0262 1.647,-0.6622 3.124,-2.1326 4.554,-3.553 0.737,-0.7356 1.434,-1.4293 2.115,-1.9674 1.117,-0.885 2.831,-2.4162 4.343,-3.7683 1.164,-1.0415 2.264,-2.0244 2.833,-2.4772 1.222,-0.9745 2.652,-0.9267 3.264,-0.6686 0.865,0.3636 2.009,0.7457 2.563,0.9262 -0.711,0.9625 -1.625,1.9352 -2.761,3.1409 -0.864,0.9184 -1.844,1.9578 -2.92,3.1964 -2.424,2.7886 -4.323,4.8642 -6.704,6.1778 -0.098,0.0529 -0.121,0.1857 -0.052,0.2934 0.022,0.035 0.053,0.0637 0.085,0.0838 0.069,0.0438 0.152,0.0528 0.219,0.016 2.432,-1.3411 4.352,-3.4366 6.798,-6.2526 1.072,-1.2339 2.05,-2.2717 2.911,-3.1863 1.244,-1.3205 2.227,-2.3619 2.977,-3.4282 0,-0.0017 -10e-4,-0.0023 0.001,-0.0034 l 0.029,-0.0418 c 1.243,-1.7703 1.538,-2.1905 4.077,-2.3418 2.361,-0.1403 8.068,-0.7924 11.058,-1.2205 -2.836,2.032 -5.81,4.182 -7.471,5.544 -1.168,0.9591 -3.032,2.779 -4.988,4.8657 -0.9,0.9619 -2.16,2.5248 -3.274,3.9046 -0.897,1.1113 -1.743,2.162 -2.287,2.7565 -1.522,1.6656 -2.099,2.1938 -3.257,2.7369 -0.103,0.0466 -0.133,0.1763 -0.069,0.2883 0.063,0.1112 0.198,0.1651 0.3,0.1161 1.205,-0.5644 1.834,-1.1387 3.368,-2.8164 0.551,-0.6032 1.4,-1.6576 2.301,-2.7731 1.109,-1.3757 2.365,-2.9332 3.257,-3.8849 1.946,-2.0777 3.799,-3.8854 4.956,-4.8346 1.802,-1.4809 5.172,-3.8999 8.221,-6.0802 0.106,-0.0766 0.213,-0.1542 0.321,-0.23 2.404,-1.7207 4.481,-3.2051 5.275,-3.8644 2.078,-1.7248 4.066,-1.2346 4.627,-1.0434 0.634,0.2166 1.144,0.59 1.295,0.9514 0.256,0.6119 0.024,2.2272 -1.515,4.2487 -0.008,0.0079 -0.014,0.0172 -0.019,0.0266 -0.766,0.9999 -1.846,2.0955 -3.355,3.2219 -1.741,1.3001 -3.754,2.9919 -5.679,4.7353 -0.012,0.0081 -0.021,0.0182 -0.031,0.0289 -0.993,0.8999 -1.963,1.8145 -2.859,2.6964 -0.001,6e-4 -0.001,6e-4 -0.001,0.0011 -1.626,1.6008 -3.011,3.0956 -3.859,4.2026 -0.386,0.5041 -0.871,1.1251 -1.423,1.83 -2.548,3.2494 -6.399,8.1622 -8.213,11.6723 -1.548,2.9977 -4.324,8.543 -5.53,12.0241 -0.146,0.4197 -0.322,0.8496 -0.518,1.2874 0,0 -0.001,10e-4 -0.001,0.0027 -1.276,2.8223 -3.523,5.8915 -5.286,7.7672 -0.077,0.0813 -0.063,0.2208 0.031,0.3119 0.015,0.0132 0.029,0.024 0.045,0.0337 0.088,0.0562 0.197,0.0515 0.261,-0.0188 1.775,-1.8873 4.034,-4.9716 5.332,-7.8231 1.439,-1.1696 4.467,-2.7994 7.761,-3.6467 2.92,-0.7502 5.626,-0.5975 9.047,0.5117 2.507,0.8117 4.174,2.3816 4.837,3.4766 0.272,0.4464 0.335,0.74 0.303,0.8666 -0.303,1.2649 -2.789,1.901 -7.386,1.8951 -2.131,-0.0046 -6.262,1.1797 -8.908,4.4588 -0.297,0.3698 -0.692,0.8817 -1.159,1.4864 -1.995,2.59 -5.335,6.9253 -7.558,8.3901 -0.981,0.6467 -1.915,1.3582 -2.818,2.0472 -2.362,1.8012 -4.803,3.6638 -8.225,4.4095 -1.056,0.2303 -2.532,0.445 -4.097,0.6706 -2.367,0.3429 -4.815,0.6975 -6.297,1.1697 -7.9606,2.5424 -18.3946,9.94 -24.6282,14.3614 -1.5403,1.0912 -2.8674,2.0349 -3.7808,2.6319 -4.5183,2.955 -15.8502,9.305 -26.4085,15.102 l 0.3332,0.35 c 10.5424,-5.79 21.8376,-12.12 26.3503,-15.073 0.9196,-0.599 2.1876,-1.499 3.7926,-2.638 6.2174,-4.4085 16.6222,-11.7893 24.5304,-14.3109 1.451,-0.4625 3.882,-0.8159 6.234,-1.1564 1.573,-0.2276 3.056,-0.4434 4.123,-0.6765 3.504,-0.763 5.977,-2.6503 8.369,-4.4735 0.898,-0.6867 1.828,-1.3938 2.799,-2.034 2.271,-1.4972 5.633,-5.8617 7.642,-8.4683 0.464,-0.6016 0.858,-1.1124 1.154,-1.48 2.567,-3.1817 6.56,-4.3317 8.618,-4.3276 4.859,0.0082 7.393,-0.7016 7.747,-2.1699 0.069,-0.2813 -0.062,-0.7145 -0.365,-1.2166 -0.748,-1.231 -2.485,-2.8518 -5.13,-3.7089 -3.508,-1.1379 -6.285,-1.2944 -9.286,-0.5228 -2.903,0.7474 -5.605,2.0965 -7.23,3.2197 0.066,-0.1703 0.13,-0.3396 0.188,-0.5061 1.197,-3.4569 3.966,-8.9862 5.508,-11.9758 0.937,-1.8136 2.431,-4.0121 4.002,-6.1607 0.008,0.0014 0.013,0.006 0.021,0.0062 0.144,2e-4 0.308,0.0175 0.484,0.0331 0.885,0.0825 2.224,0.2091 3.047,-1.3087 0.355,-0.654 0.438,-1.2821 0.246,-1.8672 -0.158,-0.4762 -0.454,-0.7946 -0.673,-0.9788 0.367,-0.4699 0.72,-0.9192 1.05,-1.341 0.397,-0.5064 0.759,-0.9669 1.075,-1.375 0.245,0.0925 1.872,0.6863 4.667,1.1598 3.218,0.5445 4.113,-2.4261 4.31,-3.3494 0.025,-0.1129 0.022,-0.2925 -0.127,-0.5133 -0.573,-0.851 -3.088,-1.7922 -4.416,-2.1715 0.815,-0.7947 1.685,-1.6111 2.574,-2.4197 0.343,-0.0693 2.445,-0.4906 6.631,-1.1614 4.1,-0.6563 6.676,-2.2895 7.071,-4.4822 0.02,-0.1174 0.054,-0.1856 0.089,-0.2489 0.037,-0.0563 0.074,-0.1119 0.106,-0.1733 0.014,-0.0282 0.021,-0.0584 0.02,-0.0889 0.034,-0.1275 0.028,-0.2847 -0.056,-0.5374 -0.389,-1.1555 -1.377,-1.358 -2.329,-1.5518 l -0.226,-0.0474 c -0.522,-0.1091 -1.161,-0.1597 -1.895,-0.1535 1.317,-1.8693 1.635,-3.467 1.288,-4.2963 -0.215,-0.511 -0.817,-0.9783 -1.615,-1.2506 -1.636,-0.5593 -3.509,-0.1474 -5.014,1.1018 -0.784,0.6504 -2.857,2.1329 -5.256,3.8494 -0.094,0.0673 -0.189,0.1362 -0.284,0.2041 -2.518,0.4056 -9.326,1.1983 -11.956,1.3561 -2.682,0.16 -3.088,0.6901 -4.307,2.4267 -0.427,-0.1361 -1.749,-0.5673 -2.71,-0.9709 -0.732,-0.3088 -2.319,-0.3749 -3.679,0.7101 -0.577,0.4589 -1.629,1.4002 -2.848,2.4885 -1.496,1.3385 -3.188,2.8522 -4.301,3.733 -1.67,0.3511 -3.522,1.5189 -5.431,2.7891 -0.771,0.5132 -1.705,0.6341 -2.694,0.7652 -1.358,0.1767 -2.763,0.3604 -3.756,1.6109 -0.531,0.6727 -0.944,1.2212 -1.323,1.7237 -1.002,1.3336 -1.726,2.2965 -3.748,4.3199 -2.8234,2.8283 -10.983,14.4733 -12.8545,18.6862 -1.9793,4.4536 -6.7156,10.9902 -9.636,11.0963 -3.4684,0.1248 -4.2437,1.4272 -6.117,4.5736 l -0.074,0.1247 c -0.7116,1.1913 -2.6548,1.8442 -6.5292,3.1437 -1.0923,0.3651 -2.3388,0.785 -3.7565,1.2818 z"
       fill="#848998"
       id="path24" />
    <path
       d="m 156.262,20.2643 0.12,0.1597 -0.001,6e-4 z m 0.878,-0.6962 -0.128,-0.154 0.172,-0.1425 0.123,0.1864 z m 0.143,0.1735 -0.139,0.1438 -0.001,-8e-4 z m 0.232,0.1798 -0.106,0.1694 v -2e-4 z m 3.02,0.4014 0.014,0.1995 v 0 z m 0.383,-0.0209 -0.009,-0.1997 0.001,-10e-5 z m 2.771,-0.5715 -0.101,-0.1727 0.488,-0.2854 -0.2,0.5288 z m -6.632,3.6959 -0.031,-0.1975 v 0 z m -5.844,1.0079 0.038,0.1964 -0.712,0.1364 0.541,-0.4821 z m 10.852,-7.2251 -0.04,0.1959 v 0 z m 1.941,1.2029 -0.19,0.0642 v -5e-4 z m -0.01,0.3939 0.171,0.1025 -0.002,0.0041 z m -0.05,0.0857 0.174,0.0983 -0.006,0.0104 -0.007,0.0096 z m -3.114,0.9717 0.01,0.1998 h -0.002 z m -0.394,0.0192 -0.015,-0.1995 0.002,-10e-5 z m -2.859,-0.4177 0.131,-0.1509 0.001,0.0015 z m -0.129,-0.1628 -0.182,0.0843 -0.063,-0.1365 0.114,-0.0987 z m 2.184,-2.2766 -0.158,-0.1227 0.057,-0.0739 0.093,-0.0033 z m -7.536,12.948 -0.197,-0.0362 0.002,-0.0064 z m -0.021,0.0928 0.196,0.0394 -0.023,0.1171 -0.115,0.0348 z m -5.719,-0.9898 -0.083,0.1821 -0.257,-0.1171 0.196,-0.2037 z m 1.275,-1.2906 -0.141,-0.1422 0.08,-0.0792 0.109,0.0274 z m 0.588,5.2568 -0.033,0.1972 v 0 z m -4.403,-1.073 -0.066,0.1888 -0.264,-0.0924 0.173,-0.2201 z m 0.083,-0.1086 0.159,0.1214 -0.004,0.0051 z m 2.155,-2.4694 -0.145,-0.1375 0.1,-0.1066 0.132,0.0643 z m -4.595,8.2336 0.176,0.095 -0.001,5e-4 z m -2.684,1.1244 0.017,-0.1993 0.002,2e-4 z m -0.172,-0.0141 -0.016,0.1994 -0.358,-0.0291 0.213,-0.289 z m 2.572,-3.3815 -0.158,-0.1229 0.128,-0.1638 0.159,0.1336 z M 23.2075,86.6626 23.1649,86.4672 h 10e-5 z M 21,87.1797 l -0.1448,0.138 -0.2378,-0.2496 0.3347,-0.0826 z m 0.3639,0.3819 0.0478,0.1942 -0.1126,0.0277 -0.08,-0.084 z m 1.9966,-0.4664 0.0425,0.1954 -10e-5,1e-4 z m 40.2045,-10.6306 0.0662,0.1887 h -10e-5 z m 3.7513,-1.2806 -0.0636,-0.1896 z m 6.7195,-3.2979 0.1718,0.1023 v 0 z m 0.0745,-0.1252 -0.1718,-0.1024 v 0 z m 5.8159,-4.3987 0.0072,0.1998 h -1e-4 z m 9.9572,-11.3076 -0.1828,-0.0812 v 0 z m 12.7826,-18.5799 0.142,0.1413 v 0 z m 3.779,-4.3565 0.16,0.1201 v 2e-4 z m 1.319,-1.7164 0.157,0.1242 v 4e-4 z m 3.518,-1.4821 -0.026,-0.1983 v 0 z m 2.85,-0.822 0.111,0.1666 v 0 z m 4.306,-2.4325 -0.07,-0.1871 0.206,0.3344 z m -1.324,1.2815 0.142,0.1417 -0.001,2e-4 z m -4.435,3.4759 -0.075,-0.1856 v 0 z m -0.084,0.2832 -0.177,0.093 -0.001,-0.0011 z m 0.097,0.1043 0.107,-0.1692 v 3e-4 z m 0.2,0.0262 -0.076,-0.185 10e-4,-6e-4 z m 4.554,-3.553 0.141,0.1416 v 3e-4 z m 2.115,-1.9674 0.124,0.1568 v 2e-4 z m 4.343,-3.7683 0.133,0.1491 v 0 z m 2.833,-2.4772 0.125,0.1564 v 2e-4 z m 3.264,-0.6686 -0.077,0.1844 v -1e-4 z m 2.563,0.9262 0.062,-0.1901 0.264,0.0859 -0.165,0.2232 z m -2.761,3.1409 -0.146,-0.137 v -10e-5 z m -2.92,3.1964 0.151,0.1312 v 0 z m -6.704,6.1778 0.096,0.1751 -0.001,9e-4 z m -0.052,0.2934 -0.168,0.1092 -0.001,-0.0013 z m 0.085,0.0838 0.107,-0.169 v 1e-4 z m 0.219,0.016 0.097,0.1751 v 2e-4 z m 6.798,-6.2526 0.151,0.1311 v 0 z m 2.911,-3.1863 0.146,0.1372 v 0 z m 2.977,-3.4282 0.192,0.0554 -0.01,0.0322 -0.019,0.0274 z m 0.001,-0.0034 0.163,0.1157 -0.012,0.0158 -0.013,0.0133 z m 0.029,-0.0418 0.164,0.1149 -0.001,8e-4 z m 4.077,-2.3418 -0.012,-0.1996 v 0 z m 11.058,-1.2205 -0.028,-0.1979 0.145,0.3605 z m -7.471,5.544 -0.127,-0.1545 v -10e-5 z m -4.988,4.8657 -0.146,-0.1366 v -2e-4 z m -3.274,3.9046 0.156,0.1256 v 10e-5 z m -2.287,2.7565 -0.147,-0.1349 v -1e-4 z m -3.257,2.7369 0.085,0.1811 -0.002,0.0012 z m -0.069,0.2883 0.174,-0.0999 0.001,0.0016 z m 0.3,0.1161 -0.087,-0.1802 0.002,-9e-4 z m 3.368,-2.8164 0.148,0.1348 v 2e-4 z m 2.301,-2.7731 0.156,0.1255 v 10e-5 z m 3.257,-3.8849 -0.146,-0.1367 v 0 z m 4.956,-4.8346 0.127,0.1545 -0.001,1e-4 z m 8.221,-6.0802 0.117,0.1622 -10e-4,4e-4 z m 0.321,-0.23 0.116,0.1627 -0.001,0.001 z m 5.275,-3.8644 -0.128,-0.1539 v 0 z m 4.627,-1.0434 0.064,-0.1893 h 0.001 z m 1.295,0.9514 0.185,-0.0774 v 4e-4 z m -1.515,4.2487 0.159,0.1211 -0.009,0.0127 -0.012,0.011 z m -0.019,0.0266 0.179,0.0896 -0.008,0.017 -0.012,0.0151 z m -3.355,3.2219 -0.119,-0.1603 z m -5.679,4.7353 0.134,0.1482 -0.008,0.007 -0.008,0.0061 z m -0.031,0.0289 0.147,0.136 -0.006,0.0064 -0.006,0.0058 z m -2.859,2.6964 0.14,0.1426 -0.002,0.0022 z m -0.001,0.0011 -0.141,-0.1425 0.003,-0.0023 z m -3.859,4.2026 -0.159,-0.1215 v -10e-5 z m -1.423,1.83 0.157,0.1234 v 0 z m -8.213,11.6723 -0.177,-0.0918 v 0 z m -5.53,12.0241 0.189,0.0655 v 2e-4 z m -0.518,1.2874 0.183,0.0817 -0.016,0.0358 -0.029,0.0271 z m -0.001,0.0027 0.192,0.0555 -0.004,0.0138 -0.006,0.0131 z m -5.286,7.7672 -0.146,-0.1368 v -2e-4 z m 0.031,0.3119 -0.133,0.1489 -0.006,-0.0051 z m 0.045,0.0337 0.106,-0.1696 0.001,9e-4 z m 0.261,-0.0188 -0.147,-0.1355 0.002,-0.0015 z m 5.332,-7.8231 -0.182,-0.0828 0.02,-0.0428 0.036,-0.0296 z m 7.761,-3.6467 -0.05,-0.1937 v 0 z m 9.047,0.5117 -0.062,0.1903 v 0 z m 4.837,3.4766 -0.171,0.1039 v -4e-4 z m 0.303,0.8666 -0.194,-0.0466 v -0.0026 z m -7.386,1.8951 v 0.2 0 z m -8.908,4.4588 -0.155,-0.1254 v -2e-4 z m -1.159,1.4864 -0.158,-0.122 v -2e-4 z m -7.558,8.3901 -0.11,-0.167 v 0 z m -2.818,2.0472 0.122,0.159 v 1e-4 z m -8.225,4.4095 -0.043,-0.1954 v 0 z m -4.097,0.6706 -0.029,-0.198 h 0.001 z m -6.297,1.1697 -0.061,-0.1905 0.001,-1e-4 z m -24.6282,14.3614 0.1157,0.1632 h -1e-4 z m -3.7808,2.6319 -0.1094,-0.168 v 0 z m -26.4085,15.102 -0.1448,0.138 -0.1793,-0.188 0.2279,-0.125 z m 0.3332,0.35 0.0963,0.175 -0.1349,0.074 -0.1062,-0.111 z m 26.3503,-15.073 -0.1095,-0.167 3e-4,-10e-4 z m 3.7926,-2.638 -0.1158,-0.1631 1e-4,-1e-4 z m 24.5304,-14.3109 -0.061,-0.1906 v 0 z m 6.234,-1.1564 -0.029,-0.1979 v 0 z m 4.123,-0.6765 -0.042,-0.1954 v 0 z m 8.369,-4.4735 0.122,0.1588 -0.001,3e-4 z m 2.799,-2.034 -0.111,-0.167 v 0 z m 7.642,-8.4683 0.159,0.1221 v 0 z m 1.154,-1.48 0.156,0.1256 v 0 z m 8.618,-4.3276 v 0.2 h -0.001 z m 7.747,-2.1699 -0.195,-0.0469 0.001,-8e-4 z m -0.365,-1.2166 0.171,-0.1038 v 4e-4 z m -5.13,-3.7089 -0.061,0.1902 v 0 z m -9.286,-0.5228 -0.05,-0.1937 v 0 z m -7.23,3.2197 0.113,0.1646 -0.537,0.371 0.237,-0.6082 z m 0.188,-0.5061 0.189,0.0655 v 8e-4 z m 5.508,-11.9758 -0.178,-0.0917 v -1e-4 z m 4.002,-6.1607 -0.161,-0.118 0.073,-0.1008 0.123,0.022 z m 0.021,0.0062 v 0.2001 l -0.005,-10e-5 z m 0.484,0.0331 0.018,-0.1992 0.001,1e-4 z m 3.047,-1.3087 0.176,0.0953 v 10e-5 z m 0.246,-1.8672 0.19,-0.0629 v 6e-4 z m -0.673,-0.9788 -0.128,0.153 -0.148,-0.1241 0.119,-0.1519 z m 1.05,-1.341 -0.158,-0.1233 v -1e-4 z m 1.075,-1.375 -0.158,-0.1225 0.09,-0.1168 0.138,0.0522 z m 4.667,1.1598 -0.033,0.1972 v 0 z m 4.31,-3.3494 0.196,0.0418 v 10e-5 z m -0.127,-0.5133 -0.166,0.112 v -3e-4 z m -4.416,-2.1715 -0.055,0.1923 -0.331,-0.0947 0.247,-0.2407 z m 2.574,-2.4197 -0.134,-0.148 0.041,-0.0371 0.054,-0.0109 z m 6.631,-1.1614 -0.032,-0.1975 v 0 z m 7.071,-4.4822 0.197,0.0333 v 0.0021 z m 0.089,-0.2489 -0.174,-0.0978 0.003,-0.0063 0.004,-0.006 z m 0.106,-0.1733 0.179,0.0896 -0.002,0.0031 z m 0.02,-0.0889 -0.2,0.0107 -0.002,-0.0319 0.008,-0.0308 z m -0.056,-0.5374 0.189,-0.0638 v 10e-5 z m -2.329,-1.5518 -0.04,0.196 -0.002,-3e-4 z m -0.226,-0.0474 0.041,-0.1958 0.001,10e-5 z m -1.895,-0.1535 0.002,0.2 -0.39,0.0033 0.225,-0.3185 z m 1.288,-4.2963 -0.185,0.0774 v -10e-5 z m -1.615,-1.2506 -0.064,0.1892 v 0 z m -5.014,1.1018 0.128,0.1539 v 0 z m -5.256,3.8494 -0.117,-0.1625 0.001,-10e-5 z m -0.284,0.2041 0.117,0.1624 -0.039,0.0275 -0.046,0.0075 z m -11.956,1.3561 0.012,0.1997 v 0 z m -4.307,2.4267 0.164,0.1149 -0.084,0.1203 -0.14,-0.0447 z m -2.71,-0.9709 -0.077,0.1843 v -10e-5 z m -3.679,0.7101 0.124,0.1564 v 10e-5 z m -2.848,2.4885 -0.133,-0.149 v -2e-4 z m -4.301,3.733 0.124,0.1569 -0.037,0.0292 -0.046,0.0097 z m -5.431,2.7891 -0.111,-0.1664 v -10e-5 z m -2.694,0.7652 0.026,0.1982 v 10e-5 z m -3.756,1.6109 -0.157,-0.124 10e-4,-4e-4 z m -1.323,1.7237 -0.16,-0.1201 v -3e-4 z m -3.748,4.3199 -0.142,-0.1413 v -10e-5 z m -12.8545,18.6862 0.1828,0.0812 -1e-4,10e-5 z m -9.636,11.0963 0.0072,0.1998 v 0 z m -6.117,4.5736 -0.172,-0.1021 2e-4,-2e-4 z m -0.074,0.1247 0.172,0.1021 -3e-4,4e-4 z m -6.5292,3.1437 0.0635,0.1896 -1e-4,1e-4 z m 89.0177,-54.659 c 0.306,-0.2307 0.593,-0.4602 0.871,-0.6905 l 0.255,0.3079 c -0.281,0.2334 -0.573,0.4668 -0.885,0.702 z m 1.166,-0.6466 c 0.031,0.0468 0.065,0.0912 0.116,0.1406 l -0.28,0.286 c -0.073,-0.0715 -0.126,-0.1384 -0.17,-0.2064 z m 0.115,0.1399 c 0.056,0.054 0.123,0.1055 0.2,0.1543 l -0.213,0.3384 c -0.097,-0.061 -0.186,-0.129 -0.265,-0.2052 z m 0.2,0.1541 c 0.526,0.3301 1.482,0.4718 2.899,0.3713 l 0.028,0.399 c -1.428,0.1013 -2.498,-0.0287 -3.14,-0.4315 z m 2.898,0.3713 c 0.114,-0.0082 0.247,-0.0142 0.389,-0.0211 l 0.019,0.3995 c -0.144,0.007 -0.271,0.0128 -0.379,0.0206 z m 0.39,-0.0212 c 0.796,-0.0353 1.906,-0.0928 2.678,-0.5444 l 0.202,0.3453 c -0.873,0.5107 -2.09,0.5644 -2.863,0.5987 z m 2.966,-0.301 c -0.453,1.1998 -1.955,3.0503 -6.787,3.8226 l -0.063,-0.3949 c 4.745,-0.7585 6.09,-2.5481 6.476,-3.5692 z m -6.787,3.8226 c -2.926,0.4685 -4.835,0.8146 -5.838,1.0069 l -0.076,-0.3928 c 1.008,-0.1933 2.921,-0.54 5.851,-1.009 z m -6.009,0.6612 c 1.73,-1.5429 3.504,-3.0184 5.062,-4.1809 l 0.239,0.3206 c -1.546,1.1536 -3.31,2.6211 -5.035,4.1589 z m 10.8,-7.318 0.225,0.0463 -0.08,0.3918 -0.225,-0.0462 z m 0.225,0.0462 c 0.506,0.1031 0.951,0.2021 1.303,0.3896 0.368,0.1953 0.632,0.484 0.787,0.9456 l -0.379,0.1274 c -0.122,-0.3633 -0.317,-0.5719 -0.595,-0.7198 -0.293,-0.1557 -0.68,-0.2456 -1.196,-0.3509 z m 2.09,1.3347 c 0.041,0.1214 0.069,0.2261 0.061,0.3249 -0.008,0.1083 -0.059,0.1861 -0.089,0.2357 l -0.343,-0.2051 c 0.019,-0.0317 0.026,-0.0447 0.031,-0.0555 0.002,-0.0039 0.002,-0.0056 0.003,-0.0058 0,-10e-5 0,-2e-4 0,-0.0011 0,-0.009 -0.001,-0.0442 -0.042,-0.1647 z m -0.03,0.5647 c -0.013,0.0196 -0.026,0.044 -0.045,0.0774 l -0.349,-0.1965 c 0.018,-0.0305 0.037,-0.0645 0.055,-0.0941 z m -0.058,0.0974 c -0.357,0.4877 -0.959,0.734 -1.556,0.8677 -0.601,0.1348 -1.24,0.1638 -1.709,0.1855 l -0.019,-0.3996 c 0.475,-0.0219 1.079,-0.0503 1.641,-0.1762 0.567,-0.1271 1.05,-0.3448 1.32,-0.7139 z m -3.267,1.0532 c -0.146,0.006 -0.278,0.0122 -0.39,0.019 l -0.025,-0.3992 c 0.117,-0.0071 0.252,-0.0134 0.399,-0.0194 z m -0.388,0.0189 c -1.938,0.1395 -2.702,-0.1974 -3.006,-0.4677 l 0.265,-0.2989 c 0.18,0.1598 0.805,0.5049 2.712,0.3676 z m -3.005,-0.4662 c -0.095,-0.083 -0.148,-0.1638 -0.179,-0.2295 l 0.363,-0.1685 c 0.008,0.0162 0.027,0.0511 0.079,0.0961 z m -0.128,-0.4647 c 0.883,-0.7679 1.596,-1.5261 2.157,-2.2484 l 0.315,0.2453 c -0.578,0.7447 -1.308,1.5216 -2.21,2.305 z m 2.307,-2.3256 c 0.888,-0.0314 1.65,0.0136 2.255,0.1417 l -0.082,0.3913 c -0.562,-0.1189 -1.289,-0.164 -2.158,-0.1332 z m -7.41,12.885 c 0.041,0.0612 0.067,0.1187 0.078,0.1748 0.013,0.062 0.005,0.1075 0,0.1307 l -0.391,-0.0852 c 0,-0.0016 0,5e-4 -0.001,0.0034 0,0.0032 -10e-4,0.0071 -10e-4,0.0114 0,0.0089 0,0.0158 10e-4,0.0199 0.002,0.0072 0.001,-0.0031 -0.02,-0.035 z m 0.079,0.2991 c -0.004,0.0201 -0.009,0.041 -0.013,0.0557 -0.004,0.0169 -0.007,0.0291 -0.009,0.0403 l -0.392,-0.0788 c 0.004,-0.0208 0.009,-0.0416 0.013,-0.0563 0.004,-0.0171 0.006,-0.0265 0.007,-0.0333 z m -0.16,0.2479 c -1.046,0.3189 -2.331,0.1459 -3.426,-0.1361 -1.102,-0.2838 -2.048,-0.6875 -2.434,-0.8629 l 0.166,-0.3641 c 0.375,0.1705 1.297,0.5639 2.368,0.8396 1.078,0.2776 2.272,0.4264 3.21,0.1409 z m -5.921,-1.3198 c 0.403,-0.4181 0.831,-0.8522 1.278,-1.2941 l 0.281,0.2844 c -0.445,0.4398 -0.871,0.8715 -1.271,1.2871 z m 1.467,-1.3459 c 0.673,0.1687 1.669,0.5058 2.557,0.8891 0.444,0.1917 0.866,0.3969 1.209,0.6005 0.335,0.1989 0.623,0.412 0.768,0.6272 l -0.331,0.2238 c -0.092,-0.1353 -0.31,-0.3104 -0.641,-0.507 -0.323,-0.1918 -0.728,-0.3893 -1.163,-0.5772 -0.872,-0.376 -1.848,-0.7057 -2.496,-0.8684 z m 4.441,3.0477 c -0.191,0.5696 -0.54,1.3234 -1.161,1.8844 -0.631,0.5689 -1.527,0.9267 -2.773,0.7159 l 0.067,-0.3944 c 1.124,0.1903 1.898,-0.131 2.438,-0.6184 0.548,-0.4954 0.869,-1.1753 1.049,-1.7142 z m -3.934,2.6003 c -2.364,-0.4001 -3.909,-0.8973 -4.436,-1.0814 l 0.132,-0.3776 c 0.509,0.1778 2.032,0.6688 4.371,1.0646 z m -4.527,-1.3939 c 0.011,-0.0147 0.023,-0.0309 0.038,-0.0507 0.014,-0.0185 0.03,-0.0403 0.047,-0.0607 l 0.31,0.253 c -0.011,0.0129 -0.022,0.0283 -0.036,0.0471 -0.013,0.0175 -0.029,0.039 -0.045,0.0587 z m 0.081,-0.1062 c 0.536,-0.7021 1.286,-1.5534 2.169,-2.4856 l 0.29,0.275 c -0.878,0.928 -1.618,1.7675 -2.141,2.4532 z m 2.401,-2.5279 c 0.137,0.0665 1.003,0.4811 2.126,0.8174 1.129,0.3382 2.488,0.5878 3.622,0.3512 l 0.082,0.3915 c -1.235,0.2576 -2.673,-0.0162 -3.819,-0.3595 -1.152,-0.345 -2.039,-0.7698 -2.186,-0.841 z m -4.269,6.8161 c 0.175,0.5304 0.08,1.1041 -0.237,1.6923 l -0.352,-0.19 c 0.282,-0.5225 0.34,-0.9804 0.209,-1.3769 z m -0.238,1.6928 c -0.38,0.7008 -0.875,1.039 -1.402,1.1816 -0.512,0.1388 -1.041,0.0872 -1.475,0.0464 l 0.037,-0.3982 c 0.446,0.0418 0.902,0.0825 1.334,-0.0343 0.417,-0.113 0.825,-0.3783 1.155,-0.9865 z m -2.875,1.2282 c -0.061,-0.005 -0.116,-0.0095 -0.172,-0.014 l 0.032,-0.3987 c 0.056,0.0045 0.112,0.0091 0.173,0.0141 z m -0.317,-0.3321 c 0.869,-1.178 1.753,-2.3295 2.575,-3.3857 l 0.316,0.2458 c -0.822,1.0547 -1.703,2.2032 -2.569,3.3773 z m 2.862,-3.4159 c 0.218,0.1834 0.449,0.4651 0.568,0.8271 l -0.38,0.1252 c -0.091,-0.2768 -0.271,-0.4995 -0.446,-0.6461 z M 63.433,76.2341 c -6.2679,2.1984 -30.3068,8.4785 -40.1831,10.624 L 23.165,86.4672 C 33.0361,84.3229 57.0561,78.0469 63.3006,75.8567 Z M 23.2501,86.858 c -0.686,0.1495 -1.4279,0.3249 -2.2022,0.5159 l -0.0958,-0.3884 c 0.7765,-0.1915 1.5222,-0.3678 2.2128,-0.5183 z m -2.1053,0.1837 0.3639,0.3819 -0.2896,0.2759 -0.3639,-0.3818 z m 0.1713,0.3256 c 0.6974,-0.1715 1.3727,-0.3311 2.0021,-0.4676 l 0.0847,0.391 c -0.6245,0.1353 -1.2958,0.294 -1.9912,0.4651 z m 2.002,-0.4675 c 9.879,-2.147 33.9253,-8.4308 40.1807,-10.624 l 0.1323,0.3775 C 57.3524,78.8546 33.2872,85.1425 23.403,87.2906 Z M 63.4987,76.2759 c 1.4168,-0.4976 2.6636,-0.9157 3.754,-1.2815 l 0.1272,0.3792 c -1.0905,0.3659 -2.3348,0.7831 -3.7487,1.2797 z m 3.754,-1.2815 c 1.9828,-0.6653 3.4566,-1.1601 4.533,-1.6503 1.077,-0.4904 1.7215,-0.9617 2.0782,-1.5604 l 0.3437,0.2047 c -0.4203,0.7054 -1.1569,1.2192 -2.2561,1.7198 -1.0998,0.5008 -2.5973,1.0029 -4.5716,1.6654 z m 6.6112,-3.2107 0.0746,-0.1252 0.3436,0.2047 -0.0745,0.1252 z m 0.0746,-0.1252 c 0.9216,-1.5467 1.5771,-2.6517 2.4217,-3.3736 0.8611,-0.7361 1.9018,-1.0635 3.5589,-1.1226 l 0.0142,0.3997 c -1.6075,0.0574 -2.5465,0.3715 -3.3132,1.0269 -0.7831,0.6694 -1.4032,1.7056 -2.338,3.2743 z m 5.9804,-4.4962 c 0.7705,-0.0279 1.6577,-0.4682 2.5982,-1.2133 0.9354,-0.7411 1.8988,-1.7639 2.8186,-2.9136 1.8398,-2.2997 3.4853,-5.0817 4.3649,-7.062 l 0.3656,0.1624 c -0.894,2.0125 -2.5575,4.8238 -4.4181,7.1494 -0.9305,1.163 -1.9151,2.2108 -2.8826,2.9773 -0.9624,0.7625 -1.933,1.2669 -2.8321,1.2995 z m 9.7817,-11.1889 c 0.9393,-2.1144 3.4434,-6.0711 6.0543,-9.8396 2.6109,-3.7684 5.3511,-7.3805 6.7701,-8.8005 l 0.283,0.2827 c -1.39,1.391 -4.1113,4.9742 -6.7243,8.7456 -2.6129,3.7713 -5.0957,7.6991 -6.0175,9.7742 z M 102.525,37.3333 c 2.029,-2.0321 2.79,-3.0463 3.76,-4.3353 l 0.32,0.2405 c -0.977,1.2977 -1.75,2.3276 -3.797,4.3775 z m 3.76,-4.3351 c 0.377,-0.5017 0.789,-1.0501 1.323,-1.721 l 0.313,0.2492 c -0.531,0.6661 -0.94,1.2105 -1.316,1.7119 z m 1.323,-1.7207 c 0.96,-1.2106 2.316,-1.3813 3.648,-1.5561 l 0.052,0.3966 c -1.357,0.1781 -2.542,0.3425 -3.387,1.408 z m 3.648,-1.5561 c 0.997,-0.1299 1.969,-0.2613 2.765,-0.7902 l 0.222,0.3331 c -0.887,0.5891 -1.956,0.7262 -2.936,0.8537 z m 2.765,-0.7902 c 1.498,-0.9959 2.976,-1.9364 4.347,-2.4531 l 0.141,0.3743 c -1.322,0.4983 -2.764,1.4129 -4.266,2.4119 z m 4.553,-2.1187 c -0.429,0.3944 -0.864,0.8231 -1.318,1.2759 l -0.283,-0.2834 c 0.455,-0.4528 0.894,-0.8867 1.33,-1.2871 z m -1.319,1.2761 c -1.395,1.3876 -2.876,2.8667 -4.502,3.5196 l -0.149,-0.3712 c 1.535,-0.6163 2.955,-2.0263 4.369,-3.4321 z m -4.501,3.5195 c 0.002,-0.001 0.006,-0.0033 0.009,-0.0068 0.003,-0.0033 0.004,-0.006 0.004,-0.0069 0.001,-0.0019 -0.002,0.0051 0.005,0.0195 l -0.355,0.1838 c -0.1,-0.1944 -0.051,-0.4648 0.187,-0.5607 z m 0.018,0.0048 c 0.005,0.0103 0.014,0.02 0.027,0.028 l -0.214,0.3383 c -0.066,-0.042 -0.126,-0.1022 -0.167,-0.1804 z m 0.027,0.0283 c 0.009,0.0056 0.017,0.0078 0.021,0.0084 0.003,5e-4 0.001,-6e-4 -0.004,0.0017 l 0.152,0.3699 c -0.138,0.0569 -0.282,0.0219 -0.383,-0.0423 z m 0.018,0.0095 c 1.602,-0.644 3.049,-2.0802 4.488,-3.5093 l 0.282,0.2838 c -1.422,1.4118 -2.928,2.9163 -4.62,3.5966 z m 4.487,-3.5089 c 0.735,-0.7336 1.441,-1.4361 2.133,-1.9828 l 0.248,0.3139 c -0.67,0.5295 -1.359,1.2143 -2.098,1.952 z m 2.132,-1.9826 c 1.112,-0.8804 2.821,-2.4068 4.335,-3.7607 l 0.266,0.2982 c -1.51,1.3503 -3.229,2.8864 -4.352,3.776 z m 4.334,-3.7606 c 1.162,-1.0392 2.267,-2.0273 2.843,-2.4847 l 0.249,0.3131 c -0.564,0.4481 -1.658,1.4257 -2.825,2.4697 z m 2.842,-2.4845 c 1.281,-1.0214 2.789,-0.9824 3.467,-0.6966 l -0.155,0.3686 c -0.547,-0.2304 -1.899,-0.2871 -3.062,0.6407 z m 3.467,-0.6967 c 0.856,0.3601 1.993,0.7399 2.547,0.9205 l -0.124,0.3803 c -0.554,-0.1805 -1.705,-0.5649 -2.578,-0.932 z m 2.646,1.2296 c -0.72,0.9739 -1.643,1.9558 -2.776,3.1591 l -0.292,-0.2743 c 1.139,-1.2081 2.043,-2.1717 2.746,-3.1227 z m -2.776,3.159 c -0.865,0.9186 -1.842,1.9553 -2.915,3.1905 l -0.302,-0.2624 c 1.079,-1.242 2.061,-2.2841 2.925,-3.2022 z m -2.915,3.1905 c -2.421,2.7848 -4.342,4.8883 -6.759,6.2217 l -0.193,-0.3502 c 2.345,-1.2939 4.223,-3.3416 6.65,-6.1339 z m -6.76,6.2226 c 0.004,-0.0021 0.008,-0.0055 0.01,-0.0094 0.003,-0.0036 0.003,-0.0059 0.003,-0.0057 0,8e-4 -0.001,0.0104 0.008,0.0247 l -0.337,0.2157 c -0.114,-0.1789 -0.101,-0.4552 0.126,-0.5774 z m 0.02,0.0083 c 0.006,0.0093 0.016,0.0181 0.025,0.0239 l -0.214,0.3381 c -0.055,-0.0345 -0.106,-0.0831 -0.146,-0.1437 z m 0.025,0.024 c 0.009,0.006 0.017,0.0075 0.02,0.0078 0.002,2e-4 0,-5e-4 -0.004,0.0018 l 0.193,0.3506 c -0.145,0.0792 -0.307,0.0516 -0.423,-0.0223 z m 0.016,0.0098 c 2.396,-1.3214 4.294,-3.3892 6.743,-6.2087 l 0.302,0.2623 c -2.443,2.8126 -4.385,4.9358 -6.852,6.2966 z m 6.743,-6.2086 c 1.075,-1.2374 2.055,-2.2779 2.917,-3.1923 l 0.291,0.2743 c -0.862,0.9146 -1.837,1.9498 -2.906,3.1802 z m 2.917,-3.1923 c 1.246,-1.3239 2.218,-2.354 2.958,-3.4061 l 0.327,0.23 c -0.759,1.0805 -1.754,2.1331 -2.994,3.4504 z m 2.929,-3.3465 c -0.006,0.0223 -0.009,0.0602 -0.006,0.0335 0.001,-0.0117 0.004,-0.036 0.017,-0.064 0.013,-0.0281 0.03,-0.0485 0.045,-0.0623 l 0.276,0.2896 c 0.013,-0.0133 0.03,-0.0332 0.043,-0.0608 0.012,-0.0276 0.016,-0.0514 0.017,-0.0626 0.002,-0.0257 0,0.0134 -0.007,0.0374 z m 0.03,-0.0637 0.03,-0.0419 0.326,0.2315 -0.029,0.0418 z m 0.03,-0.0411 c 0.613,-0.8737 1.021,-1.4609 1.609,-1.8321 0.593,-0.3748 1.347,-0.5185 2.619,-0.5943 l 0.024,0.3993 c -1.267,0.0755 -1.93,0.2175 -2.43,0.5332 -0.505,0.3192 -0.866,0.8273 -1.495,1.7238 z m 4.228,-2.4264 c 2.353,-0.1399 8.054,-0.7911 11.042,-1.2188 l 0.057,0.3959 c -2.993,0.4284 -8.706,1.0814 -11.075,1.2222 z m 11.187,-0.8583 c -2.838,2.0333 -5.807,4.1791 -7.461,5.5361 l -0.254,-0.3093 c 1.667,-1.3671 4.647,-3.5214 7.482,-5.5519 z m -7.461,5.536 c -1.158,0.9506 -3.015,2.7629 -4.969,4.8479 l -0.292,-0.2736 c 1.957,-2.0884 3.829,-3.916 5.007,-4.8834 z m -4.969,4.8477 c -0.894,0.9553 -2.149,2.5113 -3.264,3.8936 l -0.312,-0.2512 c 1.112,-1.3773 2.378,-2.9471 3.284,-3.9156 z m -3.264,3.8937 c -0.895,1.1084 -1.746,2.1655 -2.295,2.7658 l -0.295,-0.27 c 0.538,-0.5887 1.379,-1.633 2.279,-2.7471 z m -2.295,2.7657 c -1.524,1.6682 -2.124,2.2221 -3.32,2.7831 l -0.17,-0.3621 c 1.12,-0.5253 1.675,-1.0278 3.195,-2.6908 z m -3.322,2.7843 c 0.003,-0.0015 0.007,-0.0044 0.01,-0.0086 0.003,-0.004 0.004,-0.0071 0.005,-0.008 0,-0.0015 -0.002,0.007 0.007,0.0227 l -0.347,0.1998 c -0.107,-0.1862 -0.079,-0.4627 0.16,-0.5705 z m 0.023,0.0077 c 0.008,0.015 0.022,0.0256 0.033,0.0302 0.012,0.0047 0.013,3e-4 0.005,0.004 l 0.173,0.3604 c -0.218,0.1054 -0.458,-0.0178 -0.56,-0.198 z m 0.04,0.0333 c 1.168,-0.5467 1.774,-1.0955 3.306,-2.7702 l 0.295,0.2699 c -1.537,1.6806 -2.188,2.2804 -3.432,2.8625 z m 3.306,-2.7701 c 0.545,-0.5975 1.39,-1.6457 2.292,-2.764 l 0.312,0.2513 c -0.899,1.1129 -1.753,2.1735 -2.309,2.7823 z m 2.292,-2.7639 c 1.107,-1.3731 2.369,-2.9376 3.267,-3.896 l 0.292,0.2735 c -0.886,0.9449 -2.136,2.4954 -3.247,3.8736 z m 3.267,-3.896 c 1.948,-2.0795 3.808,-3.8948 4.975,-4.8525 l 0.253,0.3092 c -1.146,0.9408 -2.991,2.7408 -4.936,4.8168 z m 4.975,-4.8524 c 1.808,-1.4862 5.185,-3.9099 8.231,-6.0884 l 0.233,0.3253 c -3.051,2.1822 -6.415,4.5965 -8.21,6.0721 z m 8.231,-6.088 c 0.105,-0.0762 0.214,-0.1547 0.323,-0.2314 l 0.23,0.3274 c -0.107,0.0749 -0.213,0.1516 -0.319,0.2285 z m 0.322,-0.2303 c 2.408,-1.724 4.476,-3.2023 5.263,-3.8557 l 0.255,0.3077 c -0.801,0.6654 -2.886,2.1558 -5.286,3.8733 z m 5.263,-3.8557 c 2.153,-1.7868 4.223,-1.2819 4.819,-1.0788 l -0.128,0.3786 c -0.527,-0.1793 -2.432,-0.6548 -4.436,1.008 z m 4.82,-1.0788 c 0.333,0.1141 0.638,0.2704 0.882,0.4495 0.241,0.1767 0.437,0.3866 0.533,0.6138 l -0.369,0.1548 c -0.056,-0.1342 -0.19,-0.2917 -0.401,-0.4462 -0.207,-0.1521 -0.474,-0.2908 -0.775,-0.3934 z m 1.415,1.0637 c 0.154,0.3689 0.146,0.98 -0.078,1.7299 -0.226,0.7596 -0.681,1.6901 -1.463,2.7169 l -0.318,-0.2423 c 0.757,-0.9946 1.188,-1.8825 1.398,-2.5888 0.213,-0.7161 0.193,-1.2187 0.092,-1.4616 z m -1.562,4.4705 c 0.015,-0.0137 0.021,-0.0263 0.022,-0.0286 l -0.357,-0.1792 c 0.01,-0.0212 0.028,-0.0524 0.059,-0.0818 z m 0.002,0.0035 c -0.779,1.016 -1.872,2.1242 -3.394,3.2604 l -0.239,-0.3205 c 1.495,-1.1166 2.562,-2.1994 3.316,-3.1833 z m -3.394,3.2604 c -1.735,1.2953 -3.743,2.9828 -5.665,4.7233 l -0.269,-0.2965 c 1.928,-1.7461 3.947,-3.4423 5.695,-4.7473 z m -5.681,4.7364 c 0.004,-0.0034 0.007,-0.0058 0.006,-0.0053 0,3e-4 -0.001,0.001 -0.002,0.0026 -0.002,0.0016 -0.003,0.0034 -0.006,0.0063 l -0.293,-0.2721 c 0.007,-0.0076 0.029,-0.0327 0.058,-0.0542 z m -0.014,0.0158 c -0.992,0.8982 -1.96,1.8109 -2.854,2.6908 l -0.28,-0.2851 c 0.898,-0.884 1.87,-1.8005 2.865,-2.7021 z m -2.856,2.693 c 0,0 0,0 0,0 0,0 0,0 0,0 0,0 0,0 0,10e-5 0,0 0,0 0,0 0,0 0,0 0,0 v 0 c 0,0 0,0 0,0 0,0 0,0 0,0 0,0 0,0 0,0 0,0 0,0 0,0 v 0 10e-5 c 0,0 0,0 0,0 0,0 0,0 0,0 0,0 0,0 0,0 0,0 0,0 0,0 v 0 c 0,0 0,0 0,0 v 0 c 0,0 0,0 0,0 v 0 c 0,10e-5 0,10e-5 0,10e-5 0,0 0,0 0,0 0,0 0,0 0,0 0,0 0,0 0,0 0,0 0,0 0,0 0,0 0,0 0,0 0,0 0,0 0,0 v 0 c 0,0 0,0 0,0 v 10e-5 c 0,0 0,0 0,0 0,0 0,0 0,0 v 0 0 0 0 h -0.001 c 0,0 0,0 0,0 0,0 0,0 0,0 v 10e-5 c 0,0 0,0 0,0 v 0 c 0,0 0,0 0,0 0,0 0,0 0,0 v 0 c 0,0 0,0 0,0 0,0 0,0 0,0 0,0 0,0 0,0 v 10e-5 0 c 0,0 0,0 0,0 0,0 0,0 0,0 0,0 0,0 0,0 v 0 c 0,0 0,0 0,0 0,0 0,0 0,0 v 0 c 0,0 0,0 0,0 v 10e-5 c 0,0 0,0 0,0 0,0 0,0 0,0 v 0 0 0 0 0 c 0,0 0,0 0,0 0,0 0,0 0,10e-5 v 0 c 0,0 0,0 0,0 v 0 c 0,0 0,0 0,0 0,0 0,0 0,0 0,0 0,0 0,0 0,0 0,0 0,0 0,0 0,0 0,0 0,0 0,0 0,0 0,0 0,0 0,10e-5 v 0 c 0,0 0,0 0,0 v 0 c 0,0 0,0 0,0 v 0 c 0,0 0,0 0,0 0,0 0,0 0,0 0,0 0,0 0,0 0,10e-5 0,10e-5 0,10e-5 v 0 0 c 0,0 0,0 0,0 0,0 0,0 0,0 0,0 0,0 0,0 0,0 0,0 0,0 v 0 c 0,0 0,0 0,0 0,0 0,0 0,0 0,10e-5 0,10e-5 0,10e-5 0,0 0,0 0,0 0,0 0,0 0,0 l -0.276,-0.2896 c 0,0 0,0 0,0 0,0 0,0 0,0 0,0 0,0 0,0 0,0 0,0 0,0 0,0 0,0 0,-10e-5 v 0 c 0,0 0,0 0,0 0,0 0,0 0,0 0,0 0,0 0,0 0,0 0,0 0,0 v 0 0 c 0,0 0,0 0,0 0,0 0,0 0,0 0,0 0,0 0,-10e-5 0,0 0,0 0,0 v 0 c 0,0 0,0 0,0 v 0 c 0,0 0,0 0,0 v 0 c 0,0 0,0 0,0 0,0 0,0 0,0 0,0 0,0 0,-10e-5 0,0 0,0 0,0 0,0 0,0 0,0 0,0 0,0 0,0 0,0 0,0 0,0 v 0 c 0,0 0,0 0,0 v 0 c 0,0 0,0 0,0 0,0 0,0 0,0 v -10e-5 0 0 0 0 c 0,0 0,0 0,0 0,0 0,0 0,0 v 0 c 0,0 0,0 0,0 v -10e-5 c 0,0 0,0 0,0 0,0 0,0 0,0 v 0 c 0,0 0,0 0,0 0,0 0,0 0,0 0,0 0,0 0,0 v 0 0 c 0,0 0,0 0,0 0,-10e-5 0,-10e-5 0,-10e-5 0,0 0,0 0,0 v 0 c 0,0 0,0 0,0 0,0 0,0 0,0 v 0 c 0.001,0 0.001,0 0.001,0 v 0 c 0,0 0,0 0,0 0,-10e-5 0,-10e-5 0,-10e-5 v 0 0 0 0 0 c 0,0 0,0 0,0 0,0 0,0 0,0 v 0 c 0,0 0,0 0,0 v -10e-5 c 0,0 0,0 0,0 0,0 0,0 0,0 0,0 0,0 0,0 0,0 0,0 0,0 0,0 0,0 0,0 0,0 0,0 0,0 0,0 0,0 0,0 v 0 c 0,-10e-5 0,-10e-5 0,-10e-5 v 0 c 0,0 0,0 0,0 v 0 c 0,0 0,0 0,0 0,0 0,0 0,0 0,0 0,0 0,0 0,0 0,0 0,0 v 0 0 c 0,-10e-5 0,-10e-5 0,-10e-5 0,0 0,0 0,0 0,0 0,0 0,0 0,0 0,0 0,0 v 0 c 0,0 0,0 0,0 0,0 0,0 0,0 0,0 0,0 0,0 0,0 0,0 0,0 0,-10e-5 0,-10e-5 0,-10e-5 z m 0.001,-0.0012 c -1.623,1.5987 -3.001,3.0859 -3.84,4.1817 l -0.318,-0.2432 c 0.857,-1.1181 2.25,-2.6206 3.878,-4.2235 z m -3.84,4.1816 c -0.387,0.5052 -0.872,1.127 -1.425,1.8319 l -0.314,-0.2468 c 0.552,-0.705 1.036,-1.325 1.421,-1.8281 z m -1.425,1.8319 c -2.553,3.2555 -6.389,8.1513 -8.192,11.6406 l -0.355,-0.1835 c 1.824,-3.5308 5.689,-8.4606 8.233,-11.7039 z m -8.192,11.6406 c -1.549,3.0002 -4.319,8.5327 -5.519,11.9979 l -0.378,-0.1309 c 1.211,-3.497 3.995,-9.0552 5.542,-12.0505 z m -5.519,11.9981 c -0.148,0.4265 -0.327,0.862 -0.524,1.3034 l -0.365,-0.1634 c 0.194,-0.4342 0.368,-0.8586 0.511,-1.2713 z m -0.707,1.2217 c 0.138,0.1446 0.138,0.1446 0.139,0.1445 0,0 0,0 0,0 0,-1e-4 0,-1e-4 0,-2e-4 0,-1e-4 0,-2e-4 0,-3e-4 0,-2e-4 0.001,-4e-4 0.001,-6e-4 0,-5e-4 10e-4,-9e-4 10e-4,-0.0014 0.001,-9e-4 0.002,-0.0018 0.003,-0.0028 0.002,-0.0019 0.004,-0.004 0.006,-0.0063 0.004,-0.0045 0.008,-0.01 0.013,-0.0164 0.009,-0.0123 0.02,-0.0318 0.028,-0.0583 l -0.384,-0.1109 c 0.008,-0.0282 0.02,-0.0491 0.03,-0.0623 0.005,-0.007 0.009,-0.0128 0.014,-0.0176 0.002,-0.0024 0.004,-0.0046 0.006,-0.0066 10e-4,-10e-4 0.002,-0.0019 0.002,-0.0028 0.001,-5e-4 0.001,-9e-4 0.002,-0.0014 0,-2e-4 0,-4e-4 0.001,-6e-4 0,-1e-4 0,-2e-4 0,-3e-4 0,-10e-5 0,-10e-5 0,-2e-4 0,0 0,-10e-5 0,-10e-5 0,0 0,-1e-4 0.138,0.1446 z m 0.181,0.0851 c -1.287,2.8465 -3.548,5.9338 -5.323,7.8218 l -0.291,-0.274 c 1.751,-1.8633 3.984,-4.9146 5.249,-7.7126 z m -5.323,7.8217 c 0.007,-0.0074 0.005,-0.0122 0.005,-0.0047 10e-4,0.0078 0.006,0.0221 0.02,0.036 l -0.278,0.2875 c -0.151,-0.1465 -0.208,-0.4115 -0.038,-0.5925 z m 0.02,0.0262 c 0.006,0.0053 0.011,0.0092 0.017,0.0129 l -0.212,0.3393 c -0.025,-0.0158 -0.049,-0.0336 -0.072,-0.0546 z m 0.018,0.0138 c 0.012,0.0071 0.019,0.0072 0.02,0.0071 0,0 -0.002,1e-4 -0.005,0.0014 -0.003,0.0014 -0.006,0.0036 -0.008,0.0059 l 0.294,0.271 c -0.145,0.1578 -0.366,0.1473 -0.515,0.0521 z m 0.009,0.0129 c 1.763,-1.8749 4.008,-4.9414 5.295,-7.7689 l 0.364,0.1657 c -1.308,2.8753 -3.581,5.9775 -5.368,7.8772 z m 5.351,-7.8413 c 1.464,-1.1898 4.519,-2.8316 7.837,-3.6852 l 0.1,0.3874 c -3.269,0.841 -6.27,2.4588 -7.685,3.6082 z m 7.837,-3.6852 c 2.963,-0.7614 5.708,-0.6034 9.158,0.5152 l -0.123,0.3805 c -3.392,-1.0998 -6.059,-1.2474 -8.935,-0.5082 z m 9.158,0.5151 c 2.551,0.8257 4.258,2.4249 4.947,3.5633 l -0.342,0.2071 c -0.637,-1.0514 -2.263,-2.592 -4.728,-3.3898 z m 4.947,3.5629 c 0.142,0.2331 0.233,0.4328 0.285,0.5969 0.05,0.1565 0.071,0.3051 0.041,0.4229 l -0.388,-0.0984 c 0,4e-4 10e-4,-0.0038 0.002,-0.0137 0,-0.0097 0,-0.0234 -0.002,-0.0415 -0.004,-0.0363 -0.014,-0.0857 -0.034,-0.1487 -0.04,-0.126 -0.116,-0.2963 -0.246,-0.5096 z m 0.327,1.0172 c -0.091,0.3775 -0.342,0.6923 -0.717,0.9491 -0.374,0.2555 -0.882,0.4608 -1.511,0.6222 -1.258,0.3226 -3.049,0.4802 -5.353,0.4772 v -0.4 c 2.293,0.0029 4.044,-0.1546 5.254,-0.4647 0.605,-0.1551 1.063,-0.3456 1.384,-0.565 0.319,-0.218 0.493,-0.4571 0.554,-0.712 z m -7.581,2.0485 c -2.082,-0.0045 -6.151,1.1605 -8.752,4.3844 l -0.311,-0.2512 c 2.69,-3.3343 6.883,-4.5379 9.064,-4.5332 z m -8.752,4.3842 c -0.296,0.3678 -0.689,0.8778 -1.157,1.4832 l -0.316,-0.2444 c 0.466,-0.6041 0.862,-1.1178 1.162,-1.4896 z m -1.157,1.483 c -0.996,1.2945 -2.333,3.0299 -3.7,4.6251 -1.361,1.5901 -2.768,3.0603 -3.906,3.81 l -0.22,-0.334 c 1.085,-0.7152 2.46,-2.145 3.823,-3.7362 1.358,-1.5861 2.689,-3.3134 3.687,-4.6089 z m -7.606,8.4351 c -0.974,0.6423 -1.903,1.3496 -2.806,2.0392 l -0.243,-0.3179 c 0.902,-0.6885 1.841,-1.4042 2.829,-2.0553 z m -2.806,2.0393 c -2.36,1.799 -4.833,3.6895 -8.305,4.4458 l -0.085,-0.3908 c 3.374,-0.735 5.781,-2.5697 8.147,-4.3731 z m -8.305,4.4458 c -1.063,0.2322 -2.548,0.4479 -4.11,0.6731 l -0.057,-0.3959 c 1.567,-0.226 3.035,-0.4396 4.082,-0.668 z m -4.11,0.6731 c -2.375,0.3441 -4.802,0.6965 -6.265,1.1624 l -0.121,-0.3812 c 1.501,-0.4784 3.969,-0.8352 6.328,-1.1771 z m -6.265,1.1623 c -3.9562,1.2635 -8.5379,3.7378 -12.9173,6.4555 -4.3768,2.7162 -8.539,5.6675 -11.6562,7.8786 L 78.9931,98.581 c 3.1163,-2.2104 7.288,-5.1686 11.6767,-7.8921 4.3863,-2.7221 9.002,-5.2178 13.0062,-6.4967 z M 79.2244,98.9073 c -1.5385,1.0899 -2.8696,2.0367 -3.7869,2.6357 l -0.2189,-0.335 c 0.9093,-0.594 2.2325,-1.5346 3.7746,-2.6271 z m -3.7869,2.6357 c -4.5263,2.961 -15.8662,9.314 -26.4217,15.111 l -0.1925,-0.351 c 10.561,-5.799 21.8849,-12.144 26.3953,-15.095 z m -26.3732,14.797 0.3332,0.35 -0.2896,0.276 -0.3332,-0.35 z m 0.0921,0.313 c 10.5452,-5.792 21.8324,-12.118 26.3371,-15.065 l 0.219,0.334 c -4.5207,2.958 -15.8239,9.293 -26.3635,15.081 z m 26.3374,-15.066 c 0.9155,-0.596 2.1795,-1.493 3.786,-2.6331 l 0.2316,0.3261 c -1.6036,1.138 -2.8755,2.041 -3.7992,2.643 z m 3.7861,-2.6332 c 3.1082,-2.2039 7.2685,-5.1546 11.6413,-7.8698 4.3703,-2.7135 8.9656,-5.1999 12.9438,-6.4685 l 0.122,0.3811 c -3.93,1.2531 -8.4913,3.7179 -12.8548,6.4273 -4.3609,2.7077 -8.5117,5.6516 -11.6209,7.8562 z M 103.865,84.6155 c 1.471,-0.4687 3.922,-0.8243 6.266,-1.1637 l 0.057,0.3959 c -2.359,0.3416 -4.77,0.6927 -6.201,1.1489 z m 6.266,-1.1637 c 1.576,-0.228 3.051,-0.4428 4.11,-0.674 l 0.085,0.3908 c -1.076,0.235 -2.567,0.4518 -4.138,0.6791 z m 4.11,-0.674 c 3.455,-0.7524 5.895,-2.6119 8.29,-4.4372 l 0.242,0.3182 c -2.389,1.8212 -4.894,3.7362 -8.447,4.5098 z m 8.29,-4.437 c 0.897,-0.6863 1.833,-1.3975 2.809,-2.0421 l 0.221,0.3339 c -0.964,0.6359 -1.889,1.339 -2.787,2.0259 z m 2.809,-2.0421 c 1.11,-0.7315 2.502,-2.1769 3.878,-3.7813 1.372,-1.5996 2.712,-3.3382 3.717,-4.6421 l 0.317,0.2442 c -1.005,1.3027 -2.351,3.0496 -3.73,4.6582 -1.375,1.6037 -2.8,3.0892 -3.961,3.8549 z m 7.595,-8.4233 c 0.463,-0.601 0.858,-1.1139 1.157,-1.4836 l 0.311,0.2512 c -0.295,0.3654 -0.687,0.8742 -1.151,1.4765 z m 1.157,-1.4835 c 2.611,-3.2368 6.665,-4.4063 8.773,-4.4021 l -0.001,0.4 c -2.008,-0.004 -5.939,1.1265 -8.461,4.2532 z m 8.773,-4.4021 c 2.424,0.0041 4.251,-0.1713 5.509,-0.5238 1.269,-0.3555 1.893,-0.8705 2.043,-1.493 l 0.389,0.0938 c -0.204,0.8457 -1.023,1.4199 -2.324,1.7843 -1.312,0.3675 -3.182,0.5428 -5.617,0.5387 z m 7.553,-2.0176 c 0.022,-0.0923 0.016,-0.2316 -0.04,-0.4203 -0.056,-0.1857 -0.156,-0.404 -0.302,-0.6451 l 0.342,-0.2069 c 0.158,0.2609 0.275,0.5103 0.343,0.737 0.067,0.2238 0.092,0.4417 0.045,0.6307 z m -0.342,-1.0651 c -0.721,-1.1878 -2.419,-2.7793 -5.02,-3.6225 l 0.123,-0.3805 c 2.688,0.8711 4.465,2.5212 5.239,3.7954 z m -5.02,-3.6225 c -3.48,-1.1284 -6.217,-1.2798 -9.175,-0.5193 l -0.1,-0.3874 c 3.045,-0.7827 5.861,-0.6211 9.398,0.5262 z m -9.175,-0.5193 c -2.879,0.7413 -5.56,2.0803 -7.167,3.1906 l -0.227,-0.3291 c 1.644,-1.1362 4.368,-2.4954 7.294,-3.2489 z m -7.467,2.9534 c 0.066,-0.1692 0.129,-0.3363 0.187,-0.4997 l 0.377,0.1325 c -0.059,0.1694 -0.124,0.341 -0.191,0.5124 z m 0.186,-0.4989 c 1.203,-3.4729 3.978,-9.015 5.519,-12.0021 l 0.356,0.1834 c -1.544,2.9922 -4.305,8.5085 -5.497,11.9496 z m 5.519,-12.0022 c 0.945,-1.8282 2.446,-4.037 4.019,-6.1869 l 0.323,0.2361 c -1.571,2.1472 -3.057,4.3353 -3.986,6.1344 z m 4.215,-6.2657 c 0.017,0.003 0.031,0.0075 0.04,0.0107 0.004,0.0016 0.007,0.003 0.009,0.0038 10e-4,4e-4 0.002,8e-4 0.003,9e-4 0,2e-4 0,2e-4 0,2e-4 0,-1e-4 -0.002,-9e-4 -0.005,-0.0019 -0.002,-0.001 -0.007,-0.0024 -0.012,-0.0039 -0.011,-0.0031 -0.026,-0.0063 -0.044,-0.0067 l -0.01,0.3999 c -0.044,-0.0011 -0.076,-0.0155 -0.082,-0.0178 -0.001,-4e-4 -0.002,-8e-4 -0.002,-9e-4 -0.001,-2e-4 0,-2e-4 0,-10e-5 0,10e-5 0.002,8e-4 0.004,0.0018 0.005,0.0019 0.016,0.0054 0.029,0.0077 z m -0.014,0.003 c 0.156,2e-4 0.332,0.0188 0.502,0.0339 l -0.035,0.3984 c -0.183,-0.0162 -0.334,-0.0321 -0.467,-0.0323 z m 0.503,0.034 c 0.446,0.0416 0.967,0.0888 1.476,-0.0482 0.496,-0.1338 0.992,-0.4468 1.377,-1.1567 l 0.351,0.1907 c -0.438,0.8078 -1.024,1.1904 -1.624,1.3522 -0.588,0.1585 -1.179,0.1011 -1.617,0.0602 z m 2.853,-1.2049 c 0.334,-0.6167 0.402,-1.1875 0.231,-1.7095 l 0.38,-0.1247 c 0.213,0.6481 0.115,1.3334 -0.26,2.0248 z m 0.231,-1.709 c -0.142,-0.43 -0.41,-0.7195 -0.611,-0.8887 l 0.257,-0.306 c 0.237,0.1991 0.561,0.5466 0.734,1.0689 z m -0.64,-1.1647 c 0.366,-0.4702 0.719,-0.9197 1.049,-1.3413 l 0.315,0.2466 c -0.33,0.4221 -0.682,0.8709 -1.049,1.3407 z m 1.049,-1.3414 c 0.398,-0.5067 0.759,-0.9666 1.075,-1.3741 l 0.316,0.2449 c -0.316,0.4087 -0.679,0.8699 -1.076,1.376 z m 1.303,-1.4387 c 0.235,0.0887 1.85,0.6787 4.63,1.1497 l -0.066,0.3944 c -2.81,-0.476 -4.45,-1.0735 -4.705,-1.1699 z m 4.63,1.1497 c 1.532,0.2591 2.49,-0.3136 3.1,-1.0542 0.621,-0.7533 0.885,-1.6897 0.982,-2.1399 l 0.391,0.0838 c -0.101,0.4732 -0.383,1.4837 -1.064,2.3104 -0.691,0.8394 -1.789,1.4798 -3.475,1.1943 z m 4.082,-3.194 c 0.013,-0.0614 0.02,-0.1852 -0.098,-0.3595 l 0.331,-0.224 c 0.181,0.2673 0.193,0.5028 0.158,0.6671 z m -0.098,-0.3598 c -0.12,-0.1776 -0.356,-0.378 -0.686,-0.5878 -0.327,-0.2069 -0.727,-0.4118 -1.155,-0.6041 -0.856,-0.3846 -1.808,-0.7115 -2.464,-0.899 l 0.11,-0.3846 c 0.672,0.1919 1.642,0.5251 2.518,0.9187 0.438,0.1968 0.857,0.4105 1.205,0.6312 0.343,0.2178 0.637,0.4542 0.804,0.7022 z m -4.389,-2.4263 c 0.816,-0.7966 1.687,-1.6146 2.579,-2.4246 l 0.269,0.296 c -0.888,0.8072 -1.756,1.622 -2.569,2.4149 z m 2.674,-2.4726 c 0.345,-0.0699 2.449,-0.4917 6.638,-1.1629 l 0.063,0.395 c -4.183,0.6703 -6.282,1.0911 -6.622,1.1599 z m 6.638,-1.1629 c 2.033,-0.3254 3.674,-0.8911 4.85,-1.6364 1.174,-0.7447 1.872,-1.6588 2.056,-2.6838 l 0.394,0.0709 c -0.21,1.1678 -0.999,2.1666 -2.236,2.9508 -1.236,0.7836 -2.934,1.3627 -5.001,1.6935 z m 6.906,-4.3181 c 0.025,-0.1478 0.07,-0.2382 0.112,-0.3133 l 0.349,0.1955 c -0.029,0.0517 -0.052,0.0976 -0.067,0.1845 z m 0.119,-0.3256 c 0.038,-0.057 0.069,-0.1047 0.096,-0.1559 l 0.354,0.1854 c -0.037,0.0716 -0.079,0.1352 -0.116,0.1906 z m 0.094,-0.1528 c 0.001,-0.0011 -0.002,0.003 -0.001,0.0114 l 0.399,-0.0213 c 0.004,0.0692 -0.012,0.1337 -0.04,0.1891 z m 0.005,-0.0513 c 0.021,-0.0754 0.026,-0.1897 -0.052,-0.4217 l 0.379,-0.1274 c 0.092,0.2733 0.108,0.4735 0.06,0.6532 z m -0.052,-0.4216 c -0.348,-1.0336 -1.211,-1.2227 -2.179,-1.4196 l 0.08,-0.392 c 0.937,0.1906 2.048,0.4066 2.478,1.684 z m -2.181,-1.4199 -0.225,-0.0474 0.083,-0.3914 0.225,0.0474 z m -0.225,-0.0473 c -0.503,-0.1053 -1.127,-0.1554 -1.852,-0.1493 l -0.003,-0.4 c 0.742,-0.0062 1.397,0.0448 1.937,0.1577 z m -2.017,-0.4645 c 0.648,-0.9197 1.045,-1.7656 1.238,-2.4755 0.195,-0.7149 0.178,-1.2712 0.028,-1.6282 l 0.369,-0.1547 c 0.198,0.4722 0.196,1.1294 -0.011,1.888 -0.208,0.7636 -0.628,1.6513 -1.297,2.6008 z m 1.266,-4.1038 c -0.183,-0.436 -0.722,-0.8752 -1.494,-1.1387 l 0.129,-0.3785 c 0.824,0.2812 1.489,0.7766 1.734,1.3626 z m -1.494,-1.1387 c -1.561,-0.5334 -3.363,-0.1451 -4.822,1.0665 l -0.256,-0.3078 c 1.55,-1.2867 3.495,-1.7223 5.207,-1.1372 z m -4.822,1.0665 c -0.792,0.6564 -2.873,2.1448 -5.268,3.8582 l -0.232,-0.3253 c 2.403,-1.7197 4.467,-3.1963 5.245,-3.8408 z m -5.268,3.8581 c -0.093,0.0673 -0.188,0.1357 -0.283,0.2039 l -0.234,-0.3249 c 0.094,-0.0675 0.191,-0.1368 0.284,-0.2041 z m -0.368,0.2389 c -2.524,0.4065 -9.338,1.2001 -11.976,1.3584 l -0.024,-0.3993 c 2.622,-0.1574 9.424,-0.9492 11.936,-1.354 z m -11.976,1.3584 c -1.335,0.0796 -2.064,0.2504 -2.608,0.5918 -0.548,0.3441 -0.931,0.8732 -1.547,1.7501 l -0.327,-0.2299 c 0.603,-0.8596 1.032,-1.4638 1.662,-1.859 0.634,-0.3978 1.449,-0.572 2.796,-0.6523 z m -4.379,2.4175 c -0.427,-0.1361 -1.757,-0.5696 -2.727,-0.9771 l 0.155,-0.3687 c 0.952,0.3998 2.266,0.8286 2.693,0.9647 z m -2.727,-0.9772 c -0.67,-0.2821 -2.178,-0.3541 -3.478,0.6823 l -0.249,-0.3128 c 1.422,-1.1336 3.087,-1.0734 3.882,-0.738 z m -3.478,0.6824 c -0.571,0.4544 -1.616,1.3902 -2.839,2.4812 l -0.266,-0.2984 c 1.216,-1.0856 2.273,-2.0323 2.856,-2.4959 z m -2.839,2.4811 c -1.494,1.3366 -3.191,2.8553 -4.31,3.7408 l -0.248,-0.3137 c 1.107,-0.8761 2.793,-2.3848 4.292,-3.7252 z m -4.393,3.7797 c -1.626,0.3417 -3.445,1.4846 -5.362,2.7599 l -0.221,-0.3331 c 1.901,-1.2652 3.786,-2.4578 5.501,-2.8183 z m -5.362,2.7598 c -0.816,0.5436 -1.8,0.6673 -2.778,0.7969 l -0.052,-0.3965 c 0.999,-0.1325 1.883,-0.2505 2.609,-0.7333 z m -2.778,0.797 c -1.369,0.1781 -2.689,0.3585 -3.625,1.537 l -0.313,-0.2488 c 1.05,-1.3226 2.539,-1.5096 3.886,-1.6849 z m -3.625,1.5366 c -0.53,0.6707 -0.942,1.2175 -1.32,1.7201 l -0.32,-0.2408 c 0.379,-0.5024 0.793,-1.0526 1.326,-1.7273 z m -1.32,1.7198 c -1.005,1.3383 -1.735,2.3091 -3.767,4.3412 l -0.283,-0.2828 c 2.014,-2.0146 2.732,-2.9697 3.73,-4.2986 z m -3.767,4.3411 c -1.397,1.3997 -4.1331,5.0036 -6.7609,8.7965 -2.6277,3.7928 -5.1248,7.7428 -6.0518,9.8296 l -0.3656,-0.1624 c 0.9445,-2.126 3.4629,-6.105 6.0887,-9.895 2.6257,-3.79 5.3806,-7.4227 6.8066,-8.8513 z M 89.6622,55.9066 c -0.9972,2.2437 -2.6856,5.0063 -4.4928,7.2235 -0.9036,1.1087 -1.8417,2.0868 -2.7429,2.7964 -0.895,0.7047 -1.7806,1.1661 -2.5758,1.1949 l -0.0145,-0.3997 c 0.6651,-0.0242 1.4667,-0.4196 2.3429,-1.1095 0.8701,-0.6851 1.7874,-1.6393 2.6803,-2.7348 1.7858,-2.191 3.4552,-4.9235 4.4373,-7.1333 z m -9.8115,11.2148 c -1.7079,0.0615 -2.7189,0.411 -3.5341,1.1061 -0.8307,0.7083 -1.4753,1.7863 -2.4182,3.37 l -0.3437,-0.2046 c 0.9304,-1.5627 1.6101,-2.709 2.5024,-3.4698 0.9078,-0.774 2.0187,-1.1381 3.7792,-1.2014 z m -5.9522,4.4759 -0.074,0.1247 -0.344,-0.2042 0.074,-0.1247 z m -0.0743,0.1251 c -0.3887,0.6509 -1.1009,1.1329 -2.1685,1.6113 -1.0701,0.4795 -2.5356,0.9711 -4.4689,1.6195 L 67.0597,74.574 c 1.9412,-0.6511 3.3845,-1.1357 4.4325,-1.6053 1.0506,-0.4708 1.6658,-0.9109 1.9886,-1.4514 z m -6.6375,3.2309 c -1.0919,0.365 -2.3374,0.7845 -3.7538,1.2809 l -0.1323,-0.3775 c 1.4191,-0.4973 2.6667,-0.9175 3.7592,-1.2828 z"
       fill="#848998"
       mask="url(#path-23-outside-1_1214_5698)"
       id="path25" />
    <path
       d="m 158.662,14.7713 c 1.481,-1.1997 3.069,-2.7357 1.875,-3.9766 -1.071,-1.11559 -2.702,-0.6691 -4.183,0.5289 -1.483,1.1966 -3.04,2.3135 -1.847,3.7973 1.296,1.6142 2.673,0.8483 4.155,-0.3496 z"
       fill="#f2f5fc"
       id="path26" />
    <path
       d="m 155.055,16.0306 v 0 c 0.676,0.4251 1.357,0.3992 2.005,0.1543 0.642,-0.2429 1.258,-0.7034 1.819,-1.1562 v 0 c 0.591,-0.4783 1.193,-1.0041 1.645,-1.5528 0.451,-0.5466 0.764,-1.1303 0.751,-1.7228 -0.008,-0.4286 -0.186,-0.8216 -0.519,-1.1681 m -5.701,5.4456 5.629,-5.3763 m -5.629,5.3763 c -0.277,-0.1746 -0.541,-0.4191 -0.788,-0.7264 v -10e-5 c -0.329,-0.4085 -0.486,-0.799 -0.506,-1.1762 -0.02,-0.377 0.098,-0.729 0.299,-1.0596 0.396,-0.6508 1.13,-1.2407 1.834,-1.8059 l 0.014,-0.0113 v -2e-4 l 0.232,-0.185 m -1.085,4.9647 1.085,-4.9647 m 4.616,-0.4809 -0.072,0.0693 m 0.072,-0.0693 c 0,0 0,0 0,0 l -0.072,0.0693 m 0.072,-0.0693 c -0.551,-0.5725 -1.269,-0.8099 -2.069,-0.72266 -0.797,0.08687 -1.671,0.49456 -2.547,1.20336 v -2e-4 l 0.062,0.0781 m 4.482,-0.4893 c -1.055,-1.09695 -2.748,-0.91296 -4.482,0.4893 m 0,0 -0.062,-0.0777 m 0.062,0.0777 -0.062,-0.0777 m 0.428,0.5154 v 2e-4 l -0.231,0.186 v 10e-5 c -0.811,0.6505 -1.427,1.1804 -1.731,1.6845 -0.15,0.2488 -0.22,0.4848 -0.203,0.7215 0.016,0.2368 0.121,0.4869 0.342,0.7619 0.199,0.2468 0.403,0.4343 0.605,0.5624 0.431,0.2719 0.887,0.2812 1.395,0.0955 0.514,-0.1877 1.075,-0.5724 1.702,-1.0798 v -10e-5 c 0.524,-0.4231 1.08,-0.9043 1.502,-1.3956 0.426,-0.4953 0.699,-0.9819 0.69,-1.4173 -0.006,-0.2493 -0.105,-0.4765 -0.317,-0.6972 -0.106,-0.1098 -0.22,-0.2026 -0.34,-0.2781 -0.822,-0.5173 -2.057,-0.2401 -3.414,0.856 z m 1.942,3.01 c 1.049,-0.8477 2.249,-1.9433 2.229,-2.8929 -0.006,-0.2784 -0.118,-0.5287 -0.345,-0.7643 z"
       fill="#848998"
       stroke="#848998"
       stroke-width="0.2"
       id="path27" />
    <path
       d="m 151.364,60.606 c -0.347,-1.0347 -1.712,-1.9921 -4.879,-2.1249 -3.087,-0.1293 -3.656,1.0026 -3.355,2.4648 0.242,1.1855 2.97,1.2899 4.617,1.1245 2.516,-0.2527 3.904,-0.6051 3.617,-1.4644 z"
       fill="#f2f5fc"
       id="path28" />
    <mask
       id="path-28-outside-2_1214_5698"
       maskUnits="userSpaceOnUse"
       x="140.592"
       y="54.0068"
       width="12.7242"
       height="12.7242"
       fill="#000000">
      <rect
         fill="#ffffff"
         x="140.592"
         y="54.006802"
         width="12.7242"
         height="12.7242"
         id="rect28" />
      <path
         d="m 150.244,59.5865 c -0.824,-0.5184 -2.08,-0.8165 -3.737,-0.8857 -1.506,-0.062 -2.495,0.1797 -2.938,0.7245 -0.29,0.3526 -0.363,0.8471 -0.228,1.5103 0.038,0.1809 0.161,0.3367 0.378,0.473 0.799,0.5019 2.57,0.5839 3.973,0.4432 1.443,-0.1442 3.138,-0.3785 3.444,-0.9013 0.053,-0.0912 0.059,-0.1884 0.02,-0.3032 -0.136,-0.4081 -0.444,-0.7662 -0.912,-1.0608 z m -6.712,2.1857 c -0.344,-0.2162 -0.552,-0.4896 -0.619,-0.8138 -0.161,-0.7928 -0.064,-1.3956 0.302,-1.8429 0.525,-0.6442 1.587,-0.9239 3.243,-0.8542 2.857,0.1193 4.659,0.957 5.111,2.3059 0.08,0.2399 0.063,0.4578 -0.048,0.6491 -0.313,0.5348 -1.357,0.8361 -3.72,1.0735 -1.371,0.1382 -3.311,0.0843 -4.269,-0.5176 z"
         id="path29" />
    </mask>
    <path
       d="m 150.244,59.5865 c -0.824,-0.5184 -2.08,-0.8165 -3.737,-0.8857 -1.506,-0.062 -2.495,0.1797 -2.938,0.7245 -0.29,0.3526 -0.363,0.8471 -0.228,1.5103 0.038,0.1809 0.161,0.3367 0.378,0.473 0.799,0.5019 2.57,0.5839 3.973,0.4432 1.443,-0.1442 3.138,-0.3785 3.444,-0.9013 0.053,-0.0912 0.059,-0.1884 0.02,-0.3032 -0.136,-0.4081 -0.444,-0.7662 -0.912,-1.0608 z m -6.712,2.1857 c -0.344,-0.2162 -0.552,-0.4896 -0.619,-0.8138 -0.161,-0.7928 -0.064,-1.3956 0.302,-1.8429 0.525,-0.6442 1.587,-0.9239 3.243,-0.8542 2.857,0.1193 4.659,0.957 5.111,2.3059 0.08,0.2399 0.063,0.4578 -0.048,0.6491 -0.313,0.5348 -1.357,0.8361 -3.72,1.0735 -1.371,0.1382 -3.311,0.0843 -4.269,-0.5176 z"
       fill="#848998"
       id="path30" />
    <path
       d="m 146.507,58.7008 0.008,-0.1998 v 0 z m -2.938,0.7245 0.155,0.1262 -10e-4,9e-4 z m -0.228,1.5103 -0.195,0.0406 -10e-4,-5e-4 z m 0.378,0.473 0.107,-0.1694 v 1e-4 z m 3.973,0.4432 -0.02,-0.199 v 0 z m 3.444,-0.9013 0.173,0.1007 v 3e-4 z m 0.02,-0.3032 -0.189,0.0656 -0.001,-0.0023 z m -8.243,0.3111 -0.196,0.0403 v -4e-4 z m 0.302,-1.8429 0.155,0.1263 -0.001,4e-4 z m 3.243,-0.8542 -0.009,0.1998 v 0 z m 5.111,2.3059 0.19,-0.0636 v 2e-4 z m -0.048,0.6491 0.173,0.1008 -10e-4,3e-4 z m -3.72,1.0735 -0.02,-0.199 v 0 z m 2.336,-2.5341 c -0.78,-0.491 -1.995,-0.7864 -3.639,-0.8551 l 0.017,-0.3996 c 1.67,0.0697 2.968,0.3704 3.835,0.9162 z m -3.638,-0.8551 c -0.743,-0.0305 -1.346,0.0145 -1.812,0.1291 -0.467,0.1149 -0.779,0.2953 -0.963,0.5218 l -0.31,-0.2523 c 0.258,-0.3184 0.663,-0.5312 1.177,-0.6579 0.516,-0.1269 1.161,-0.1718 1.924,-0.1403 z m -2.776,0.6518 c -0.235,0.2866 -0.315,0.7091 -0.186,1.3431 l -0.392,0.0802 c -0.141,-0.6924 -0.075,-1.2589 0.269,-1.6774 z m -0.186,1.3426 c 0.023,0.1104 0.1,0.226 0.289,0.3442 l -0.213,0.3389 c -0.246,-0.1544 -0.415,-0.3505 -0.467,-0.6019 z m 0.289,0.3443 c 0.357,0.2246 0.96,0.3677 1.671,0.4327 0.704,0.0643 1.484,0.0501 2.175,-0.0192 l 0.04,0.398 c -0.712,0.0714 -1.519,0.0865 -2.251,0.0195 -0.725,-0.0662 -1.407,-0.2152 -1.848,-0.4923 z m 3.846,0.4135 c 0.721,-0.072 1.495,-0.1657 2.125,-0.305 0.316,-0.0697 0.587,-0.1492 0.795,-0.2396 0.215,-0.0937 0.328,-0.185 0.371,-0.2586 l 0.346,0.2019 c -0.11,0.1878 -0.324,0.3217 -0.557,0.4235 -0.242,0.105 -0.541,0.1912 -0.868,0.2634 -0.655,0.1447 -1.45,0.2402 -2.172,0.3124 z m 3.291,-0.8029 c 0.019,-0.0332 0.028,-0.0684 0.004,-0.137 l 0.378,-0.1311 c 0.055,0.1608 0.051,0.32 -0.036,0.4694 z m 0.003,-0.1393 c -0.118,-0.3531 -0.388,-0.6777 -0.829,-0.9548 l 0.213,-0.3386 c 0.496,0.3122 0.841,0.7036 0.995,1.1669 z m -7.541,1.2309 c -0.379,-0.2381 -0.628,-0.5534 -0.708,-0.9428 l 0.392,-0.0806 c 0.053,0.2591 0.22,0.4905 0.529,0.6847 z m -0.708,-0.9432 c -0.168,-0.8262 -0.075,-1.4987 0.343,-2.0095 l 0.309,0.2534 c -0.314,0.3838 -0.414,0.9169 -0.26,1.6763 z m 0.343,-2.0091 c 0.59,-0.7249 1.744,-0.9977 3.406,-0.9277 l -0.017,0.3996 c -1.65,-0.0695 -2.62,0.2171 -3.079,0.7807 z m 3.406,-0.9277 c 1.444,0.0602 2.637,0.3023 3.532,0.7096 0.896,0.4075 1.512,0.989 1.761,1.7325 l -0.379,0.1271 c -0.203,-0.6053 -0.715,-1.1172 -1.547,-1.4955 -0.833,-0.3787 -1.97,-0.6151 -3.384,-0.6741 z m 5.293,2.4423 c 0.096,0.2866 0.079,0.5654 -0.065,0.8133 l -0.346,-0.2016 c 0.079,-0.1347 0.096,-0.2916 0.031,-0.485 z m -0.066,0.8136 c -0.197,0.337 -0.602,0.5643 -1.208,0.7393 -0.614,0.1771 -1.48,0.3132 -2.664,0.4321 l -0.04,-0.398 c 1.179,-0.1184 2.016,-0.2518 2.593,-0.4184 0.585,-0.1687 0.858,-0.3594 0.974,-0.5572 z m -3.872,1.1714 c -0.696,0.0701 -1.537,0.0917 -2.328,0.0189 -0.784,-0.0722 -1.548,-0.2395 -2.068,-0.5662 l 0.213,-0.3387 c 0.438,0.2753 1.124,0.4359 1.892,0.5066 0.761,0.07 1.576,0.0494 2.251,-0.0186 z"
       fill="#848998"
       mask="url(#path-28-outside-2_1214_5698)"
       id="path31" />
    <path
       d="M 89.9742,69.2 C 89.1845,69.488 88.329,71 88,71.72 c 0,1.44 0.6581,1.44 1.9742,1.08 1.3162,-0.36 1.6452,-1.08 1.9743,-2.52 0.329,-1.44 -0.9871,-1.44 -1.9743,-1.08 z"
       fill="#ff6767"
       id="path32" />
  </g>
  <defs
     id="defs32">
    <clipPath
       id="clip0_1214_5698">
      <rect
         width="125"
         height="100"
         fill="white"
         transform="translate(52)"
         id="rect32" />
    </clipPath>
  </defs>
  <text
     xml:space="preserve"
     style="font-size:17.3333px;line-height:1.5;font-family:sans-serif;-inkscape-font-specification:sans-serif;text-align:center;writing-mode:lr-tb;direction:ltr;text-anchor:middle;fill:#13204b"
     x="111.86947"
     y="158.04932"
     id="text32"><tspan
       sodipodi:role="line"
       id="tspan32"
       x="111.86947"
       y="158.04932">   </tspan><tspan
       sodipodi:role="line"
       x="111.86947"
       y="184.26549"
       id="tspan33"><tspan
   style="font-weight:bold"
   id="tspan35"> </tspan>  </tspan><tspan
       sodipodi:role="line"
       x="114.91634"
       y="210.48166"
       id="tspan34">(,  ) </tspan></text>
</svg>
