<?xml version="1.0" encoding="UTF-8" standalone="no"?>
<svg
   width="225"
   height="215"
   viewBox="0 0 225 190"
   fill="none"
   version="1.1"
   id="svg29"
   sodipodi:docname="slider-2-ab8f0d5d-2.svg"
   inkscape:version="1.3.2 (091e20e, 2023-11-25, custom)"
   xmlns:inkscape="http://www.inkscape.org/namespaces/inkscape"
   xmlns:sodipodi="http://sodipodi.sourceforge.net/DTD/sodipodi-0.dtd"
   xmlns="http://www.w3.org/2000/svg"
   xmlns:svg="http://www.w3.org/2000/svg">
  <sodipodi:namedview
     id="namedview29"
     pagecolor="#ffffff"
     bordercolor="#000000"
     borderopacity="0.25"
     inkscape:showpageshadow="2"
     inkscape:pageopacity="0.0"
     inkscape:pagecheckerboard="0"
     inkscape:deskcolor="#d1d1d1"
     inkscape:zoom="2.6672726"
     inkscape:cx="67.297209"
     inkscape:cy="98.040224"
     inkscape:window-width="1920"
     inkscape:window-height="1046"
     inkscape:window-x="-11"
     inkscape:window-y="-11"
     inkscape:window-maximized="1"
     inkscape:current-layer="svg29" />
  <g
     clip-path="url(#clip0_1306_3300)"
     id="g29"
     transform="translate(-2.8386336e-5)">
    <path
       d="m 86.1029,85.5261 c -0.1645,0 -1.7969,-0.0372 -3.187,-1.4053 -1.2907,-1.2705 -1.9452,-3.236 -1.9452,-5.8412 V 43.4432 c 0,-0.3657 0.2964,-0.6621 0.6621,-0.6621 0.3657,0 0.6621,0.2964 0.6621,0.6621 v 34.8364 c 0,2.2374 0.5212,3.8854 1.5495,4.8975 1.0244,1.0084 2.2306,1.0253 2.2593,1.0253 4e-4,0 4e-4,0 4e-4,0 l 9.4822,-4e-4 c 0.3657,0 0.6621,0.2968 0.6621,0.662 0,0.3657 -0.2964,0.6621 -0.6621,0.6621 h -9.4716 c -0.0021,0 -0.0063,0 -0.0118,0 z"
       fill="#848998"
       id="path2" />
    <path
       d="m 114.972,85.5261 h -8.01 c -0.366,0 -0.662,-0.2964 -0.662,-0.6621 0,-0.3652 0.296,-0.662 0.662,-0.662 h 8.01 c 0.365,0 0.662,0.2968 0.662,0.662 0,0.3657 -0.297,0.6621 -0.662,0.6621 z"
       fill="#848998"
       id="path3" />
    <path
       d="m 81.6328,28.1699 c -0.3657,0 -0.6621,-0.2964 -0.6621,-0.6621 V 7.24638 c 0,-2.60519 0.6545,-4.57073 1.9452,-5.84077 1.4405,-1.418435 3.1345,-1.405718719 3.2094,-1.405297195 l 17.8627,-4.53949e-4 c 0.365,0 0.662,0.296800144 0.662,0.662084144 0,0.365707 -0.297,0.662087 -0.662,0.662087 H 86.1147 c -4e-4,0 -4e-4,0 -8e-4,0 -0.0639,0 -1.2574,0.01396 -2.289,1.04428 -1.0155,1.01426 -1.53,2.6555 -1.53,4.87807 V 27.5078 c 0,0.3657 -0.2964,0.6621 -0.6621,0.6621 z"
       fill="#848998"
       id="path4" />
    <path
       d="m 121.459,24.9484 c -0.366,0 -0.663,-0.2964 -0.663,-0.6621 V 7.24643 c 0,-2.23736 -0.521,-3.88537 -1.549,-4.89751 -1.032,-1.01595 -2.266,-1.03033 -2.26,-1.02483 H 99.1035 c -0.3653,0 -0.6621,-0.29638 -0.6621,-0.662089 0,-0.365284 0.2968,-0.6620849233 0.6621,-0.6620849233 H 116.977 C 117.031,0.00118446 118.735,-0.0123444 120.175,1.40567 c 1.291,1.27004 1.946,3.23557 1.946,5.84076 V 24.2863 c 0,0.3657 -0.297,0.6621 -0.662,0.6621 z"
       fill="#848998"
       id="path5" />
    <path
       d="m 121.459,38.85 c -0.366,0 -0.662,-0.2964 -0.662,-0.6621 v -2.9125 c 0,-0.3658 0.296,-0.6621 0.662,-0.6621 0.365,0 0.662,0.2963 0.662,0.6621 v 2.9125 c 0,0.3657 -0.297,0.6621 -0.662,0.6621 z"
       fill="#848998"
       id="path6" />
    <path
       d="m 121.459,53.6779 c -0.366,0 -0.662,-0.2964 -0.662,-0.6621 v -6.3693 c 0,-0.3657 0.296,-0.6621 0.662,-0.6621 0.365,0 0.662,0.2964 0.662,0.6621 v 6.3693 c 0,0.3657 -0.297,0.6621 -0.662,0.6621 z"
       fill="#848998"
       id="path7" />
    <path
       d="M 113.913,75.4644 H 83.5406 c -0.2195,0 -0.397,-0.1776 -0.397,-0.397 v -64.608 c 0,-0.2199 0.1775,-0.3975 0.397,-0.3975 h 36.0114 c 0.219,0 0.397,0.1776 0.397,0.3975 V 59.503 c 0,0.2195 -0.178,0.3974 -0.397,0.3974 -0.22,0 -0.397,-0.1779 -0.397,-0.3974 V 10.8563 H 83.938 v 63.8136 h 29.975 c 0.219,0 0.397,0.178 0.397,0.3975 0,0.2194 -0.178,0.397 -0.397,0.397 z"
       fill="#848998"
       id="path8" />
    <path
       d="m 64.5297,123.184 c -0.0617,0 -0.1238,-0.01 -0.1851,-0.033 -0.274,-0.103 -0.4131,-0.407 -0.3112,-0.681 0.0947,-0.254 9.404,-25.4417 6.584,-35.2633 C 70.34,86.7166 68.6929,83.5716 67.5797,76.139 67.2064,73.6459 66.7143,71.1925 66.2386,68.8202 65.1711,63.4991 64.3281,59.2958 65.3939,57.4309 c 1.3301,-2.3283 3.6402,-10.4195 3.8148,-12.8522 0.0393,-0.5458 0.0232,-1.087 0.0076,-1.61 -0.0533,-1.7845 -0.1082,-3.6291 2.1575,-5.2146 0.7411,-0.5187 1.7655,-2.0987 2.8495,-3.7716 2.0103,-3.1015 4.2883,-6.617 6.7738,-6.8487 0.928,-0.0854 1.7986,0.2875 2.5832,1.112 0.0939,0.0985 0.1463,0.2291 0.1463,0.3652 v 10.5032 c 0,0.0169 -8e-4,0.0339 -0.0025,0.0504 -0.7564,7.9728 -9.6424,7.369 -9.7304,7.3623 -0.2917,-0.0228 -0.509,-0.2774 -0.4866,-0.5691 0.0228,-0.2909 0.2714,-0.509 0.5687,-0.487 0.3234,0.0254 7.9187,0.5247 8.5917,-6.3819 V 28.8305 c -0.5103,-0.4828 -1.0273,-0.6934 -1.5719,-0.6418 -1.9744,0.1839 -4.1973,3.6139 -5.9836,6.37 -1.1914,1.8383 -2.2205,3.4263 -3.1307,4.0634 -1.7977,1.2574 -1.7571,2.6069 -1.7064,4.3149 0.0165,0.5496 0.0334,1.1179 -0.0097,1.7174 -0.1852,2.5798 -2.5396,10.8304 -3.9517,13.302 -0.8689,1.5203 0.0211,5.9574 0.9635,10.6554 0.4781,2.3853 0.9732,4.8514 1.3504,7.3704 1.155,7.7132 2.9163,10.7112 2.9341,10.7404 0.0228,0.0389 0.0418,0.0816 0.0545,0.1247 2.9751,10.1146 -6.198,34.9397 -6.5899,35.9927 -0.0795,0.213 -0.2816,0.344 -0.4964,0.344 z"
       fill="#848998"
       id="path9" />
    <path
       d="m 109.411,90.8802 c -0.128,0 -0.256,-0.046 -0.358,-0.1399 -0.216,-0.1983 -0.229,-0.5331 -0.031,-0.7483 l 4.633,-5.0311 c 0.199,-0.2148 0.534,-0.2288 0.749,-0.0305 0.215,0.1979 0.229,0.5332 0.031,0.7484 l -4.634,5.0306 c -0.104,0.1133 -0.247,0.1708 -0.39,0.1708 z"
       fill="#848998"
       id="path10" />
    <path
       d="m 114.662,123.184 c -0.122,0 -0.245,-0.042 -0.345,-0.128 -0.799,-0.689 -7.827,-6.802 -8.379,-9.197 -0.524,-2.27 -5.202,-14.1989 -6.2303,-16.3999 l -0.1019,-0.2177 c -0.6629,-1.4163 -0.9111,-1.9465 -1.1757,-3.4448 -0.0554,-0.3146 -0.3535,-1.1373 -0.6989,-2.0898 -1.6776,-4.6261 -3.1785,-9.2852 -1.5448,-10.9903 0.049,-0.0503 1.1778,-1.191 3.2499,-1.0443 2.7647,0.1924 5.7747,2.4923 8.9457,6.8356 0.022,0.0296 0.04,0.0613 0.055,0.0947 0.083,0.1843 2.02,4.4937 2.494,6.9273 1.209,2.332 3.282,5.6737 4.186,5.932 0.281,0.0808 0.444,0.3738 0.363,0.6552 -0.08,0.281 -0.372,0.443 -0.654,0.363 -1.68,-0.48 -4.353,-5.5259 -4.871,-6.5329 -0.024,-0.0461 -0.04,-0.0951 -0.05,-0.1459 -0.4,-2.1621 -2.19,-6.2183 -2.411,-6.7138 -3.673,-5.0155 -6.428,-6.2255 -8.0945,-6.3561 -1.5829,-0.1209 -2.4187,0.6887 -2.4538,0.7234 -1.3098,1.3673 0.7779,7.1243 1.7812,9.891 0.3915,1.0806 0.6747,1.8615 0.7462,2.267 0.2405,1.3605 0.4376,1.782 1.0919,3.1797 l 0.102,0.2186 c 1.039,2.2226 5.769,14.299 6.303,16.61 0.36,1.56 5.004,6.017 8.038,8.632 0.222,0.191 0.246,0.526 0.056,0.747 -0.105,0.122 -0.253,0.184 -0.402,0.184 z"
       fill="#848998"
       id="path11" />
    <path
       d="m 115.721,106.415 c -0.261,0 -0.489,-0.195 -0.524,-0.461 -0.025,-0.194 -0.62,-4.801 0,-9.4943 0.554,-4.1885 -0.354,-13.1384 -0.75,-16.2332 -0.256,-1.9955 -1.77,-8.9372 -4.605,-16.5671 -0.852,-2.0552 -8.199,-20.2886 -2.222,-23.029 0.225,-0.1302 1.202,-0.6194 2.552,-0.1442 2.384,0.8405 4.482,4.0815 6.236,9.634 0.241,0.6265 6.176,16.0704 6.619,17.5742 l 0.046,0.1598 c 2.151,7.3683 4.73,10.9065 6.515,12.5778 0.214,0.2 0.225,0.5348 0.025,0.7483 -0.199,0.214 -0.535,0.2249 -0.749,0.025 -1.881,-1.7613 -4.589,-5.456 -6.808,-13.0543 l -0.046,-0.1577 c -0.43,-1.4628 -6.54,-17.3629 -6.601,-17.5235 -2.064,-6.5295 -4.177,-8.487 -5.589,-8.9846 -1.001,-0.353 -1.654,0.052 -1.66,0.0563 -0.024,0.016 -0.05,0.0304 -0.077,0.0427 -4.32,1.9274 0.516,16.3088 2.745,21.6879 3.188,8.5799 4.494,15.4489 4.669,16.8196 0.015,0.1129 1.435,11.3246 0.75,16.5067 -0.6,4.5506 -0.006,9.1706 0,9.2176 0.038,0.289 -0.165,0.555 -0.456,0.594 -0.023,0.003 -0.046,0.005 -0.07,0.005 z"
       fill="#848998"
       id="path12" />
    <path
       d="m 142.641,84.349 c -0.264,0 -0.493,-0.1979 -0.525,-0.4668 -0.164,-1.3626 -2.12,-3.0596 -3.549,-4.2988 -0.645,-0.5602 -1.203,-1.0439 -1.537,-1.4379 l -0.21,-0.249 c -1.167,-1.3867 -4.718,-5.6065 -7.251,-6.5557 -2.376,-0.8925 -4.522,2.5477 -4.544,2.5824 -0.153,0.249 -0.479,0.3281 -0.728,0.1754 -0.249,-0.1526 -0.328,-0.4781 -0.175,-0.7276 0.105,-0.1729 2.622,-4.2206 5.82,-3.022 2.791,1.0468 6.349,5.2738 7.688,6.8655 l 0.208,0.2465 c 0.281,0.3319 0.811,0.7906 1.423,1.3221 1.646,1.4277 3.694,3.2047 3.906,4.9727 0.035,0.2905 -0.172,0.5543 -0.462,0.589 -0.022,0.0025 -0.043,0.0042 -0.064,0.0042 z"
       fill="#848998"
       id="path13" />
    <path
       d="m 160.47,122.302 c -0.289,0 -0.525,-0.232 -0.529,-0.522 l -0.442,-29.3912 c -0.081,-7.5996 -7.876,-7.6867 -8.208,-7.6867 -0.212,0 -0.402,-0.1255 -0.486,-0.3196 -1.494,-3.4579 -4.701,-3.1408 -4.837,-3.1264 -0.048,0.0059 -0.099,0.0042 -0.148,-0.0034 l -6.445,-1.0697 c -0.289,-0.0482 -0.484,-0.3209 -0.436,-0.6092 0.048,-0.2883 0.319,-0.4841 0.609,-0.4359 l 6.383,1.0595 c 0.585,-0.0364 3.99,-0.0896 5.707,3.4613 1.676,0.115 8.838,1.0561 8.92,8.7165 L 161,121.764 c 0.004,0.293 -0.229,0.533 -0.522,0.538 -0.003,0 -0.005,0 -0.008,0 z"
       fill="#848998"
       id="path14" />
    <path
       d="m 125.431,38.0996 c -0.293,0 -0.53,-0.2371 -0.53,-0.5297 v -1.6768 c 0,-0.1627 0.075,-0.3166 0.203,-0.4173 1.819,-1.4231 2.091,-4.4502 2.093,-4.4806 0.564,-5.5461 -2.682,-6.1811 -2.715,-6.187 -0.027,-0.0051 -1.962,-0.3594 -2.926,0.5005 -0.42,0.375 -0.597,0.9378 -0.54,1.7195 0.003,0.0368 0.002,0.0736 -0.003,0.1103 -0.207,1.5149 -0.459,5.7554 0.835,7.1675 0.295,0.3222 0.639,0.4608 1.086,0.4405 0.296,-0.0203 0.54,0.211 0.554,0.5031 0.014,0.2922 -0.211,0.5403 -0.503,0.5547 -0.76,0.0368 -1.407,-0.2261 -1.918,-0.7834 -1.815,-1.9811 -1.219,-7.1518 -1.111,-7.9716 -0.068,-1.0912 0.234,-1.9435 0.898,-2.5337 1.358,-1.2066 3.72,-0.7682 3.82,-0.7492 0.034,0.006 4.238,0.8206 3.578,7.3256 -0.01,0.1281 -0.288,3.2947 -2.292,5.0497 v 1.4282 c 0,0.2926 -0.237,0.5297 -0.529,0.5297 z"
       fill="#848998"
       id="path15" />
    <path
       d="m 129.226,51.074 c -0.156,0 -0.31,-0.0681 -0.414,-0.1987 -0.183,-0.2283 -0.146,-0.5615 0.082,-0.7441 1.456,-1.1652 2.751,-4.8654 0.905,-9.1089 -1.639,-3.767 -6.223,-2.3891 -6.417,-2.3291 -0.052,0.0161 -0.105,0.0241 -0.158,0.0241 -0.901,0 -1.591,0.2672 -2.051,0.794 -0.941,1.0785 -0.715,2.9629 -0.712,2.9815 0.039,0.29 -0.164,0.5568 -0.454,0.5961 -0.289,0.0389 -0.557,-0.1636 -0.596,-0.4532 -0.013,-0.096 -0.305,-2.3668 0.964,-3.8212 0.656,-0.75 1.586,-1.1385 2.767,-1.1554 1.987,-0.5966 6.033,-0.7272 7.628,2.9409 1.871,4.301 0.827,8.7254 -1.214,10.3582 -0.097,0.0782 -0.214,0.1158 -0.33,0.1158 z"
       fill="#848998"
       id="path16" />
    <path
       d="m 124.419,47.2358 c -1.254,0 -2.589,-0.2262 -3.559,-1.0861 -0.887,-0.7864 -1.331,-1.9939 -1.321,-3.5882 0.002,-0.2194 0.162,-0.3868 0.4,-0.3944 0.22,0.0012 0.396,0.1801 0.395,0.3995 -0.009,1.3554 0.345,2.3608 1.054,2.9887 1.353,1.2003 3.775,0.8933 5.222,0.7094 l 0.095,-0.0123 c 1.841,-0.2329 2.153,-0.7999 2.156,-0.8058 0.071,-0.2072 0.292,-0.3044 0.5,-0.2329 0.207,0.0718 0.312,0.3103 0.24,0.5179 -0.057,0.1666 -0.463,1.0138 -2.797,1.3089 l -0.094,0.0119 c -0.636,0.0811 -1.445,0.1834 -2.291,0.1834 z"
       fill="#848998"
       id="path17" />
    <path
       d="m 124.054,72.9297 c -0.097,0 -0.194,-0.0262 -0.281,-0.0812 -0.248,-0.1556 -0.323,-0.4824 -0.167,-0.7301 0.036,-0.0571 3.641,-5.7812 7.213,-10.217 3.29,-4.0858 -0.906,-9.4733 -0.949,-9.5274 -2.161,-2.7743 -6.301,0.0757 -6.343,0.1048 -0.024,0.0174 -0.051,0.0326 -0.078,0.0457 -1.167,0.5475 -1.88,1.2705 -2.119,2.1486 -0.391,1.4294 0.556,2.8407 0.566,2.8546 0.033,0.0503 0.611,0.9183 1.932,1.1677 1.504,0.2858 3.417,-0.3636 5.531,-1.8737 0.238,-0.17 0.569,-0.115 0.739,0.123 0.17,0.238 0.115,0.5686 -0.123,0.7386 -2.405,1.7178 -4.553,2.4069 -6.38,2.0458 -1.767,-0.3483 -2.552,-1.5693 -2.585,-1.6209 -0.04,-0.0575 -1.22,-1.8184 -0.702,-3.7142 0.322,-1.1799 1.214,-2.1248 2.65,-2.8089 1.741,-1.202 5.546,-2.6889 7.744,0.1344 0.046,0.0571 4.757,6.1088 0.942,10.8465 -3.534,4.3877 -7.106,10.0589 -7.141,10.1159 -0.101,0.1599 -0.273,0.2478 -0.449,0.2478 z"
       fill="#848998"
       id="path18" />
    <path
       d="m 121.459,64.6663 c -0.366,0 -0.662,-0.2964 -0.662,-0.6621 v -5.8251 c 0,-0.3657 0.296,-0.6621 0.662,-0.6621 0.365,0 0.662,0.2964 0.662,0.6621 v 5.8251 c 0,0.3657 -0.297,0.6621 -0.662,0.6621 z"
       fill="#848998"
       id="path19" />
    <path
       d="m 81.6325,58.5763 c -0.2093,0 -0.3809,-0.1619 -0.3961,-0.3674 -0.0554,-0.2921 -0.7885,-2.3354 -1.4565,-4.1276 -0.0216,-0.0567 -0.0292,-0.1176 -0.0229,-0.1785 0.0047,-0.0494 0.4934,-5.026 0.0529,-9.2449 -0.0228,-0.2182 0.1357,-0.4135 0.3539,-0.4363 0.2223,-0.0229 0.4134,0.1356 0.4363,0.3538 0.4156,3.9797 0.0211,8.6041 -0.044,9.3139 1.4734,3.9573 1.4734,4.2072 1.4734,4.29 0,0.2194 -0.1776,0.397 -0.397,0.397 z"
       fill="#848998"
       id="path20" />
    <path
       d="m 76.6003,34.5317 c -0.7711,0 -1.5266,-0.6565 -1.5613,-0.687 -0.055,-0.0482 -0.06,-0.1315 -0.0118,-0.1869 0.0482,-0.0545 0.1323,-0.06 0.1864,-0.0118 0.0085,0.0072 0.8443,0.731 1.5618,0.6059 0.2887,-0.0521 0.5246,-0.2436 0.7005,-0.5695 0.1146,-0.2118 0.2474,-0.4482 0.3894,-0.7002 0.7843,-1.3935 1.9693,-3.4994 1.4751,-4.3018 -0.0385,-0.0621 -0.019,-0.1437 0.0435,-0.1822 0.0626,-0.0389 0.1438,-0.0186 0.1818,0.0436 0.5763,0.9352 -0.558,2.9505 -1.4695,4.5702 -0.1413,0.2507 -0.2736,0.4858 -0.3873,0.6963 -0.2161,0.4004 -0.515,0.6376 -0.8879,0.7044 -0.0731,0.0127 -0.1471,0.019 -0.2207,0.019 z"
       fill="#848998"
       id="path21" />
    <path
       d="m 75.1267,57.8262 c -0.0549,0 -0.1061,-0.0343 -0.1251,-0.0888 -0.0241,-0.0689 0.0122,-0.1446 0.0816,-0.1687 0.0346,-0.0123 3.5167,-1.2497 4.955,-3.693 0.0368,-0.063 0.1179,-0.0846 0.1814,-0.0474 0.063,0.0372 0.0841,0.1184 0.0469,0.1814 -1.4882,2.5283 -4.9495,3.7581 -5.0962,3.8093 -0.0144,0.0046 -0.0292,0.0072 -0.0436,0.0072 z"
       fill="#848998"
       id="path22" />
    <path
       d="m 97.6283,88.5414 c -0.03,0 -0.0596,-0.0102 -0.0845,-0.0305 -0.0562,-0.0461 -0.0643,-0.1297 -0.0178,-0.1864 1.1052,-1.3419 3.291,-2.0488 3.855,-2.2133 -0.159,-0.5378 -0.29,-1.0185 -0.406,-1.4463 -0.599,-2.1998 -0.802,-2.9405 -2.4148,-3.0153 -1.936,-0.0913 -2.4167,1.3986 -2.4213,1.4142 -0.0212,0.0693 -0.0956,0.1078 -0.1653,0.0875 -0.0702,-0.0216 -0.1091,-0.0951 -0.088,-0.1653 0.0055,-0.0169 0.5399,-1.6992 2.6868,-1.6011 1.8056,0.0837 2.0556,0.9991 2.6576,3.2106 0.126,0.46 0.268,0.9809 0.443,1.569 0.01,0.0342 0.006,0.0714 -0.012,0.1027 -0.017,0.0309 -0.047,0.0542 -0.081,0.063 -0.027,0.0072 -2.6563,0.7137 -3.8498,2.163 -0.0262,0.0317 -0.0638,0.0482 -0.1019,0.0482 z"
       fill="#848998"
       id="path23" />
    <path
       d="m 89.9493,87.394 c -0.0241,0 -0.0486,-0.0067 -0.0706,-0.0207 -0.0617,-0.0393 -0.0799,-0.1209 -0.0406,-0.1826 0.006,-0.0097 0.6143,-0.9707 0.9581,-1.9161 0.0253,-0.0685 0.1019,-0.104 0.1695,-0.079 0.0689,0.0249 0.1044,0.1006 0.0795,0.1695 -0.3543,0.9733 -0.958,1.9275 -0.9838,1.9677 -0.025,0.0397 -0.0681,0.0612 -0.1121,0.0612 z"
       fill="#848998"
       id="path24" />
    <path
       d="m 108.823,46.9915 c -0.206,0 -0.387,-0.0842 -0.539,-0.2499 -0.575,-0.6283 -0.608,-2.3934 -0.461,-3.7141 0.188,-1.6916 2.443,-1.6168 2.464,-1.6185 0.073,0.0034 0.129,0.0651 0.126,0.1378 -0.003,0.0732 -0.07,0.1265 -0.137,0.1273 -0.083,-0.0042 -2.029,-0.063 -2.19,1.3825 -0.152,1.3656 -0.089,2.9794 0.393,3.5066 0.104,0.1129 0.231,0.167 0.355,0.1632 0.394,-0.0085 1.189,-0.3632 2.03,-0.7386 1.175,-0.5234 2.39,-1.065 3.032,-0.9242 0.072,0.0156 0.117,0.0858 0.101,0.1572 -0.015,0.0719 -0.087,0.1184 -0.157,0.1011 -0.56,-0.1222 -1.785,0.4249 -2.868,0.9077 -0.904,0.4034 -1.685,0.7517 -2.132,0.7614 -0.006,5e-4 -0.011,5e-4 -0.017,5e-4 z"
       fill="#848998"
       id="path25" />
    <path
       d="m 122.118,39.2042 c 0.623,0.556 2.343,2.2057 2.57,3.6804 l 2.195,-0.4287 c -0.029,-0.5463 -0.275,-2.9925 -2.319,-3.6034 z m 2.456,3.97 c -0.029,0 -0.057,-0.0089 -0.08,-0.0262 -0.03,-0.0229 -0.049,-0.0571 -0.052,-0.0947 -0.145,-1.6903 -2.689,-3.8157 -2.714,-3.8368 -0.041,-0.0338 -0.057,-0.0875 -0.043,-0.1378 0.014,-0.0507 0.057,-0.0879 0.108,-0.0955 l 2.762,-0.3966 c 0.018,-0.0034 0.037,-0.0017 0.056,0.0038 2.512,0.7251 2.541,3.9412 2.541,3.9737 0,0.0634 -0.045,0.118 -0.107,0.1298 l -2.446,0.4782 c -0.008,0.0017 -0.017,0.0021 -0.025,0.0021 z"
       fill="#848998"
       id="path26" />
    <path
       d="m 124.573,55.9503 c -0.019,0 -0.038,-0.0042 -0.055,-0.0122 -0.04,-0.0182 -0.068,-0.0542 -0.075,-0.0969 -0.228,-1.281 -1.99,-2.7079 -2.008,-2.7223 -0.057,-0.0452 -0.066,-0.1289 -0.02,-0.1856 0.045,-0.0571 0.13,-0.0664 0.186,-0.0207 0.072,0.0579 1.705,1.3796 2.062,2.7012 l 1.441,-0.8274 c 0.05,-0.3847 0.218,-2.4171 -1.781,-3.2094 -0.068,-0.0266 -0.102,-0.104 -0.075,-0.1716 0.027,-0.0681 0.105,-0.1011 0.172,-0.0744 2.368,0.9385 1.94,3.5353 1.936,3.5611 -0.007,0.0389 -0.031,0.0723 -0.065,0.0921 l -1.652,0.9488 c -0.02,0.0118 -0.043,0.0173 -0.066,0.0173 z"
       fill="#848998"
       id="path27" />
    <mask
       id="mask0_1306_3300"
       maskUnits="userSpaceOnUse"
       x="85"
       y="22"
       width="33"
       height="35">
      <path
         d="m 107.5,56.5 -1,-4.5 8.5,-5.5 3,7 v -31 H 85.5 v 34 z"
         fill="#c4c4c4"
         id="path28" />
    </mask>
    <g
       mask="url(#mask0_1306_3300)"
       id="g28">
      <rect
         x="86.5"
         y="24.5"
         width="30"
         height="30"
         rx="3.5"
         stroke="#ff6767"
         stroke-dasharray="2, 2"
         id="rect28" />
    </g>
  </g>
  <defs
     id="defs29">
    <clipPath
       id="clip0_1306_3300">
      <rect
         width="125"
         height="100"
         fill="white"
         transform="translate(50)"
         id="rect29" />
    </clipPath>
  </defs>
  <text
     xml:space="preserve"
     style="font-size:17.3333px;line-height:1.5;font-family:sans-serif;-inkscape-font-specification:sans-serif;text-align:center;writing-mode:lr-tb;direction:ltr;text-anchor:middle;fill:#13204b"
     x="112.73275"
     y="161.3367"
     id="text29"><tspan
       sodipodi:role="line"
       x="112.73275"
       y="161.3367"
       id="tspan38">포커스를 유지한 체 병변을<tspan
   style="font-style:normal;font-variant:normal;font-weight:bold;font-stretch:normal;font-size:17.3333px;font-family:sans-serif;-inkscape-font-specification:'sans-serif, ';font-variant-ligatures:normal;font-variant-caps:normal;font-variant-numeric:normal;font-variant-east-asian:normal;text-align:center;text-anchor:middle"
   id="tspan39"></tspan></tspan><tspan
       sodipodi:role="line"
       x="112.73275"
       y="187.55287"
       id="tspan40"><tspan
   style="font-style:normal;font-variant:normal;font-weight:bold;font-stretch:normal;font-size:17.3333px;font-family:sans-serif;-inkscape-font-specification:'sans-serif, ';font-variant-ligatures:normal;font-variant-caps:normal;font-variant-numeric:normal;font-variant-east-asian:normal;text-align:center;text-anchor:middle"
   id="tspan41">사진 가운데</tspan> 위치 시키세요</tspan></text>
</svg>
